<mxfile host="app.diagrams.net" modified="2020-04-12T09:17:47.098Z" agent="5.0 (Windows NT 10.0; Win64; x64) AppleWebKit/537.36 (KHTML, like Gecko) Chrome/80.0.3987.163 Safari/537.36 Edg/80.0.361.111" etag="8GAmMYAVPYavj9DUkZG0" version="12.9.11" type="github">
  <diagram id="uI8WcVOYWN4nE6fz-f_u" name="垃圾回收算法">
    <mxGraphModel dx="1120" dy="753" grid="1" gridSize="10" guides="1" tooltips="1" connect="1" arrows="1" fold="1" page="1" pageScale="1" pageWidth="827" pageHeight="1169" math="0" shadow="0">
      <root>
        <mxCell id="0" />
        <mxCell id="1" parent="0" />
        <mxCell id="n7uOwCEBbb2PrVGbVbOj-1" style="edgeStyle=orthogonalEdgeStyle;rounded=0;orthogonalLoop=1;jettySize=auto;html=1;exitX=0.25;exitY=1;exitDx=0;exitDy=0;entryX=0;entryY=0.5;entryDx=0;entryDy=0;fontColor=#BC03FF;" parent="1" source="n7uOwCEBbb2PrVGbVbOj-5" target="n7uOwCEBbb2PrVGbVbOj-6" edge="1">
          <mxGeometry relative="1" as="geometry" />
        </mxCell>
        <mxCell id="n7uOwCEBbb2PrVGbVbOj-2" style="edgeStyle=orthogonalEdgeStyle;rounded=0;orthogonalLoop=1;jettySize=auto;html=1;exitX=0.25;exitY=1;exitDx=0;exitDy=0;entryX=0;entryY=0.5;entryDx=0;entryDy=0;fontColor=#BC03FF;" parent="1" source="n7uOwCEBbb2PrVGbVbOj-5" target="n7uOwCEBbb2PrVGbVbOj-7" edge="1">
          <mxGeometry relative="1" as="geometry" />
        </mxCell>
        <mxCell id="n7uOwCEBbb2PrVGbVbOj-3" style="edgeStyle=orthogonalEdgeStyle;rounded=0;orthogonalLoop=1;jettySize=auto;html=1;exitX=0.25;exitY=1;exitDx=0;exitDy=0;entryX=0;entryY=0.5;entryDx=0;entryDy=0;fontColor=#BC03FF;" parent="1" source="n7uOwCEBbb2PrVGbVbOj-5" target="n7uOwCEBbb2PrVGbVbOj-8" edge="1">
          <mxGeometry relative="1" as="geometry" />
        </mxCell>
        <mxCell id="n7uOwCEBbb2PrVGbVbOj-4" style="edgeStyle=orthogonalEdgeStyle;rounded=0;orthogonalLoop=1;jettySize=auto;html=1;exitX=0.25;exitY=1;exitDx=0;exitDy=0;entryX=0;entryY=0.5;entryDx=0;entryDy=0;fontColor=#BC03FF;" parent="1" source="n7uOwCEBbb2PrVGbVbOj-5" target="n7uOwCEBbb2PrVGbVbOj-9" edge="1">
          <mxGeometry relative="1" as="geometry" />
        </mxCell>
        <mxCell id="n7uOwCEBbb2PrVGbVbOj-5" value="垃圾收集算法" style="rounded=0;whiteSpace=wrap;html=1;fillColor=#ffe6cc;strokeColor=#d79b00;" parent="1" vertex="1">
          <mxGeometry x="370" y="50" width="120" height="30" as="geometry" />
        </mxCell>
        <mxCell id="n7uOwCEBbb2PrVGbVbOj-6" value="标记-清除算法" style="rounded=0;whiteSpace=wrap;html=1;fillColor=#dae8fc;strokeColor=#6c8ebf;" parent="1" vertex="1">
          <mxGeometry x="440" y="190" width="120" height="30" as="geometry" />
        </mxCell>
        <mxCell id="n7uOwCEBbb2PrVGbVbOj-7" value="复制算法" style="rounded=0;whiteSpace=wrap;html=1;fillColor=#dae8fc;strokeColor=#6c8ebf;" parent="1" vertex="1">
          <mxGeometry x="440" y="400" width="120" height="30" as="geometry" />
        </mxCell>
        <mxCell id="n7uOwCEBbb2PrVGbVbOj-8" value="标记整理算法" style="rounded=0;whiteSpace=wrap;html=1;fillColor=#dae8fc;strokeColor=#6c8ebf;" parent="1" vertex="1">
          <mxGeometry x="440" y="630" width="120" height="30" as="geometry" />
        </mxCell>
        <mxCell id="n7uOwCEBbb2PrVGbVbOj-9" value="分代收集算法" style="rounded=0;whiteSpace=wrap;html=1;fillColor=#dae8fc;strokeColor=#6c8ebf;" parent="1" vertex="1">
          <mxGeometry x="440" y="812" width="120" height="30" as="geometry" />
        </mxCell>
        <mxCell id="n7uOwCEBbb2PrVGbVbOj-10" value="" style="shape=image;verticalLabelPosition=bottom;labelBackgroundColor=#ffffff;verticalAlign=top;aspect=fixed;imageAspect=0;image=data:image/jpeg,/9j/4AAQSkZJRgABAQIAOwA7AAD/2wBDAAYEBQYFBAYGBQYHBwYIChAKCgkJChQODwwQFxQYGBcUFhYaHSUfGhsjHBYWICwgIyYnKSopGR8tMC0oMCUoKSj/2wBDAQcHBwoIChMKChMoGhYaKCgoKCgoKCgoKCgoKCgoKCgoKCgoKCgoKCgoKCgoKCgoKCgoKCgoKCgoKCgoKCgoKCj/wAARCALFA14DASIAAhEBAxEB/8QAHAABAQEAAwEBAQAAAAAAAAAAAAYHBAUIAwIB/8QAXRAAAQIEAQYHCggLBwMCAwkAAAECAwQFBhEHEhdWldMTFiFUdZPSFCIxNjdVlJaz1BVBUVN0kbS1CCYyNDVhZpKy0eMjQlJxo8TiJDOBJThiY7EYJ1dkcqTBwsP/xAAaAQEAAgMBAAAAAAAAAAAAAAAABAUCAwYB/8QAMxEBAAECAgYHCQEBAQEAAAAAAAECAxVSBBEUUZGhBRITYXHR4SExMjNBQmKBwbHwIvH/2gAMAwEAAhEDEQA/APVIAAAAAAAAAAAAAAAAAAAAAAAAAAAAAAAAAAAAAAAAAAAAAAAAAAAAAAAAAAAAAAAAAAAAAAAAAAAAAAAAAAAAAAAAAAAAAAAAAAAAAAAAAAAAAAAAAAAAAAAAAAAAAAAAAAAAAAAAAAAAAAAAAAAAADPPwgqzUbeyR1urUWbiSdQlHy0SDGhrytXumF8S8ioqKqKi4oqKqKiopL2/ScotTs2m3DN5WYchLTUhCn4vC0CVzIDXQ0euc9VRMGoq4uXDwY8gHcfg9ZQa3lHtao1WuydNl+AnVlYSySvbnYMa52cxyrhhnJgqOXHFUwTNxdqZ5e/Bzsq9o2TSBUaBfUOg0+oTMaOyUZSoU2qqi8Er3OiYKiqsP8lMUwRFxxVUSlyb1a8G/hDXBatx3bM1eUptMZHXNlIMvDjOwhq3FiNXNw7odirVRXK1mKqiI0DaK5cVEoHAfDtYptM4fO4Lu2aZB4TNwxzc5UxwxTHD5UJ+rZUbJp1LnJ3jRRJruaC+NwEtUID4sXNaq5jG5/fOXDBE+NVQqp+nSVR7n+EJOWmu5ozZmBw8Jr+CitxzYjcU71yYrg5OVMTB8udeqGUC4YuSK0peLCqCvZMVScmm4SzYDYbYzG4ta9yIrnQ0zsG4ORreVHAUmSLLLTrls2FUbzqlt0SqOjRGJA+EYUPhIaLyP4N71dD+NMHKqrm5ycjkO2uzLbYdtdwcNXZaod1xkhf+mRGTXAN+OJEzHd61MU+Vy/3WrguHV0m5MoVJpcnTqfkh4GTk4LJeBD4zS7syGxqNamKoqrgiJyquJ1+TrLFcl73dDkpSxYjKJAfFl56oS88yYhwoiKxEVsXBsN6JjirWq5zmuRzcUbg4NTrt0UWhWy+4qlPw2UVjIcTuuEjozFZEc1rHNzEVXIqubgqY+HHwGOXZ+EfbsjcdtQrdm5apUaZjvh1eLEl5iHElofeIx7MWpjhi9yojXKqNw71VxNZylTMeTyc3VMykaJAmYNKm4kKLCcrXw3pBcqOaqcqKioioqHjOduruyVyRzleuqtxp6VnI01ORZqDwjpKF3U1GxYT3QlWNyQ3eFYqIsPNwTDNA9GzuX60pqjXbFt+bixZujU9ZuBEmJSIkCZc7NYxGomDsEixIbHZyM/KxTkRXJ2tmZWKFHsOn1W77mteWqsSVWampaSnEXg0XFyMSGrliZ6MzUVvKudiiY8hkNKoV45UqfdVCSsVePQIddqCxJuqRkgrnwoadywODRqPaixHtfEhuhoxqQ25iMciovyoVOomVHKNZUnT7MlqVAoUF8zc7ZaQZKsZNIqokvFhubgreEg8jVVzlZEcmDVa/APS8pdVBmrYg3FCq8k2hRWNiNnosVIcJEVc1M5zsM1c7vVRcFR3IqY8h0tUyqWHTJCLOTN3UR8GHhnNlptkxEXFUTkhw1c5fD8SLgnL4EU7/AIu0T4D+Bfgem/A3MO5Wdz/lZ/8A28M38rvvB4eXwmI16i2Nb+XicfWqNQJO3ZW0O7I0OJIwuAbE7szc/MzcFeqKjUwRXLiiJjjgBolNyr25UqvPyEnBrcx3JBlZjh5alTEzDiw5iEkWGqcExzm96qcj2tXHHDHBcPjUcrluw6BW6jS4dWqD6UyOkWG2kTrGNjQmq50KJEWDmwlTkRVd+Tjipm9rS9xSuV3KHDySwbPg0pYdLiObNtiNgqx8srmOgpA73Bc56qvx4oqeFSaoukPR/la7m4p/BvwnV/hfhO6OF4Xgk4fufDkzc38jP5cfCB6dtauSty25Tq1IQ5mHKz0FseGyZhLCiI1U+Nq//VMUVOVFVFRVXS+rwrdqMW22S0Ssw4LnysKZYrocWIiYoxe/ZhnYZuOciIq4riiYL0GT6T+EcjNtSXdMzK900CWg8PKvzIsLOl2pnsd/dcmOKL8SohiVZhQKXeFct5lZy3VaZpb4KPi0eoJNMzIsFsRqu71qsXFXphy45mOPKqIG45LL8p+UW0oNbpkKLAcj1gTMtE5VgRmoiuZnYYOTBzVRyeFFTFEXFE6HJtlFqN733dcpJUyG+0Ka9IEpV2Ow4WM3BHsxRzmxEdi57XNwwajc5MXoZZkpteUuW6LppNOqWVS3WST4U3MRJqrQ5eLGjR0xVY0FGZzXuzcUd3+c1uKq3vUXpZmRo8rkFql2ZOLyv6Vl6ZGbLskJmo8DDgxHR4aParIbUTlSLn4tdhi7l5cUA9ay0zAmoaxJaNDjQ0e+GrobkciPY5Wubinxo5qoqfEqKnxH1M8yL5O5TJ/QIjJOLVob6iyDMTMhPTbJhkrGze/RisY1qry5quRO+zG/IaGAAAAAAAAAAAAAAAAAAAAAAAAAAAAAAAAAAAAAAAAAAAAAAAAAAAAAAAAAAAAAAAAAAAAAAAAAAAAAAAAAAAAAAAAAAAAAAAAAAAAAAAAAAAAAAAAAAAGWfhQ+Qq5/8pb7TCIetXJUKzkzs7JvYrocxctVocoyouVmdDkJJ0s1Huiv8DFcjmonIq5ruREc6HjcfhQ+Qq5/8pb7TCKDI3TpGnZL7X+D5OWle6abKzMfgITWcLFdAZnRHYJ3zlwTFy8q4AZhlBotRyJylJumwOEiW/Ishy1cpUeZzYUymEOEyYRiIjWxnZrUdEamOdmrmqixMeLktqsCu/hTXRV5RkRktP25KzUJsVER6MiQpJyI5EVUxwVMcFU2PKBcMOg0tiTVsVq4ZKcz5eNApkmybwareVIkNXIqtcmcmOCpyYLhimOGZBKzI3b+ELddwW5TpmUoK0aFLQmPgNhtgZqS7Gw1Riq1uPBPzWovgavyLgGyZSr3j25Dh0q26bErd3TrM6Tp0FquSG1XIzh46p/24KOVEzlVMV5MUTOc3z5k2Wp5O8vt4rWZWpXPVG0xI88tGlmviOix3y0V7mw1c3FqPiYd6mOHLmtTHN9bNl4DZqJMtgw0mYjGw3xUame5rVcrWqvhVEV71RPizl+VTCLN/wDeLffQ0L+CTA6rL1lJ+Hsk9dpqWZetM4fgP+rqNL4GBDzY8N3fPz1wxwwTk8KohQUrKPxTs6To9q5Lr+jdwQWQYEKZpPc7YmCpnPe9iOwcvfOVUZyuVfBjinD/AAn7/t1cndwWq+bmYNej8DwMrHkZiFwqMmWKrmvcxGub3j8HIuC4ciqb6BIz1wV6o0GmzNo2/EdN1Bj1Va0qyTKeqNXDh4eCxHLn4NRrGqi8q56Jg5fL13WzMxL4oFUiWff1bn5ep90XFNVOlJEbOta6EnBwWQ1dC4LBkVGtxwwciZzmomHsWqVGRpMjFnarOS0lJQsOEmJmK2FDZiqImLnKiJiqon+aoYvft621N5Xcm0aUuym/BsH4RSejStWayG1ODhvhtjOY9EzXRIbe9cuDlbgqL4AMjs28bkocjXcnVCkrtkIDY0xMwYjKY6cqkpLRFhcGxIPCQ0g8iuc56Y99FRWo1VzjnTtJqkrdtFn8k1tZQqFcE09JWfqldlnOgRc9cHRY6K2JnK5zs97lwa3MRUZjypy5mPbtxfhM3bNRr4iUKlRKfCdBqlLq0OWSM9Icu1YaRlxa5PylVqfGz9RaNrdhZMpqLdLcpVfuaZexsm+QSrQKi+YZi5WorcEVEYrnuR2c3DFUx79WuDXYNDm67aUelZQGUmpunGI2ZgycvEhQERURc1M97nKrXIqpETNX8lURqoZgll2t/wDaQWmcWqJ8G8U+6e5O4IXBcL3Zm8JmZuGdm8mdhjhyGgXRVKnc2TGZqeS6pS0SpTMFsanTPeq1+D0VzMHoqI5Wo9mDkTBy4Lm4KqQDslVMkljXvllrEzdFSlIDHxsJd3cksxmauDYEJuL2tcj1VVRGK1znOYnKoHa2VYLYd2XRcNpXFLUu2qx3L3Cy3Wyr4buBY5kTOR8F7E7/ADsMxfCrs7l8EVadCjzVjZWoUxeczS5d1fqslEiTiykKWjPe1rEfHe6Cqtz3ORFzFan+FEU5r7s/B8i12NV47abHnYsFkuqR6ZNRITYbGsYxGwnQ1hswaxqIrWoqIn61xlMmV1ZHpFLr4zytFd3RcE3Hp/D0V0bCTdm8Ejf7JcxvI7BnJh8iAel7JkYFMsygyEpOw5+WlafLwIU3CwzI7Gw2tSI3BVTByIipgq+HwqYPUpibgZdco/ceUWm2VnJTc7uyXl4vdf8A03Jm8M5MMzlxw/xpj8RpOQ+/7avahTkC1aWtHg0yMsNZBIDYTWQ3uesN7UYmameiOVUTlR2cnKmDnTVDolBquWvK1MXFRpKqQ5OHS4jEmJFJp7E7lcrsxma5yquanI1MVwRMF5APjkBiRYuUrKa+YuOWuaKqUvGqy0OHDhzH9jE8DYaq1M38nkXwtXHlxMitD/2cX10yz+OTNdyAz9v1PKVlNnLNZLMoMT4MSWbLSyy8NMIMRH4Q1a3Dv0d8SYry/GYxcdYptg5IblyaTcncja1UZxs5Diz9OhysPBIkJFwVsaJnt/sHYPbiir4OTlA9tAAAAAAAAAAAAAAAAAAAAAAAAAAAAAAAAAAAAAAAAAAAAAAAAAAAAAAAAAAAAAAAAAAAAAAAAAAAAAAAAAAAAAAAAAAAAAAAAAAAAAAAAAAAAAAAAAAAAAOBXaPT6/TH06sykKckYj4cR8CKmLHqx7Xtzk+NM5rVVF5F8CoqKqHPAAHFkKdI07un4Pk5aV7pjOmY/AQms4WK78qI7BO+cuCYuXlXA5QAHFl6dIy09NzstJy0GcnMzumPDhNbEj5iYMz3ImLs1ORMfAngOUAOLP06RqPc3whJy013NGbMwOHhNfwUVuObEbineuTFcHJypicoAAAAAAAAAAAABxZenSUtPTc7LSctBnJzM7pjw4TWxI+YmDM9yJi7NTkTHwJ4DlADiyFOkqd3T8HyctK90xnTMfgITWcLFdhnRHYJ3zlwTFy8q4HyqNFpdTmpKZqVNkpyZkn8JKxZiAyI+A/FFzmKqKrVxa1cUw8CfIc8AAAAAAAAAAAAAAAAAAAAAAAAAAAAAAAAAAAAAAAAAAAAAAAAAAAAAAAAAAAAAAAAAAAAAAAAAAAAAAAAAAAAAAAAAAAAAAAAAAAAAAAAAAAAAAAAAAAAOLVKjJ0mRiTtTmoMrKQ8M+NGcjWtxVGpyr8qqiJ+tUOUS+UfxelOmKV94S4DSDaWsNO65BpBtLWGndchUACX0g2lrDTuuQaQbS1hp3XIVAAl9INpaw07rkGkG0tYad1yFQAJfSDaWsNO65BpBtLWGndchUACX0g2lrDTuuQaQbS1hp3XIVAAl9INpaw07rkGkG0tYad1yFQAJfSDaWsNO65BpBtLWGndchUACX0g2lrDTuuQaQbS1hp3XIVAAlnZQ7QY1XPuKmtaiYqqxkREQ+ekmy9Z6T6Q0+uVTyYXf0POeweYKTdD0Paet7dWpF0nSew1ezXrbrpJsvWek+kNGkmy9Z6T6Q0woE7CIz8vVFxGcvNuukmy9Z6T6Q0aSbL1npPpDTCgMIjPy9TEZy8266SbL1npPpDRpJsvWek+kNMKAwiM/L1MRnLzbrpJsvWek+kNGkmy9Z6T6Q0woDCIz8vUxGcvNuukmy9Z6T6Q0aSbL1npPpDTCgMIjPy9TEZy8266SbL1npPpDRpJsvWek+kNMKAwiM/L1MRnLzbrpJsvWek+kNGkmy9Z6T6Q0woDCIz8vUxGcvNuukmy9Z6T6Q0/i5SrLRFVbnpKIn/5hphZ1d1eLFY+hxv4FMauiYpiZ6/L1e09ITMxHV5vR2kG0tYad1yDSDaWsNO65CoBTLNL6QbS1hp3XININpaw07rkKgAS+kG0tYad1yDSDaWsNO65CoAEvpBtLWGndcg0g2lrDTuuQqABL6QbS1hp3XININpaw07rkKgAS+kG0tYad1yDSDaWsNO65CoAEvpBtLWGndcg0g2lrDTuuQqABL6QbS1hp3XININpaw07rkKgAS+kG0tYad1yH4blFs9zUc25KYrVTFFSOnKVZleTjyeWv0XK+xaBVaQ7Q1jpnXoNIdoax0zr0OOAORpDtDWOmdeg0h2hrHTOvQ44A5GkO0NY6Z16DSHaGsdM69DjgDkaQ7Q1jpnXoNIdoax0zr0OOAORpDtDWOmdeg0h2hrHTOvQ44A5GkO0NY6Z16DSHaGsdM69DjgDkaQ7Q1jpnXoNIdoax0zr0OOAORpDtDWOmdeg0h2hrHTOvQ44A5LcodoPTFtxU1yYqmKRkXwH90g2lrDTuuQ+OSvxSidKVP7fHK4CX0g2lrDTuuQaQbS1hp3XIVAAl9INpaw07rkGkG0tYad1yFQAJfSDaWsNO65BpBtLWGndchUACX0g2lrDTuuQaQbS1hp3XIVAAl9INpaw07rkGkG0tYad1yFQAJfSDaWsNO65BpBtLWGndchUACX0g2lrDTuuQaQbS1hp3XIVAAl9INpaw07rkPzpEs/FU4x0zFq4KnDpyFUZvT/G29elIX2CUA77SHaGsdM69BpDtDWOmdehxwByNIdoax0zr0GkO0NY6Z16HHAHI0h2hrHTOvQaQ7Q1jpnXoccAcjSHaGsdM69BpDtDWOmdehxwByNIdoax0zr0GkO0NY6Z16HHAHI0h2hrHTOvQaQ7Q1jpnXoccAcjSHaGsdM69BpDtDWOmdehxwByNIdoax0zr0GkO0NY6Z16HHAHfUK4aRX2x3UWpSs8kBUbF4CIjsxVTFEXDwYodoRWTf8AP7y6YZ9hlC1AAAAS+UfxelOmKV94S5UEvlH8XpTpilfeEuBUAAAAAAAAAAAAAAAAAAAAAJfKp5MLv6HnPYPMFN6yqeTC7+h5z2DzBS66I+/9f1WdJfb+/wCAALlVgAAAAAAAAAAAAAAAB1d1eLFY+hxv4FO0OrurxYrH0ON/Aphc+CfBnR8UPWwAOPdIAAAAAAAAAAAAAAAAAAAZXk48nlr9FyvsWmqGV5OPJ5a/Rcr7FoFEAAAAAAAAAAAAAAAAAAAAA+mSvxSidKVP7fHK4kclfilE6Uqf2+OVwAAAAAAAAAAAAAAAAAAADN6f423r0pC+wShpBm9P8bb16UhfYJQDtgAAAAAAAAAAAAAAAAAAAAH4yb/n95dMM+wyhakVk3/P7y6YZ9hlC1AAAAS+UfxelOmKV94S5UEvlH8XpTpilfeEuBUAAAAAAAAAAAAAAAAAAAAAJfKp5MLv6HnPYPMFN6yqeTC7+h5z2DzBS66I+/8AX9VnSX2/v+AALlVgAAAAAAAAAAAAAAAB1d1eLFY+hxv4FO0OrurxYrH0ON/Aphc+CfBnR8UPWwAOPdIAAAAAAAAAAAAAAAAAAAZXk48nlr9FyvsWmqGV5OPJ5a/Rcr7FoFEAAAAAAAAAAAAAAAAAAAAA+mSvxSidKVP7fHK4kclfilE6Uqf2+OVwAAAAAAAAAAAAAAAAAAADN6f423r0pC+wShpBm9P8bb16UhfYJQDtgAAAAAAAAAAAAAAAAAAAAH4yb/n95dMM+wyhakVk3/P7y6YZ9hlC1AAAAS+UfxelOmKV94S5UEblchNj2WsGJnZkSpU1jsxytXBZ6AnIqYKi/rTlAsgZfxVpn+Op7Tmd4OKtM/x1PaczvANQBl/FWmf46ntOZ3g4q0z/AB1PaczvANQBl/FWmf46ntOZ3g4q0z/HU9pzO8A1AGX8VaZ/jqe05neDirTP8dT2nM7wDUAZfxVpn+Op7Tmd4OKtM/x1PaczvANQBl/FWmf46ntOZ3g4q0z/AB1PaczvANQBl/FWmf46ntOZ3g4q0z/HU9pzO8A1AGX8VaZ/jqe05neDirTP8dT2nM7wCoyqeTC7+h5z2DzBS0v+2qfAsS5I0N1Qz4dNmXtz6jMOTFITl5UV6oqfqXkLfRVZvmqJ6bMdsnaFpcaN1tca9epE0rRpv6tU6tTFAbXoqs3zVE9NmO2NFVm+aonpsx2ydi9OVFw6rMxQG16KrN81RPTZjtjRVZvmqJ6bMdsYvTlMOqzMUBteiqzfNUT02Y7Y0VWb5qiemzHbGL05TDqszFAbXoqs3zVE9NmO2NFVm+aonpsx2xi9OUw6rMxQG16KrN81RPTZjtjRVZvmqJ6bMdsYvTlMOqzMUBteiqzfNUT02Y7Y0VWb5qiemzHbGL05TDqszFAbXoqs3zVE9NmO2NFVm+aonpsx2xi9OUw6rMxQ6u6vFisfQ438Cm/6KrN81RPTZjtk7lFya2pIZPrnnJWmRGTEvS5qLDcs5HdmubCcqLgr8F5U8CmNXStNVMx1XtPR9UTE9ZrIPLHBxfOFW2jMdscHF84VbaMx2zThN3fHPybcQt7pepweWODi+cKttGY7Y4OL5wq20ZjtjCbu+OfkYhb3S9Tg8scHF84VbaMx2xwcXzhVtozHbGE3d8c/IxC3ul6nB5Y4OL5wq20Zjtjg4vnCrbRmO2MJu745+RiFvdL1ODyxwcXzhVtozHbHBxfOFW2jMdsYTd3xz8jELe6XqcHljg4vnCrbRmO2ODi+cKttGY7Ywm7vjn5GIW90vU4PLHBxfOFW2jMdscHF84VbaMx2xhN3fHPyMQt7pepweWODi+cKttGY7Y4OL5wq20ZjtjCbu+OfkYhb3S9TmV5OPJ5a/Rcr7FplnBxfOFW2jMds1fJvYlAnMndrTMeXnFjRqVKxHq2oTDUVywWquCJERE5V8CJgRdJ0SvRtXWn3t9jSKb+vqx7nfA+uju2+bTu0pneDR3bfNp3aUzvCKkPkD66O7b5tO7Smd4NHdt82ndpTO8A+QPro7tvm07tKZ3g0d23zad2lM7wD5A+uju2+bTu0pneDR3bfNp3aUzvAPkD66O7b5tO7Smd4NHdt82ndpTO8A+QPro7tvm07tKZ3g0d23zad2lM7wD5A+uju2+bTu0pneDR3bfNp3aUzvAPkD66O7b5tO7Smd4NHdt82ndpTO8A/mSvxSidKVP7fHK48qNk0lZ6ry8tN1KDAg1Wfhw2Q5+O1GtbNRUTwP/V4fCq8q8p9ODi+cKttGY7ZZUdGXa6YqiY9qFXp1FFU0zE+x6nB5Y4OL5wq20Zjtjg4vnCrbRmO2ZYTd3xz8mOIW90vU4PLHBxfOFW2jMdscHF84VbaMx2xhN3fHPyMQt7pepweWODi+cKttGY7Y4OL5wq20ZjtjCbu+OfkYhb3S9Tg8scHF84VbaMx2xwcXzhVtozHbGE3d8c/IxC3ul6nB5Y4OL5wq20Zjtjg4vnCrbRmO2MJu745+RiFvdL1ODyxwcXzhVtozHbHBxfOFW2jMdsYTd3xz8jELe6XqcHljg4vnCrbRmO2ODi+cKttGY7Ywm7vjn5GIW90vU5m9P8AG29elIX2CUMg4OL5wq20ZjtlzkbtSlVuRuKYqjZ6YjsqvBo9ahMNVWpKy68uD0x8K8q8uGCeBENGkaDXo9PWqmG2zpVN6rq0wvAfXR3bfNp3aUzvBo7tvm07tKZ3hCSnyB9dHdt82ndpTO8Gju2+bTu0pneAfIH10d23zad2lM7waO7b5tO7Smd4B8gfXR3bfNp3aUzvBo7tvm07tKZ3gHyB9dHdt82ndpTO8Gju2+bTu0pneAfIH10d23zad2lM7waO7b5tO7Smd4B8gfXR3bfNp3aUzvBo7tvm07tKZ3gHyB9dHdt82ndpTO8Gju2+bTu0pneAcfJv+f3l0wz7DKFqRGTikylIrN7QJBsVsJtWhMRsSPEi4J3DKu8L1Xlxe7l8PgTwImFuAAAAkcqnilD6Upn2+AVxI5VPFKH0pTPt8AD5gAAAAAAAAAAAAAAAAAAAAJ3KP5PLo6LmvYuNUMryj+Ty6Oi5r2LjVAAAAAAAAAAAAAAAAAAAAEvlU8mF39DznsHlQS+VTyYXf0POeweBgoAOzcwAAAAAAAAAAAAAAAAAAAb1kr8mFodDyfsGGCm9ZK/JhaHQ8n7BhTdL/Z+/4tOjfu/X9VAAKVZgAAAAAAAAAAAAAAAAAA8ux/0xXemKh9rigR/0xXemKh9rig63Rvk0eEf452/8yrxkABuagAAAAAAAAAAAAAAAA1HID+h7m6Y/2ksZcajkB/Q9zdMf7SWKzpb5MeP8lP6P+ZPh5NRABz64AAAAAAAAAAAAAAAAAABL2f4w3x0xD+75MqCXs/xhvjpiH93yZUAAAAJHKp4pQ+lKZ9vgFcSOVTxSh9KUz7fAA+YAAAAAAAAAAAAAAAAAAAACdyj+Ty6Oi5r2LjVDK8o/k8ujoua9i41QAAAAAAAAAAAAAAAAAAABL5VPJhd/Q857B5UEvlU8mF39DznsHgYKADs3MAAAAAAAAAAAAAAAAAAAG9ZK/JhaHQ8n7BhgpvWSvyYWh0PJ+wYU3S/2fv8Ai06N+79f1UAApVmAAAAAAAAAAAAAAAAAADy7H/TFd6YqH2uKBH/TFd6YqH2uKDrdG+TR4R/jnb/zKvGQAG5qAAAAAAAAAAAAAAAADUcgP6Hubpj/AGksZcajkB/Q9zdMf7SWKzpb5MeP8lP6P+ZPh5NRABz64AAAAAAAAAAAAAAAAAABL2f4w3x0xD+75MqCXs/xhvjpiH93yZUAAAAJHKp4pQ+lKZ9vgFcSGVaFFmLQZBgRWwY0SqUxjIjmZ6Mcs/ARFVuKY4L8WKYgfgHw4p3JrPJbJXfDincms8lsld8B9wfDincms8lsld8OKdyazyWyV3wH3B8OKdyazyWyV3w4p3JrPJbJXfAfcHw4p3JrPJbJXfDincms8lsld8B9wfDincms8lsld8OKdyazyWyV3wH3B8OKdyazyWyV3w4p3JrPJbJXfAfcHw4p3JrPJbJXfDincms8lsld8B9wfDincms8lsld8OKdyazyWyV3wHSZR/J5dHRc17FxqhkmUW2a/L5PrnjR7ik40GHS5p74baZmK9qQnKqI7hVwxT48FwO44e7/AD/TNlLvgNDBnnD3f5/pmyl3w4e7/P8ATNlLvgNDBnnD3f5/pmyl3w4e7/P9M2Uu+A0MGecPd/n+mbKXfDh7v8/0zZS74DQwZ5w93+f6Zspd8OHu/wA/0zZS74DQwZ5w93+f6Zspd8OHu/z/AEzZS74DQwZ5w93+f6Zspd8OHu/z/TNlLvgNDBnnD3f5/pmyl3w4e7/P9M2Uu+A0Ml8qnkwu/oec9g86Th7v8/0zZS74n8oUe6VsC5kmq3T4sutMmeEYymqxXN4J2KI7hVwVU+PBQIAFPo6qWsUHZ/8AUGjqpaxQdn/1Do8Usd6l2C73JgFPo6qWsUHZ/wDUGjqpaxQdn/1BiljvNgu9yYBT6OqlrFB2f/UGjqpaxQdn/wBQYpY7zYLvcmAU+jqpaxQdn/1Bo6qWsUHZ/wDUGKWO82C73JgFPo6qWsUHZ/8AUGjqpaxQdn/1BiljvNgu9yYBT6OqlrFB2f8A1Bo6qWsUHZ/9QYpY7zYLvcmAU+jqpaxQdn/1Bo6qWsUHZ/8AUGKWO82C73JgFPo6qWsUHZ/9QaOqlrFB2f8A1BiljvNgu9yYN6yV+TC0Oh5P2DDLNHVS1ig7P/qHcZPY90pYFspK1unwpdKZLcGx9NV6tbwTcEV3CpiqJ8eCFb0hpVGkdXqfTX/E3Q7Fdnrdb6tjBnnD3f5/pmyl3w4e7/P9M2Uu+K5NaGDPOHu/z/TNlLvhw93+f6Zspd8BoYM84e7/AD/TNlLvhw93+f6Zspd8BoYM84e7/P8ATNlLvhw93+f6Zspd8BoYM84e7/P9M2Uu+HD3f5/pmyl3wGhgzzh7v8/0zZS74cPd/n+mbKXfAaGDPOHu/wA/0zZS74cPd/n+mbKXfAaGDPOHu/z/AEzZS74cPd/n+mbKXfAZBH/TFd6YqH2uKCptXJxUrgp85VIlxQYESPU6hnsSn5yZyTkZrlT+08Cqirh8WOHLhidzofqGtMPZv9UvrPSNmi3TTOvXEQqLuhXKq5qj6yz0GhaH6hrTD2b/AFRofqGtMPZv9U24pY72GwXe5noNC0P1DWmHs3+qND9Q1ph7N/qjFLHebBd7meg0LQ/UNaYezf6o0P1DWmHs3+qMUsd5sF3uZ6DQtD9Q1ph7N/qjQ/UNaYezf6oxSx3mwXe5noNC0P1DWmHs3+qND9Q1ph7N/qjFLHebBd7meg0LQ/UNaYezf6o0P1DWmHs3+qMUsd5sF3uZ6DQtD9Q1ph7N/qjQ/UNaYezf6oxSx3mwXe5npqOQH9D3N0x/tJY4Gh+oa0w9m/1SQkalcliV65aHS6pIRYUOfZEfFjSCqr3OlZdcURInImGCYcvgx+PAjaTfp02mLVn369bdYtTotU13Pc9HgwHSHennCk7PdvRpDvTzhSdnu3pDw7SMvOErbbO//W/AwHSHennCk7PdvRpDvTzhSdnu3ow7SMvODbbO/wD1vwMB0h3p5wpOz3b0aQ7084UnZ7t6MO0jLzg22zv/ANb8DAdId6ecKTs929GkO9POFJ2e7ejDtIy84Nts7/8AW/AwHSHennCk7PdvRpDvTzhSdnu3ow7SMvODbbO//W/AwHSHennCk7PdvRpDvTzhSdnu3ow7SMvODbbO/wD1vwMB0h3p5wpOz3b0aQ7084UnZ7t6MO0jLzg22zv/ANb8DAdId6ecKTs929GkO9POFJ2e7ejDtIy84Nts7/8AWrWf4w3x0xD+75MqDNMiM/UarDu2fqseXixo1Wai8DBWGmc2Tlkx/KXkzcxMPlRV+PBNLIdVM0VTTPvhJpqiqImPqAAxehL5R/F6U6YpX3hLlQS+UfxelOmKV94S4FQAAAAAAAAAAAAAAAAAAAAAl8qnkwu/oec9g84pysqnkwu/oec9g84oAAAAAAAAAAAAAAAAAAACdyj+Ty6Oi5r2LiiJ3KP5PLo6LmvYuAogAAAAAAAAAAAAAAAAAAAAAncnHk8tfouV9i0oidyceTy1+i5X2LQKIAAAAAAAAAAAAAAAAAAAAB9MlfilE6Uqf2+OVxI5K/FKJ0pU/t8crgAAAAAAAAAAAAAAAAAAAHnG9/KTd30yB9ilz0cecb38pN3fTIH2KXLDoz5/6lD075TqwAdGpAAAAAAAAAAAAAAAAAAAajkB/Q9zdMf7SWNRMuyA/oe5umP9pLGonJaT86vxn/XRWPl0+EAANLaEvlH8XpTpilfeEuVBL5R/F6U6YpX3hLgVAAAAAAAAAAAAAAAAAAAAACXyqeTC7+h5z2DzinKyqeTC7+h5z2DzigAAAAAAAAAAAAAAAAAAAJ3KP5PLo6LmvYuKInco/k8ujoua9i4CiAAAAAAAAAAAAAAAAAAAAACdyceTy1+i5X2LSiJ3Jx5PLX6LlfYtAogAAAAAAAAAAAAAAAAAAAAH0yV+KUTpSp/b45XEjkr8UonSlT+3xyuAAAAAAAAAAAAAAAAAAAAecb38pN3fTIH2KXPRx5xvfyk3d9MgfYpcsOjPn/qUPTvlOrAB0akAAAAAAAAAAAAAAAAAABqOQH9D3N0x/tJY1Ey7ID+h7m6Y/wBpLGonJaT86vxn/XRWPl0+EAANLaEvlH8XpTpilfeEuVBGZXpxKdZLp5YT4yS1Spsbg2KiOfmz0BcEx5MVw+MRGv2Qe5ZgynTHC1Yq3XS+8GmOFqxVuul94b9lvZJ4NO0Ws0cWrAynTHC1Yq3XS+8GmOFqxVuul94NlvZJ4G0Ws0cWrAynTHC1Yq3XS+8GmOFqxVuul94NlvZJ4G0Ws0cWrAynTHC1Yq3XS+8GmOFqxVuul94NlvZJ4G0Ws0cWrAynTHC1Yq3XS+8GmOFqxVuul94NlvZJ4G0Ws0cWrAynTHC1Yq3XS+8GmOFqxVuul94NlvZJ4G0Ws0cWrAynTHC1Yq3XS+8GmOFqxVuul94NlvZJ4G0Ws0cWrAynTHC1Yq3XS+8GmOFqxVuul94NlvZJ4G0Ws0cVdlU8mF39DznsHnFM+v7KvCqNi3HIpbtTgrM02Zg8I+LAVrM6E5MVwfjgmPxFbw1yaozvpktvDXXbrt+yuNTZTXTX8M63aA6vhrk1RnfTJbeDhrk1RnfTJbeGDJ2gOr4a5NUZ30yW3g4a5NUZ30yW3gHaA6vhrk1RnfTJbeDhrk1RnfTJbeAdoDq+GuTVGd9Mlt4OGuTVGd9Mlt4B2gOr4a5NUZ30yW3g4a5NUZ30yW3gHaA6vhrk1RnfTJbeDhrk1RnfTJbeAdoDq+GuTVGd9Mlt4OGuTVGd9Mlt4B2hO5R/J5dHRc17FxzuGuTVGd9Mlt4T+UKLX1sG5Uj2vOQIK0yZz4rpuXcjG8E7FyokRVXBOXkTEC0BnukldXal10DtjSSurtS66B2zfst7JPBp2i1mji0IGe6SV1dqXXQO2NJK6u1LroHbGy3sk8DaLWaOLQgZ7pJXV2pddA7Y0krq7UuugdsbLeyTwNotZo4tCBnukldXal10DtjSSurtS66B2xst7JPA2i1mji0IGe6SV1dqXXQO2NJK6u1LroHbGy3sk8DaLWaOLQgZ7pJXV2pddA7Y0krq7UuugdsbLeyTwNotZo4tCBnukldXal10DtjSSurtS66B2xst7JPA2i1mji0IGe6SV1dqXXQO2NJK6u1LroHbGy3sk8DaLWaOLQidyceTy1+i5X2LSf0krq7Uuugds52T2LX0sG2kgWvOR4KUyWzIrZuXaj28E3ByIsRFTFOXlTEwrtV2/jjUzouU1/DOtaA6vhrk1RnfTJbeDhrk1RnfTJbeGtm7QHV8NcmqM76ZLbwcNcmqM76ZLbwDtAdXw1yaozvpktvBw1yaozvpktvAO0B1fDXJqjO+mS28HDXJqjO+mS28A7QHV8NcmqM76ZLbwcNcmqM76ZLbwDtAdXw1yaozvpktvBw1yaozvpktvAO0B1fDXJqjO+mS28HDXJqjO+mS28A7QHV8NcmqM76ZLbwcNcmqM76ZLbwDuMlfilE6Uqf2+OVxktgXRU6fQI8txWqEZzKnUc5zJmXREcs7GVW8sT4lVU+Tk5MUKTjrU9Uan6VLbwC2BE8danqjU/SpbeDjrU9Uan6VLbwC2BE8danqjU/SpbeDjrU9Uan6VLbwC2BE8danqjU/SpbeDjrU9Uan6VLbwC2BE8danqjU/SpbeDjrU9Uan6VLbwC2BE8danqjU/SpbeDjrU9Uan6VLbwC2BE8danqjU/SpbeDjrU9Uan6VLbwC2BE8danqjU/SpbeDjrU9Uan6VLbwC2PON7+Um7vpkD7FLmscdanqjU/SpbeGVTlMuS5rvumo023Y/BunoTHsfNQEdDckpL8i9/gvJgvJ8vy4k3QLlNu91q51Qi6XRVXb1Ux7XUA7niZeWrcT02X7Y4mXlq3E9Nl+2Xm3WMyq2W9ldMDueJl5atxPTZftjiZeWrcT02X7Y26xmNlvZXTA7niZeWrcT02X7Y4mXlq3E9Nl+2NusZjZb2V0wO54mXlq3E9Nl+2OJl5atxPTZftjbrGY2W9ldMDueJl5atxPTZftjiZeWrcT02X7Y26xmNlvZXTA7niZeWrcT02X7Y4mXlq3E9Nl+2NusZjZb2V0wO54mXlq3E9Nl+2OJl5atxPTZftjbrGY2W9ldMDueJl5atxPTZftjiZeWrcT02X7Y26xmNlvZVxkB/Q9zdMf7SWNRMxyGSs/T4F2SVUkXykxCqzXOR0Rj0xdKS64YtVeVEzV+Tvk+NFw045u/VFV2qqPdMyu7UTTbpid0AANTYEHlx8m079MkPtsAvCDy4+Tad+mSH22AZ2vjjxY1/DLGQAdg5oAAAAAAAAAAAAAAAAAAHV3V4sVj6HG/gU9bHkm6vFisfQ438CnrYo+lvjp8Ft0d8NQACoWIAAAAAAAAAAAAAAAAS+VTyYXf0POeweVBL5VPJhd/Q857B4GCgA7NzAAAAAAAAAAAAAAAAAAABvWSvyYWh0PJ+wYYKb1kr8mFodDyfsGFN0v9n7/i06N+79f1UAApVmAAAAAAAAAAAAAAAAAADMbQ/MKj0xVPt0c7w6O0PzCo9MVT7dHO8AAAAAAAAAAAAAAAAAAAAfjJv+f3l0wz7DKH7Pxk3/AD+8umGfYZQC1AAAAAAAAAAAAAAAAAAAAAS9n+MN8dMQ/u+TKgl7P8Yb46Yh/d8mVAAAACDy4+Tad+mSH22AXhB5cfJtO/TJD7bAM7Xxx4sa/hljIAOwc0AAAAAAAAAAAAAAAAAADq7q8WKx9DjfwKetjyTdXixWPocb+BT1sUfS3x0+C26O+GoABULEAAAAAAAAAAAAAAAAJfKp5MLv6HnPYPKgl8qnkwu/oec9g8DBQAdm5gAAAAAAAAAAAAAAAAAAA3rJX5MLQ6Hk/YMMFN6yV+TC0Oh5P2DCm6X+z9/xadG/d+v6qAAUqzAAAAAAAAAAAAAAAAAABmNofmFR6Yqn26Od4dHaH5hUemKp9ujneAAAAAAAAAAAAAAAAAAAAPxk3/P7y6YZ9hlD9n4yb/n95dMM+wygFqAAAAAAAAAAAAAAAAAAAAAl7P8AGG+OmIf3fJlQS9n+MN8dMQ/u+TKgAAABB5cfJtO/TJD7bALwgsujkZkzn3u5GtmpFzl+REnIKqpnb+OPFjX8MsaBwPhin86h/WPhin86h/WdZ21vNHFzvZ17pc8HA+GKfzqH9Y+GKfzqH9Y7a3mjidnXulzwcD4Yp/Oof1j4Yp/Oof1jtreaOJ2de6XPBwPhin86h/WPhin86h/WO2t5o4nZ17pc8HA+GKfzqH9Y+GKfzqH9Y7a3mjidnXulzwcD4Yp/Oof1j4Yp/Oof1jtreaOJ2de6XPBwPhin86h/WPhin86h/WO2t5o4nZ17pc8HA+GKfzqH9Y+GKfzqH9Y7a3mjidnXul8rq8WKx9DjfwKetjx5ctUkotuVWHDmWOe+Uita1PCqqxcEPTekG0tYad1yFL0rVTVXT1Z1+xadH0zTTOuFQCX0g2lrDTuuQaQbS1hp3XIVSwVAJfSDaWsNO65BpBtLWGndcgFQCX0g2lrDTuuQaQbS1hp3XIBUAl9INpaw07rkGkG0tYad1yAVAJfSDaWsNO65BpBtLWGndcgFQCX0g2lrDTuuQaQbS1hp3XIBUAl9INpaw07rkGkG0tYad1yAVBL5VPJhd/Q857B40g2lrDTuuQnMpF8WxOZO7plZWuSEaYj0qahw4bIqK57nQXIiInyqqgZQDgfDFP51D+sfDFP51D+s6/treaOLm+zr3S54OB8MU/nUP6x8MU/nUP6x21vNHE7OvdLng4HwxT+dQ/rHwxT+dQ/rHbW80cTs690ueDgfDFP51D+sfDFP51D+sdtbzRxOzr3S54OB8MU/nUP6x8MU/nUP6x21vNHE7OvdLng4HwxT+dQ/rHwxT+dQ/rHbW80cTs690ueDgfDFP51D+sfDFP51D+sdtbzRxOzr3S54OB8MU/nUP6x8MU/nUP6x21vNHE7OvdLnm9ZK/JhaHQ8n7Bh52+GKfzqH9Zs2Te+LYk8ndrSs1XJCDMQKVKw4kN8VEcxzYLUVFT5UVCo6Vrpq6nVnX7/4suj6Zp62uN39aWCX0g2lrDTuuQaQbS1hp3XIU6yVAJfSDaWsNO65BpBtLWGndcgFQCX0g2lrDTuuQaQbS1hp3XIBUAl9INpaw07rkGkG0tYad1yAVAJfSDaWsNO65BpBtLWGndcgFQCX0g2lrDTuuQaQbS1hp3XIBUAl9INpaw07rkGkG0tYad1yAVAJfSDaWsNO65BpBtLWGndcgEzaH5hUemKp9ujneENa13W/Bkp5sWrybFdVajEaixPC105Gc1f8laqKn6lO446W356kusQChBPcdLb89SXWIOOlt+epLrEAoQT3HS2/PUl1iDjpbfnqS6xAKEE9x0tvz1JdYg46W356kusQChBPcdLb89SXWIOOlt+epLrEAoQT3HS2/PUl1iDjpbfnqS6xAKEE9x0tvz1JdYg46W356kusQChBPcdLb89SXWIOOlt+epLrEAoT8ZN/z+8umGfYZQ6HjpbfnqS6xD8WDettSk7djpmtSMJI9VbEhK+KiZ7e45VuKfqzmuT/ADRQNWBL6QbS1hp3XININpaw07rkAqAS+kG0tYad1yDSDaWsNO65AKgEvpBtLWGndcg0g2lrDTuuQCoBL6QbS1hp3XININpaw07rkAqAS+kG0tYad1yDSDaWsNO65AKgEvpBtLWGndcg0g2lrDTuuQCoBL6QbS1hp3XININpaw07rkAqAS+kG0tYad1yDSDaWsNO65AFn+MN8dMQ/u+TKgisndWkKtWr2jU2bgzUJ1WhPR0J2KK3uGVbj/lnMen+bV+QtQAAAAAAAAAAAAAAAAAAAAAAAAAAAAAAAAAAAAAAAAAAAAAAAAAAAAAAAAAAAAAAAAAAAAAAAAAAAAAAAAAAAAAAAAAAAAAAAAAAAAAAAAAAAAAAAAAAAAAAAAAAAAAAAAAAAAAAAAAAAAAAAAAAAAAAAAAAAAAAAAAAAAAAAAAAAAAAAAAAAAAAAAAAAAAAAAAAAAAAAAAAAAAAAAAAAAAAAAAAAAAAAAAAAAAAAAAAAAAAAAAAAAAAAAAAAAAAAAAAAAAAAAAAAAAAAAAAAAAAAAAAAAAAAAAAAAAADgVqtUuhSrJmt1KSp0s96Q2xZuOyCxz1RVRqK5UTHBFXD9SnPAAAADiz9Rkad3N8ITktK90xmy0Dh4rWcLFdjmw24r3zlwXBqcq4HKAAAADiyFRkqj3T8HzktNdzRnS0fgIrX8FFbhnQ3YL3rkxTFq8qYnyqNapdMmpKWqVSkpOZnX8HKwpiOyG+O/FEzWIqorlxc1MEx8KfKBzwAAAAAAAAAAAAAAAAAAAAAAAAAAAAAAAAAAAAAAAAAAAAAAAAAAAAAAAAAAAAAAAAAAAAAAAAAAAAAAAAAAAAAAAAAAAAAAAAAAAAAAAAAAAAAAAAAAAAAAAAAAAAAAACHvLKpaVl19KRc9QiSEy+WZNw3LLRIrIjHPe3BFYjlRUWGuOKJ+UmGPLhcGB3j/7xbF6Fi/wzgEX+E9lPs+9bBp9Ntqr92zkOpw5h8PuWNDwhpCitVcXsRPC5vJjjymsyuXbJbJysGWlK/DgS0FiQ4UKFTplrIbETBGtRIWCIiJgiIT2Xqej3Re1pWXb8lJVybkJpa5UqfExwRkFmMOFEfgrGJFR72YPTwuh44I5MaarX1SL5yQX3GpXdMvNSVNnpeckJ2HwUzKxEgxEwiMxXDHBcFxVORU8LXIgWdjXZTL2tyWrdDWZWSj8id0QHQnI5MM5vKmDsFxarmq5uKKiKuCnAfLX7ErFRRlUteWpSPRZJVpsxGjuYuOKRU4djUVvImLVXO8ODfATX4L/kLtj/ACmftMU5eX++JWycnNTf3VwVXn4L5Snw4cZYcVYjkzViMVEVU4NHZ+PImKNTFFcgGV5SadX8peWOkZP56rU2akqNBWp1B0tIxoEJjlRFa2LCWYxicjoaI5j0VEju8GC4bn3De2sNt7Cj++GQ5CsmVq3hkikKrddO+F6lVJyYn5ibmIjmx1iJEfDw4ViterVRmcrXOVFc5V+TCcyk5L7ai5QqVk+su14UhPT8qyoR63Em5mOknLo+Ij/7JXK3FeDaiOcuCq9G8iqjkDZ7Ktu6JO7ajXJ+/oVdpk698OLTmSGZBgPhqrM2CqRncGrHIrXJguOC52Lu+Sby5XLWLcui2peQu+o0WBWcZWFLSdBg1HGK17UWI5XOR/KkViI1jXL3q4JiuC3GTTJ7RcnVGiU6gOnXw4z+EjRJqYdEWI/l77N5GNXDBuLWtxRrcccMSC/CRpMCZmrPq8KoTza3SpqLGptKp0okxNVCKiw3qkNFxRiMSFi56se1qLytVcGuDB7arFXok5lRnkvCt01qTqMnpmSt1YkabV8WKzPdnKxJR2LnKiK5i4uVE75qIWj3XJcGVW0aTSa3Tq7NWvJRUl525JR0vBnJzvXxGo1uMR0eFCiS+c1yo9r4LnORFxxyuG652U3KKlejTLZWPVJaXuJJWFCiPhx1mIj+FVqNzVa10OK3BsSGivfD75U5DfspTaK2LI2tkngzMzf8hOxatBmKdFZGWWi5+bMd2TEVyr36K5rmucqqrYbXcmaihysn925Vryvebgv4tyVItypukKokOBGSHO98rYiQnuRyq5iNzkwVnK9mciouBpN6aQ/hSFxJ4p/BvApwnwv3RwvC5zscOD5M3Nzf144/qMw/B3vCzrStJLWq8WJa9xwHumKjK1t6wFixHIz+0a56NaiOarMGcjkRF5HYK92x1yeuWBVIECh0Omz0k+C58Sam6m6W4OIjkTMzGwYirii4oqcneuRcO9zgwiUubKzdmT2avhlToEjbrqTPK6Qk1iQI+LGRmcKj1Y9zXtciORGxERcxqd7iqn8rV9x6PkRkqzSMqUWaudlPknLT4sanx38I9YSRGuasFYrlajn45zldyYuVeU6uxEvlfwdWRaclA4oQ6HVYcxBjRoqTUVXPjqsVFSGrWqzDBrMVRyK7FUVzcz4XtBs9v4NMq+StrgK98GU5XVDi7Gg4xM6Dnu7qWCjVzu+77PwdjyKuPKFtO1ODOZbMm8CiZQpmvMifCDZngJiSfmMSEyJwbkgQmpmvWGmOcir3mLVa5MTfDApqFbMPLrkx4q0H4IxSqcP/AOiRadwv/TJm/lwmZ+HfeDHDH4seXfQMIyG3Rf8AlGyfzk5EuKkSczBmo0ikzEo6xo6rmNekTvYzIeKcIiInBqnepjjipVQbBvOdhx5a48qNWmJGKxEzaVT5enxkcjkVFSM1HORORUVEwxx8OGKLgWQulUVmTiLV7ivq6LXlo9ddToTabUHS8u6K6FDcjnojHI1VTHF7lRqI1MVTA0/4Csn/APHS4/W+D/IDuZLIfbtEu2RuyZuq6IlWl5mC5JqeqMNyxnKrYbYb3LDRzkfikPNx5Udm/GbEeeYdnWHc9xyVCh5WrsrFUh4VCVhNrrZhGvYq4Phv4NWpEb3y4IueiYrhhynoGUhPgSsGFFjxJiJDY1ro0VGo+IqJgrnI1EbivhXBET5EQD6gAAAAAAAAAAAAAAAAAAAAAAAAAAAAAAAAAAAAAAAAAAAAAAAAAAAAAAAAAAAAAAAAAAAAAAAAAAAAAAAAAAAAAAAAAAAAAAAAAAAAAAAAAAAAAAAAAAec8p7qo38K20Ft+HJRKr8BRUl0noj2QEcrZvlerEV2CeHBE5cMMW44p6MMyq1iVCp/hA0a81iwoNKpNJ7nRF758eM9ZhqsRMe9RrYiOVy/KiIi8qtDtcnWT2Bac1UqvUqhErl01N6unavMQ0Y97ce9hsYiqkOGiI3vUX4k+JrWtzvK3kuiSVw1++bdjy0jIxqBUodYk2K+G6Ze6Wi4PRExa7FysVyLmpjDR3fOVTfDHcrOSSs3LKVONat6V+Rm51/9pT5upRXU90NyYRGI1EVzUXFVw75vhajURUzQ5/4L/kLtj/KZ+0xTq7nyf9x2jed3XXOfC94R6BOQli4YS0g1YMTGFKsVMWtwdm5zlVzu+Xkz3Iuh5OLTgWPZNKt2VmYk1DkmORY8RqNWI5z3PcuCeBM5y4Jy4JgmK+FeVe1Kj12zK/SJR8NkzP0+YlYToqqjEfEhuaiuVEVcMVTHBFAw3IZk7ZceSO2qgy7Lwo7nw47XS9LqroMFVSZipnIxUcjVVMEXNwRcMcMVVV+Wjb/7/EovHO9fFnuzu/4V/wCr/OszguEzf+1/ezcPyuXE1jJxZU5amSylWs+sRIM9LQ3Z89IsZix7orojkYkVrmqnfK3FzeVOXBqrydLYdg3VS8ptRui77nlq7/6YlLk3w5NsvEWGsRsVyvY1Ea3NciomCuVyOxVW4YAfagZIJSjXbKXJDu68Zypy7OBzp6fhx0iwccVgvzoeKsVVVcMUwXlTBURU7qs5N6HUPhKPKvqVJq8/G4eNV6fOPhzuPe4sSKqqvBYNanBfkJgio1FRFSzOlrUtcUaaY6iVSkycsjER0OcpsSZer8VxVHNjw0RMMOTNXwLy8uCB5qbk4oFTs7KfPSNTvWDFpMedhTvdVRgvl6jMyyxIjXPRrEdE/uPXPRMFiKjVVUVSfyXLjYlLVdNWOETxc/MP+6//ALX/APb/AOLON3kcmdxSdBuykwropKy1yzM3NzbnUWJnw3zLc16Q17qwREROTFHfrxOfYdj3TZNpyNvUq5qJGkpPP4N8zRIroi573PXFWzSJ4XL8XgwA6bILYtBkJSNdCUyvw7gnX50wlywUdNysbB3CLDiLCY5Ufwi4vT8pMMcFRzUqb/yq2jYU0sncVQiQqg6W7qhSkKXiRHxmYuREaqJmIqqxyJnOT9eCcpxZS0b1bfkG4Zu/IcWTRiQItHhUt0OVdC+PNRY7lbEVeVIi4qi8nK3vCvmLepEzcUpXo9OlolZlIL5eBOOYixIcNy8qIv14L4URzkTBHOxDEcjMC/5TJNJUKJZclAkpOHMLFh1iMqRalDe6M5ZdsurU4JXOVrM+K7NRrs7Nei4DLfN3RFyBVaHUrSpNv09jZaH3NCqvDRZZrZmEjGthsgJDw5G4IkTkavypmmqXtQLpq01LRbXvSJb0NjFbGgrTIE2yIuOKORX4OavhReVUXkwRMFxhrpyVXxdNCmaNXsqHdVNmczhYPF+AzOzXo9vfNeip3zUXkX4gK5iX7Gu2mzkekWdBpMNiwY+E5MRpxrXqivWFEWC1qJ3sNVYre+VnK5ORW0t012Rti3KjW6rEzJKRgujRMFajnYJyNbnKiK5y4NRMUxVUT4zLLkyWX7cchDk6plYmlgQ4zJhqS9Ghy7uEYucxc6HEaq4OwciY4Yoi+FEVKS8LIql4ytBoVw1KHHt2WZDj1WLBc+DMVSYYmCQ1Y3BkOCq/2jsHOXFGo1G4I4Dzle9v/AH4JVo8LLdzzdRrLKhH/tM/hOEhx+Df4VRMYSQuRMP1pjieqNHdlan25syB2TpMt2T2NlKtqnUWDUIdPhwqg2bjR3w1iKjGworURrcUxVXPb4VTkxX4sF4GgHJnq1/+/md4B1NMt2iUn8J+FCpVHpslChWm6ZhslpVkNrIqzeYsREaiYOViq3O8OCqngNoM3szJFQrKv6LcNsp3FJxaYsg+Q7+Ji9YrXrF4R71XwMa3Nww5McTSAAAAAAAAAAAAAAAAAAAAAAAAAAAAAAAAAAAAAAAAAAAAAAAAAAAAAAAAAAAAAAAAAAAAAAAAAAAAAAAAAAAAAAAAAAAAAAAAAAAAAAAAAAAAAAAAAAAAAAAAAAAAAAAAAAAAAAAAAAAAAAAAAAAAAAAAAAAAAAAAAAAAAAAAAAAAAAAAAAAAAAAAAAAAAAAAAAAAAAAAAAAAAAAAAAAAAAAAAAAAAAAAAAAAAAAAAAAAAAAAAAAAAAAAAAAAAAAAAAAAEvlIdES2YcOFHmJfh6lTpd75eM+DE4OJOwGPRHsVHNxa5yYoqLgpUEvlH8XpTpilfeEuA4jUnndx+sVQ344jUnndx+sVQ35UACX4jUnndx+sVQ344jUnndx+sVQ35UACX4jUnndx+sVQ344jUnndx+sVQ35UACX4jUnndx+sVQ344jUnndx+sVQ35UACX4jUnndx+sVQ344jUnndx+sVQ35UACX4jUnndx+sVQ344jUnndx+sVQ35UACX4jUnndx+sVQ344jUnndx+sVQ35UACX4jUnndx+sVQ344jUnndx+sVQ35UADOb/taSpNiXJUafULjhTkpTZmYgROME+7MeyE5zVwWMqLgqJyKmBkfDVDz7ce2pveG9ZVPJhd/Q857B5gpb9F26LnX68RPu9/7V2n11UdXqzq9/8ADhqh59uPbU3vBw1Q8+3Htqb3gBbbNZyRwhXdvczTxOGqHn249tTe8HDVDz7ce2pveADZrOSOEHb3M08Thqh59uPbU3vBw1Q8+3Htqb3gA2azkjhB29zNPE4aoefbj21N7wcNUPPtx7am94ANms5I4QdvczTxOGqHn249tTe8HDVDz7ce2pveADZrOSOEHb3M08Thqh59uPbU3vBw1Q8+3Htqb3gA2azkjhB29zNPE4aoefbj21N7wcNUPPtx7am94ANms5I4QdvczTxOGqHn249tTe8OBX52qSlCqUxL3BcbI0GWiRGO+GZtcHI1VRcFifKc86u6vFisfQ438CmFzR7MUTMURwhlReuTVH/qeL0dxGpPO7j9YqhvxxGpPO7j9YqhvyoByroEvxGpPO7j9YqhvxxGpPO7j9YqhvyoAEvxGpPO7j9YqhvxxGpPO7j9YqhvyoAEvxGpPO7j9YqhvxxGpPO7j9YqhvyoAEvxGpPO7j9YqhvxxGpPO7j9YqhvyoAEvxGpPO7j9YqhvxxGpPO7j9YqhvyoAEvxGpPO7j9YqhvxxGpPO7j9YqhvyoAEvxGpPO7j9YqhvxxGpPO7j9YqhvyoAEvxGpPO7j9YqhvzobAtaSq1iW3UahULjizk3TZaYjxOME+3Pe+E1zlwSMiJiqryImBoxL5K/JhaHQ8n7BgDiNSed3H6xVDfjiNSed3H6xVDflQAJfiNSed3H6xVDfjiNSed3H6xVDflQAJfiNSed3H6xVDfjiNSed3H6xVDflQAJfiNSed3H6xVDfjiNSed3H6xVDflQAJfiNSed3H6xVDfjiNSed3H6xVDflQAJfiNSed3H6xVDfjiNSed3H6xVDflQAJfiNSed3H6xVDfjiNSed3H6xVDflQAJfiNSed3H6xVDfjiNSed3H6xVDflQAM5sq1pKpUaYjztQuOLFZUqhLtdxgn24MhTkaGxOSN8TGNTHwrhiuKnfcRqTzu4/WKob8ZOPF6b6Yqv3hMFQBL8RqTzu4/WKob8cRqTzu4/WKob8qABL8RqTzu4/WKob8cRqTzu4/WKob8qABL8RqTzu4/WKob8cRqTzu4/WKob8qABL8RqTzu4/WKob8cRqTzu4/WKob8qABL8RqTzu4/WKob8cRqTzu4/WKob8qABL8RqTzu4/WKob8cRqTzu4/WKob8qABL8RqTzu4/WKob8cRqTzu4/WKob8qABL8RqTzu4/WKob86G27Wkpys3VAmahcb4UlUmS8u3jBPpmMWTloipyRuXv4j1xXFeXDwIhoxL2f4w3x0xD+75MBxGpPO7j9YqhvxxGpPO7j9YqhvyoAEvxGpPO7j9YqhvxxGpPO7j9YqhvyoAEvxGpPO7j9YqhvxxGpPO7j9YqhvyoAEvxGpPO7j9YqhvxxGpPO7j9YqhvyoAEvxGpPO7j9YqhvxxGpPO7j9YqhvyoAEvxGpPO7j9YqhvxxGpPO7j9YqhvyoAEvxGpPO7j9YqhvxxGpPO7j9YqhvyoAEvxGpPO7j9YqhvxxGpPO7j9YqhvyoAEdYEoklVrvlmTVQjwZapw4EFJyejTSw2dxy8TBFivcqd/Fev/n5ETCxJez/GG+OmIf3fJlQAAAAl8o/i9KdMUr7wlyoJfKP4vSnTFK+8JcCoAAAAAAAAAAAAAAAAAAAAAS+VTyYXf0POeweYKb1lU8mF39DznsHmCl10R9/6/qs6S+39/wAAAXKrAAAAAAAAAAAAAAAADq7q8WKx9DjfwKdodXdXixWPocb+BTC58E+DOj4oetgAce6QAAAAAAAAAAAAAAAAAAAl8lfkwtDoeT9gwqCXyV+TC0Oh5P2DAKgAAAAAAAAAAAAAAAAAAAABL5OPF6b6Yqv3hMFQS+Tjxem+mKr94TBUAAAAAAAAAAAAAAAAAAAAJez/ABhvjpiH93yZUEvZ/jDfHTEP7vkwKgAAAAAAAAAAAAAAAAAAAABL2f4w3x0xD+75MqCXs/xhvjpiH93yZUAAAAJfKP4vSnTFK+8JcqCXyj+L0p0xSvvCXAqAAAAAAAAAAAAAAAAAAAAAEvlU8mF39DznsHmCm9ZVPJhd/Q857B5gpddEff8Ar+qzpL7f3/AAFyqwAAAAAAAAAAAAAAAA6u6vFisfQ438CnaHV3V4sVj6HG/gUwufBPgzo+KHrYAHHukAAAAAAAAAAAAAAAAAAAJfJX5MLQ6Hk/YMKgl8lfkwtDoeT9gwCoAAAAAAAAAAAAAAAAAAAAAS+Tjxem+mKr94TBUEvk48Xpvpiq/eEwVAAAAAAAAAAAAAAAAAAAACXs/xhvjpiH93yZUEvZ/jDfHTEP7vkwKgAAAAAAAAAAAAAAAAAAAABL2f4w3x0xD+75MqCXs/xhvjpiH93yZUAAAAJLKk2O61ITZSJDhTK1WlpCfFhrEY13d8vgrmorVciLhiiKmPyp4StJfKP4vSnTFK+8JcB3FeusFubDj++DuK9dYLc2HH98KgAS/cV66wW5sOP74O4r11gtzYcf3wqABL9xXrrBbmw4/vg7ivXWC3Nhx/fCoAEv3FeusFubDj++DuK9dYLc2HH98KgAS/cV66wW5sOP74O4r11gtzYcf3wqABL9xXrrBbmw4/vg7ivXWC3Nhx/fCoAEv3FeusFubDj++DuK9dYLc2HH98KgAS/cV66wW5sOP74O4r11gtzYcf3wqABmmUmTu5uTq6nTdcoMWWSlTSxWQqNGhvc3gXYo1yzTkaqp4FVFw+RfAdLogrWtVO2O/3kvcqnkwu/oec9g8qDbbvXLWvqTq1tddqi58Ua2NaIK1rVTtjv95GiCta1U7Y7/eTZQbdtv5pYbLaysa0QVrWqnbHf7yNEFa1qp2x3+8mygbbfzSbLaysa0QVrWqnbHf7yNEFa1qp2x3+8mygbbfzSbLaysa0QVrWqnbHf7yNEFa1qp2x3+8mygbbfzSbLaysa0QVrWqnbHf7yNEFa1qp2x3+8mygbbfzSbLaysa0QVrWqnbHf7yNEFa1qp2x3+8mygbbfzSbLaysa0QVrWqnbHf7yNEFa1qp2x3+8mygbbfzSbLaysa0QVrWqnbHf7ydHfWSyr0+ybhnYtySEaHLU6YjOhNpT2K9Gw3KrUd3QuCrhhjguHyKegSXyqeTC7+h5z2DzydMvzGqapI0a1Ht6rLtJd6/PW5s2P7yNJd6/PW5s2P7ySwL7D9Hy8581Ttl7NyhU6S71+etzZsf3kaS71+etzZsf3klgMP0fLznzNsvZuUKnSXevz1ubNj+8jSXevz1ubNj+8ksBh+j5ec+Ztl7NyhU6S71+etzZsf3kaS71+etzZsf3klgMP0fLznzNsvZuUKnSXevz1ubNj+8jSXevz1ubNj+8ksBh+j5ec+Ztl7NyhU6S71+etzZsf3kaS71+etzZsf3klgMP0fLznzNsvZuUKnSXevz1ubNj+8jSXevz1ubNj+8ksBh+j5ec+Ztl7NyhU6S71+etzZsf3kaS71+etzZsf3klgMP0fLznzNsvZuUKnSXevz1ubNj+8ldk2k7udk6tZ0pXKDCllpUqsJkWjRoj2t4FuCOck01HKieFURMfkTwGUG9ZK/JhaHQ8n7BhV9I6PbsdXs41a9f8TtCvV3et1516tR3FeusFubDj++DuK9dYLc2HH98KgFYnpfuK9dYLc2HH98HcV66wW5sOP74VAAl+4r11gtzYcf3wdxXrrBbmw4/vhUACX7ivXWC3Nhx/fB3FeusFubDj++FQAJfuK9dYLc2HH98HcV66wW5sOP74VAAl+4r11gtzYcf3wdxXrrBbmw4/vhUACX7ivXWC3Nhx/fB3FeusFubDj++FQAJfuK9dYLc2HH98HcV66wW5sOP74VAA870i97uovwnT5aYoL4cCq1BFfEp0ZVc5ZyMrl5JhMEVyqqJy4JgmK4Yrz9Jd6/PW5s2P7yS0f8ATFd6YqH2uKDorGg2K7dNU0+2Yj6z5qW7pd6muqIn6zuVOku9fnrc2bH95Gku9fnrc2bH95JYG3D9Hy8582G2Xs3KFTpLvX563Nmx/eRpLvX563Nmx/eSWAw/R8vOfM2y9m5QqdJd6/PW5s2P7yNJd6/PW5s2P7ySwGH6Pl5z5m2Xs3KFTpLvX563Nmx/eRpLvX563Nmx/eSWAw/R8vOfM2y9m5QqdJd6/PW5s2P7yNJd6/PW5s2P7ySwGH6Pl5z5m2Xs3KFTpLvX563Nmx/eRpLvX563Nmx/eSWAw/R8vOfM2y9m5QqdJd6/PW5s2P7yNJd6/PW5s2P7ySwGH6Pl5z5m2Xs3KFTpLvX563Nmx/eTucl01d1e40VCDVaDKxItVRIrH0mNERXJJyyYt/6luCZqNTBceVFXHlwTPTUcgP6Hubpj/aSxA6Q0W1ZtxVRGqdff3peh6Rcu1zFc/RU9xXrrBbmw4/vg7ivXWC3Nhx/fCoBTrJL9xXrrBbmw4/vg7ivXWC3Nhx/fCoAEv3FeusFubDj++DuK9dYLc2HH98KgAS/cV66wW5sOP74O4r11gtzYcf3wqABL9xXrrBbmw4/vg7ivXWC3Nhx/fCoAEv3FeusFubDj++DuK9dYLc2HH98KgAS/cV66wW5sOP74O4r11gtzYcf3wqABL9xXrrBbmw4/vg7ivXWC3Nhx/fCoAETk6hVKFWr2SrTcnMxvhaEiulpV0Bqu7hleXB0R/JmqxMMfCjlx5URtsS9n+MN8dMQ/u+TKgAAABL5R/F6U6YpX3hLlQS+UfxelOmKV94S4FQAAAAAAAAAAAAAAAAAAAAAl8qnkwu/oec9g8qCXyqeTC7+h5z2DyoAAAAAAAAAAAAAAAAAAAAS+VTyYXf0POeweVBL5VPJhd/Q857B4GCgA7NzAAAAAAAAAAAAAAAAAAABvWSvyYWh0PJ+wYYKb1kr8mFodDyfsGFN0v9n7/i06N+79f1UAApVmAAAAAAAAAAAAAAAAAADy7H/TFd6YqH2uKBH/AExXemKh9rig63Rvk0eEf452/wDMq8ZAAbmoAAAAAAAAAAAAAAAANRyA/oe5umP9pLGXGo5Af0Pc3TH+0lis6W+THj/JT+j/AJk+Hk1EAHPrgAAAAAAAAAAAAAAAAAAEvZ/jDfHTEP7vkyoJez/GG+OmIf3fJlQAAAAl8o/i9KdMUr7wlyoJfKP4vSnTFK+8JcCoAAAAAAAAAAAAAAAAAAAAAS+VTyYXf0POeweVBL5VPJhd/Q857B5UAAAAAAAAAAAAAAAAAAAAJfKp5MLv6HnPYPKgl8qnkwu/oec9g8DBQAdm5gAAAAAAAAAAAAAAAAAAA3rJX5MLQ6Hk/YMMFN6yV+TC0Oh5P2DCm6X+z9/xadG/d+v6qAAUqzAAAAAAAAAAAAAAAAAAB5dj/piu9MVD7XFAj/piu9MVD7XFB1ujfJo8I/xzt/5lXjIADc1AAAAAAAAAAAAAAAABqOQH9D3N0x/tJYy41HID+h7m6Y/2ksVnS3yY8f5Kf0f8yfDyaiADn1wAAAAAAAAAAAAAAAAAACXs/wAYb46Yh/d8mVBL2f4w3x0xD+75MqAAAAEllSivgWpCiwoESYiQ6rS3Ngwlaj4ipPy6o1ucqNxXwJiqJ8qoVpL5R/F6U6YpX3hLgOM1W1HuPr6f70OM1W1HuPr6f70VAAl+M1W1HuPr6f70OM1W1HuPr6f70VAAl+M1W1HuPr6f70OM1W1HuPr6f70VAAl+M1W1HuPr6f70OM1W1HuPr6f70VAAl+M1W1HuPr6f70OM1W1HuPr6f70VAAl+M1W1HuPr6f70OM1W1HuPr6f70VAAl+M1W1HuPr6f70OM1W1HuPr6f70VAAl+M1W1HuPr6f70OM1W1HuPr6f70VAAzTKTcNTj5OrqhRbOr0vDiUqaa6NFjSKshosFyK52bMq7BPCuCKvyIpR8ZqtqPcfX0/3oZVPJhd/Q857B5UAS/Garaj3H19P96HGaraj3H19P96KgAS/Garaj3H19P96HGaraj3H19P8AeioAEvxmq2o9x9fT/ehxmq2o9x9fT/eioAEvxmq2o9x9fT/ehxmq2o9x9fT/AHoqABL8ZqtqPcfX0/3ocZqtqPcfX0/3oqABL8ZqtqPcfX0/3ocZqtqPcfX0/wB6KgAS/Garaj3H19P96HGaraj3H19P96KgAS/Garaj3H19P96JzKTcNTj5OrqhRbOr0vDiUqaa6NFjSKshosFyK52bMq7BPCuCKvyIppZL5VPJhd/Q857B4GM8U7w1RqPpclvxxTvDVGo+lyW/PRwLDE7/AHcEPYbTzjxTvDVGo+lyW/HFO8NUaj6XJb89HAYnf7uBsNp5x4p3hqjUfS5LfjineGqNR9Lkt+ejgMTv93A2G0848U7w1RqPpclvxxTvDVGo+lyW/PRwGJ3+7gbDaeceKd4ao1H0uS344p3hqjUfS5Lfno4DE7/dwNhtPOPFO8NUaj6XJb8cU7w1RqPpclvz0cBid/u4Gw2nnHineGqNR9Lkt+OKd4ao1H0uS356OAxO/wB3A2G0848U7w1RqPpclvxxTvDVGo+lyW/PRwGJ3+7gbDaeceKd4ao1H0uS35oeTa4anAydWtChWdXpiHDpUq1saFGkUZERILURzc6ZR2C+FMURflRDSyXyV+TC0Oh5P2DCPf0q5pGrr/Rus2KLOvq/U4zVbUe4+vp/vQ4zVbUe4+vp/vRUAjtyX4zVbUe4+vp/vQ4zVbUe4+vp/vRUACX4zVbUe4+vp/vQ4zVbUe4+vp/vRUACX4zVbUe4+vp/vQ4zVbUe4+vp/vRUACX4zVbUe4+vp/vQ4zVbUe4+vp/vRUACX4zVbUe4+vp/vQ4zVbUe4+vp/vRUACX4zVbUe4+vp/vQ4zVbUe4+vp/vRUACX4zVbUe4+vp/vQ4zVbUe4+vp/vRUADzPJUO56rHqs9I2rUYkvHqs+5F7plGq1e64uc1UWN4Wri1cOTFFwVUwVeVxTvDVGo+lyW/NmyceL030xVfvCYKgnUdI3qKYpj3QiVaFaqmap+rzjxTvDVGo+lyW/HFO8NUaj6XJb89HAyxO/wB3B5sNp5x4p3hqjUfS5LfjineGqNR9Lkt+ejgMTv8AdwNhtPOPFO8NUaj6XJb8cU7w1RqPpclvz0cBid/u4Gw2nnHineGqNR9Lkt+OKd4ao1H0uS356OAxO/3cDYbTzjxTvDVGo+lyW/HFO8NUaj6XJb89HAYnf7uBsNp5x4p3hqjUfS5LfjineGqNR9Lkt+ejgMTv93A2G0848U7w1RqPpclvxxTvDVGo+lyW/PRwGJ3+7gbDaeceKd4ao1H0uS352GT69HWO+46TW7crSzy1JIz2QHSr0ho6Vl0RFVY6JjgmPJimCpy44om/HnG9/KTd30yB9ilzZau16dXFq7Ps9/sYXLdOiUzctx7V7plp+rNx/VKe8DTLT9Wbj+qU94MuBMwmzvnl5I2IXN0f9+2o6Zafqzcf1SnvA0y0/Vm4/qlPeDLgMJs755eRiFzdH/ftqOmWn6s3H9Up7wNMtP1ZuP6pT3gy4DCbO+eXkYhc3R/37ajplp+rNx/VKe8DTLT9Wbj+qU94MuAwmzvnl5GIXN0f9+2o6Zafqzcf1SnvA0y0/Vm4/qlPeDLgMJs755eRiFzdH/ftqOmWn6s3H9Up7wNMtP1ZuP6pT3gy4DCbO+eXkYhc3R/37ajplp+rNx/VKe8DTLT9Wbj+qU94MuAwmzvnl5GIXN0f9+2o6Zafqzcf1SnvA0y0/Vm4/qlPeDLgMJs755eRiFzdH/ftsWSeutuGcvKfhSE5JwYtWhuakzwediklLNVvePdypmIvyYOby44omgGXZAf0Pc3TH+0ljUSjvURRcqpj6TK1t1TVRFU/WAAGtmEvlH8XpTpilfeEuVBL5R/F6U6YpX3hLgVAAAAAAAAAAAAAAAAAAAAACXyqeTC7+h5z2DyoJfKp5MLv6HnPYPKgAAAAAAAAAAAAAAAAAAABL5VPJhd/Q857B5UEvlU8mF39DznsHgVAAAAAAAAAAAAAAAAAAAAAAS+SvyYWh0PJ+wYVBL5K/JhaHQ8n7BgFQAAAAAAAAAAAAAAAAAAAAAl8nHi9N9MVX7wmCoJfJx4vTfTFV+8JgqAAAAAAAAAAAAAAAAAAAAHnG9/KTd30yB9ilz0cecb38pN3fTIH2KXLDoz5/wCpQ9O+U6sAHRqQAAAAAAAAAAAAAAAAAAGo5Af0Pc3TH+0ljUTLsgP6Hubpj/aSxqJyWk/Or8Z/10Vj5dPhAADS2hL5R/F6U6YpX3hLlQS+UfxelOmKV94S4FQAAAAAAAAAAAAAAAAAAAAAl8qnkwu/oec9g8qCXyqeTC7+h5z2DyoAAAAAAAAAAAAAAAAAAAAS+VTyYXf0POeweVBL5VPJhd/Q857B4FQAAAAAAAAAAAAAAAAAAAAAEvkr8mFodDyfsGFQS+SvyYWh0PJ+wYBUAAAAAAAAAAAAAAAAAAAAAJfJx4vTfTFV+8JgqCXyceL030xVfvCYKgAAAAAAAAAAAAAAAAAAAB5xvfyk3d9MgfYpc9HHnG9/KTd30yB9ilyw6M+f+pQ9O+U6sAHRqQAAAAAAAAAAAAAAAAAAGo5Af0Pc3TH+0ljUTLsgP6Hubpj/AGksaiclpPzq/Gf9dFY+XT4QAA0toSWVKYgSdqQpmbjQ4EtBqtLiRYsVyNYxqT8uqucq8iIiIqqqlaQeXHybTv0yQ+2wDKmOtVEPKp1RMu00h2Vrfbm04HaGkOytb7c2nA7RgoLjCPz5eqtxL8efo3rSHZWt9ubTgdoaQ7K1vtzacDtGCgYR+fL1MS/Hn6N60h2Vrfbm04HaGkOytb7c2nA7RgoGEfny9TEvx5+jetIdla325tOB2hpDsrW+3NpwO0YKBhH58vUxL8efo3rSHZWt9ubTgdoaQ7K1vtzacDtGCgYR+fL1MS/Hn6N60h2Vrfbm04HaGkOytb7c2nA7RgoGEfny9TEvx5+jetIdla325tOB2hpDsrW+3NpwO0YKBhH58vUxL8efo3rSHZWt9ubTgdoaQ7K1vtzacDtGCgYR+fL1MS/Hn6NXyk33aM5k6uqWlLqoMeZjUqahwoUKowXPe5YLkRrUR2KqqrgiIUekOytb7c2nA7R5xurxYrH0ON/Ap62IGl6Ls0xGvXrStH0jt4mdWrUl9Idla325tOB2hpDsrW+3NpwO0VAIiSl9Idla325tOB2hpDsrW+3NpwO0VAAl9Idla325tOB2hpDsrW+3NpwO0VAAl9Idla325tOB2hpDsrW+3NpwO0VAAl9Idla325tOB2hpDsrW+3NpwO0VAAl9Idla325tOB2hpDsrW+3NpwO0VAAl9Idla325tOB2hpDsrW+3NpwO0VAAl9Idla325tOB2icyk33aM5k6uqWlLqoMeZjUqahwoUKowXPe5YLkRrUR2KqqrgiIaWS+VTyYXf0POeweA0h2Vrfbm04HaGkOytb7c2nA7RgoLrCPz5eqsxL8efo3rSHZWt9ubTgdoaQ7K1vtzacDtGCgYR+fL1MS/Hn6N60h2Vrfbm04HaGkOytb7c2nA7RgoGEfny9TEvx5+jetIdla325tOB2hpDsrW+3NpwO0YKBhH58vUxL8efo3rSHZWt9ubTgdoaQ7K1vtzacDtGCgYR+fL1MS/Hn6N60h2Vrfbm04HaGkOytb7c2nA7RgoGEfny9TEvx5+jetIdla325tOB2hpDsrW+3NpwO0YKBhH58vUxL8efo3rSHZWt9ubTgdoaQ7K1vtzacDtGCgYR+fL1MS/Hn6N60h2Vrfbm04HaJzJtfdoyeTq1pabuqgwJmDSpWHFhRajBa9jkgtRWuRXYoqKmCoplBvWSvyYWh0PJ+wYQtM0PZur/6160nRtJ7fX7NWo0h2Vrfbm04HaGkOytb7c2nA7RUAhJSX0h2Vrfbm04HaGkOytb7c2nA7RUACX0h2Vrfbm04HaGkOytb7c2nA7RUACX0h2Vrfbm04HaGkOytb7c2nA7RUACX0h2Vrfbm04HaGkOytb7c2nA7RUACX0h2Vrfbm04HaGkOytb7c2nA7RUACX0h2Vrfbm04HaGkOytb7c2nA7RUACX0h2Vrfbm04HaGkOytb7c2nA7RUADNLBvu0ZWhTUOZuqgwYi1WpREbEqMFqq189Hc12Cu8CtciovxoqL8ZR6Q7K1vtzacDtDJx4vTfTFV+8JgqAJfSHZWt9ubTgdoaQ7K1vtzacDtFQAJfSHZWt9ubTgdoaQ7K1vtzacDtFQAJfSHZWt9ubTgdoaQ7K1vtzacDtFQAJfSHZWt9ubTgdoaQ7K1vtzacDtFQAJfSHZWt9ubTgdoaQ7K1vtzacDtFQAJfSHZWt9ubTgdoaQ7K1vtzacDtFQAJfSHZWt9ubTgdoaQ7K1vtzacDtFQAJfSHZWt9ubTgdowO8LmoMxlAuiYgVumRZeNNwXQorJuG5r0SUgNVWqi4KmLXJyfGip8R6kJez/GG+OmIf3fJm/R782K+vEa2q9ai7T1ZeceMNF88U70ln8xxhovnineks/metgWGLV5YQ8OpzPJPGGi+eKd6Sz+Y4w0XzxTvSWfzPWwGLV5YMOpzPJPGGi+eKd6Sz+Y4w0XzxTvSWfzPWwGLV5YMOpzPJPGGi+eKd6Sz+Y4w0XzxTvSWfzPWwGLV5YMOpzPJPGGi+eKd6Sz+Y4w0XzxTvSWfzPWwGLV5YMOpzPJPGGi+eKd6Sz+Y4w0XzxTvSWfzPWwGLV5YMOpzPJPGGi+eKd6Sz+Y4w0XzxTvSWfzPWwGLV5YMOpzPJPGGi+eKd6Sz+Y4w0XzxTvSWfzPWwGLV5YMOpzMm/B2n5ScpFzdxzUvMYVZHrwURH96srLoi8i+BVa5MflavyKayS9n+MN8dMQ/u+TKgq7lfXrmufqn0U9SmKdwADBkEHlx8m079MkPtsAvCDy4+Tad+mSH22AZ2vjjxY1/DLGQAdg5oAAAAAAAAAAAAAAAAAAHV3V4sVj6HG/gU9bHkm6vFisfQ438CnrYo+lvjp8Ft0d8NQACoWIAAAAAAAAAAAAAAAAS+VTyYXf0POeweVBL5VPJhd/Q857B4GCgA7NzAAAAAAAAAAAAAAAAAAABvWSvyYWh0PJ+wYYKb1kr8mFodDyfsGFN0v9n7/AItOjfu/X9VAAKVZgAAAAAAAAAAAAAAAAAAl8nHi9N9MVX7wmCoJfJx4vTfTFV+8JgqAAAAAAAAAAAAAAAAAAAAEvZ/jDfHTEP7vkyoJez/GG+OmIf3fJgVAAAAAAAAAAAAAAAAAAAAACXs/xhvjpiH93yZUEvZ/jDfHTEP7vkyoAAAAQeXHybTv0yQ+2wC8IPLj5Np36ZIfbYBna+OPFjX8MsZAB2DmgAAAAAAAAAAAAAAAAAAdXdXixWPocb+BT1seSbq8WKx9DjfwKetij6W+OnwW3R3w1AAKhYgAAAAAAAAAAAAAAABL5VPJhd/Q857B5UEvlU8mF39DznsHgYKADs3MAAAAAAAAAAAAAAAAAAAG9ZK/JhaHQ8n7BhgpvWSvyYWh0PJ+wYU3S/2fv+LTo37v1/VQAClWYAAAAAAAAAAAAAAAAAAJfJx4vTfTFV+8JgqCXyceL030xVfvCYKgAAAAAAAAAAAAAAAAAAABL2f4w3x0xD+75MqCXs/xhvjpiH93yYFQAAAAAAAAAAAAAAAAAAAAAl7P8Yb46Yh/d8mVBL2f4w3x0xD+75MqAAAAEHlx8m079MkPtsAvDrrhoshcNIjUyrwXR5KMrHPY2K+GuLHo9qo5io5FRzWryL8RlRPVqiXlUa4mHm4GzaJLP5lUdsTu9GiSz+ZVHbE7vS7xajLKqw6rMxkGzaJLP5lUdsTu9GiSz+ZVHbE7vRi1GWTDqszGQbNoks/mVR2xO70aJLP5lUdsTu9GLUZZMOqzMZBs2iSz+ZVHbE7vRoks/mVR2xO70YtRlkw6rMxkGzaJLP5lUdsTu9GiSz+ZVHbE7vRi1GWTDqszGQbNoks/mVR2xO70aJLP5lUdsTu9GLUZZMOqzMZBs2iSz+ZVHbE7vRoks/mVR2xO70YtRlkw6rMxkGzaJLP5lUdsTu9GiSz+ZVHbE7vRi1GWTDqszBbq8WKx9DjfwKetiAi5ILLjQnwotPn4kN7Va5jqvOKjkXwoqcLyodvxGpPO7j9Yqhvyv03So0mqJiNWpM0WxNmJiZ161QCX4jUnndx+sVQ344jUnndx+sVQ35CSlQCX4jUnndx+sVQ344jUnndx+sVQ34FQCX4jUnndx+sVQ344jUnndx+sVQ34FQCX4jUnndx+sVQ344jUnndx+sVQ34FQCX4jUnndx+sVQ344jUnndx+sVQ34FQCX4jUnndx+sVQ344jUnndx+sVQ34FQCX4jUnndx+sVQ344jUnndx+sVQ34FQS+VTyYXf0POeweOI1J53cfrFUN+fKbyfUOclY0tNxa9HlozFhxYUWvz7mPaqYK1yLGwVFRcFRQMKBs2iSz+ZVHbE7vRoks/mVR2xO70vcWoyyqcOqzMZBs2iSz+ZVHbE7vRoks/mVR2xO70YtRlkw6rMxkGzaJLP5lUdsTu9GiSz+ZVHbE7vRi1GWTDqszGQbNoks/mVR2xO70aJLP5lUdsTu9GLUZZMOqzMZBs2iSz+ZVHbE7vRoks/mVR2xO70YtRlkw6rMxkGzaJLP5lUdsTu9GiSz+ZVHbE7vRi1GWTDqszGQbNoks/mVR2xO70aJLP5lUdsTu9GLUZZMOqzMZBs2iSz+ZVHbE7vRoks/mVR2xO70YtRlkw6rMxk3rJX5MLQ6Hk/YMOr0SWfzKo7Ynd6c+UyfUOTlYMtKRa9AloLEhwoUKvz7WMaiYI1qJGwRERMERCBpulxpPV1Rq1a0vRdHmxr1zr1q0EvxGpPO7j9YqhvxxGpPO7j9YqhvyClqgEvxGpPO7j9YqhvxxGpPO7j9YqhvwKgEvxGpPO7j9YqhvxxGpPO7j9YqhvwKgEvxGpPO7j9YqhvxxGpPO7j9YqhvwKgEvxGpPO7j9YqhvxxGpPO7j9YqhvwKgEvxGpPO7j9YqhvxxGpPO7j9YqhvwKgEvxGpPO7j9YqhvxxGpPO7j9YqhvwKgEvxGpPO7j9YqhvxxGpPO7j9YqhvwGTjxem+mKr94TBUElLZPqHKw1hy0WvQYavfEVsOvz7UVz3K5zsEjeFXOVVX41VV+M+vEak87uP1iqG/AqAS/Eak87uP1iqG/HEak87uP1iqG/AqAS/Eak87uP1iqG/HEak87uP1iqG/AqAS/Eak87uP1iqG/HEak87uP1iqG/AqAS/Eak87uP1iqG/HEak87uP1iqG/AqAS/Eak87uP1iqG/HEak87uP1iqG/AqAS/Eak87uP1iqG/HEak87uP1iqG/AqAS/Eak87uP1iqG/HEak87uP1iqG/AqCXs/xhvjpiH93yY4jUnndx+sVQ358oOT6hwIkeJBi16HEjvSJFcyvz6LEcjUbnOXhuVc1rUxX4monxAVoJfiNSed3H6xVDfjiNSed3H6xVDfgVAJfiNSed3H6xVDfjiNSed3H6xVDfgVAJfiNSed3H6xVDfjiNSed3H6xVDfgVAJfiNSed3H6xVDfjiNSed3H6xVDfgVAJfiNSed3H6xVDfjiNSed3H6xVDfgVAJfiNSed3H6xVDfjiNSed3H6xVDfgVAJfiNSed3H6xVDfjiNSed3H6xVDfgVAJfiNSed3H6xVDfjiNSed3H6xVDfgLP8Yb46Yh/d8mVB09vW5TrfdOOpqTmfORGxY7pmdjzLnvRqNR2MV7lxzWtTk+JrU+JDuAAAAAAAAAAAAAAAAAAAAAAAAAAAAAAAAAAAAAAAAAAAAAAAAAAAAAAAAAAAAAAAAAAAAAAAAAAAAAAAAAAAAAAAAAAAAAAAAAAAAAAAAAAAAAAAAAAAAAAAAAAAAAAAAAAAAAAAAAAAAAAAAAAAAAAAAAAAAAAAAAAAAAAAAAAAAAAAAAAAAAAAAAAAAAAAAAAAAAAAAAAAAAAAAAAAAAAAAAAAAAAAAAAAAAAAAAAAAAAAAAAAAAAAAAAAAAAAAAAAAAAAAAAAAAAAAAAAAAAAAAAAAAAAAAAAAAAAAAAAAAAAAAAAAAAAAAAAAAAAAAAAAAAAAAAAAAAAAAAAAAAAAAAAAAAAAAAAAAAAAAAAAAAAAAAAAAAAAAAAAAAAAAAAAAAAAAAAAAAAAAAAAAAAAAAAAAAAAAAAAAAAAAAAAAAAAAAAAAEgtVuOfr1alKPCpDJamx4cvnTSxFe9XQIcVV73kRP7TD/AMAV4Jf8df2c/wBcfjr+zn+uBUAl/wAdf2c/1x+Ov7Of64FQCX/HX9nP9cfjr+zn+uBUAl/x1/Zz/XH46/s5/rgVAJf8df2c/wBcfjr+zn+uBUAl/wAdf2c/1x+Ov7Of64FQCX/HX9nP9cfjr+zn+uBUAl/x1/Zz/XH46/s5/rgVAJf8df2c/wBcfjr+zn+uBUAl/wAdf2c/1x+Ov7Of64FQCX/HX9nP9cfjr+zn+uBUAyqNeF5srdWp7YFvY0+MyC5ypGXOV0GHExTl/wDmYf8Ag/XGu9fmrc/dj/zA1MGWca71+atz92P/ADHGu9fmrc/dj/zA1MGWca71+atz92P/ADHGu9fmrc/dj/zA1MGWca71+atz92P/ADHGu9fmrc/dj/zA1MGWca71+atz92P/ADHGu9fmrc/dj/zA1MGWca71+atz92P/ADHGu9fmrc/dj/zA1MGWca71+atz92P/ADHGu9fmrc/dj/zA1MGWca71+atz92P/ADHGu9fmrc/dj/zA1MGWca71+atz92P/ADHGu9fmrc/dj/zA1MGWca71+atz92P/ADHGu9fmrc/dj/zA1MGWca71+atz92P/ADHGu9fmrc/dj/zA1MGWca71+atz92P/ADI5Mrt5ujTTGyduokCYiy/LDjcuY9zMfy//AITZatVXZ1UsLlym3Gup6EB5+0tXrzS3Orj9saWr15pbnVx+2b9ivbmna7W96BB5+0tXrzS3Orj9saWr15pbnVx+2Nivbja7W96BB5+0tXrzS3Orj9saWr15pbnVx+2Nivbja7W96BB5+0tXrzS3Orj9saWr15pbnVx+2Nivbja7W96BB5+0tXrzS3Orj9saWr15pbnVx+2Nivbja7W96BB5+0tXrzS3Orj9saWr15pbnVx+2Nivbja7W96BB5+0tXrzS3Orj9saWr15pbnVx+2Nivbja7W96BB5+0tXrzS3Orj9saWr15pbnVx+2Nivbja7W96BB5+0tXrzS3Orj9saWr15pbnVx+2Nivbja7W96BB5+0tXrzS3Orj9saWr15pbnVx+2Nivbja7W96BB5+0tXrzS3Orj9saWr15pbnVx+2Nivbja7W96BBMZNrhmrotGVqdQgwIM0+JFhRGwFXMxhxHMxTHlRFzccOUpyLMap1SkROv2gAPHoAAAAAAAAAAAAAAAAAAAAAAAAAAAAAAAAAAAAAAAAAAAAAEvafjPevSUH7FLFQS9p+M969JQfsUsBUAAAAAAAAAAAAAAAAA4MasUyDVoFKjVGTh1SOzhIUm+O1I0RvfLnNZjnKneu5UT+6vyKc4AAcGsVimUSVbM1moydPl3P4NsWbjthMV2CrmorlRMcEVcP1KBzgAAAAAAAZFM+PV4/TYH2OXOQceZ8erx+mwPscucgAAAAAAAAAAAABwVq9NSmfCK1CT+D+dcM3gvys38vHD8rk8Ph5AOcD4SU5LT8syZkZiDMy78c2LBej2OwVUXBU5FwVFT/wfcAAcWnVGRqcF0amzktOQWuzHPl4rYjUdgi4KqKvLgqLh+tAOUAAAOLDqMjEqEWQhzks+ehNz4ks2K1YjG8nKrccUTvm/WnynKAAAAY3B/PKr0lN+3ebIY3B/PKr0lN+3eWHRvzZ8PJC075ceL7gAu1UAAAAfF81LsmWSz48Jsw9MWwleiPcnLyonhXwL9SiZ1GrW+wAAAAAAAAB8oMeDH4TgIsOJwb1hvzHIua5PC1cPAv6gPqAfFs1LvmnyzY8J0wxM50JHor0Tk5VTw/Gn1oNeo1PsAAAAAAADdMhnk7lfpc39oiF8QOQzydyv0ub+0RC+OXufFLoKPhgABgyAAAAAAAAAAAAAAAAAAAAAAAAAAAAAAAAAAAAAAAAAAAAAAl7T8Z716Sg/YpYqCXtPxnvXpKD9ilgKgAAAABD5QalJ2zCSrVy86xRZCYjNl4UKXlYEZjX5irmpjLxH8qMcuKqvLj4ORDoaxd1t0iWbHmsrM5EY5+YiSiSMy7HBV5WwpZzkTkXlVMPAnhVDovwv/JzSOmIfsI51P4VNy0KtZPZCXo9aplQjsqbIjocrNQ4rmt4CMmcqNVVwxVEx/WgHJyyzVUbN2VQJa7qnP0G7ZlJWaiIkqivgOiQExhxIUJvI5sVflRycioqKqLr9j2lIWXSY9MpEacfIvmYkxCgzMbhEl0fgqw4fJyMRcVRFxXFzlVVVVUy38ILyj5I+mP8AcSpt03MQJOVjTM3GhwJaCxYkWLFcjWQ2omKucq8iIiIqqqgeZfwbotrQ7GnUuK4PgybWoOVkL4diyOczgYWDsxkViLy5yZ2GPJhjycnPyDV6lVez5qYv28ZyHVGzrmQ0m7jjyr+C4KGqYNSM3FM5X8uHyp8RzfwXZyp0nJ3NNh21V56DMVB8aHHl1l2McnBQmLhwsVirg5jkxRFTFMMcUVE+P4KtVnJDJ3PQpSg1OpsWpPcsaUiSzWIvAwUzV4WKx2PIi+DDlTlxxRA534NzoDr8ypLJR+6JTu+EsGLwyxuEZws1muz1VVfimC5yqqr4cVL64soraLlKp9oJRZufmJ6R7rgPlYsNHufjExYrYisaiI2E92dn/ImHLiQv4O8R0bKNlYixIMSA99SY50KIrVdDVY00qtXNVUxTwLgqp8iqcTKZV5Cg/hPWlVKxNQ5SQlqPEfFjP8DUzJxERETlVVVURETFVVUREVVA4l4Tsac/CYtCYm7bn1iQ6fiynxllnRYitSac17V4VYaZrsHJi9FRWYomObjoUxlPmoGUyj2hGtSfgRajBSNwkaagcIxv9pi7MY5zVanBKq9+jsEdg1VRqOgLbod7XBVrjyn25wdMqFQiQ1pkjNQm4T8kzNTMiNcq8Gr2woOD0emKo/DNa5r06K0r8g5RPwjbQq8GRiSL4UjFlosF0RIiZyQ5tyK12CYorXt8KJguKcqIiqHpCr0mdnppsWVuCqU2GjEasGVhyzmKuKrnKsWC92PKieHDkTk8OPm3KHNyF8ZTaRbMxlASdtOWg91Tc7GmJWEyHE77ORjmNhsiOVvBtaqI9WLEevgR6G4ZT7vmaLIuo9tSszUbun4KpJysqxHul0cuYkzFxRWshtcqcr+RV5OREc5uV/gq1ml0myKo6NJVBZuNUFR0WUpUxM4w0gw81jokKG5ORXPVGquKZyrh33KFjUqxatMt6JAdlWmINOhwUl0g06LIK+GxcGIkNsCXz24IqYKxO9RMeTDFK3JnAWHQUjyVzzFx0OZwiyExNpnzMNq/ltiRcUz+/wAcEVrXM5WrjgiJlcS5pW6MudUpdzy8/U7Yp0osxI02LSY8Tg4zocBqviS6Q893I+LgsRqomfyYZyY69Zl4S1092Q20ysUmclUY6JKVWUWBFzH52ZERMVRWqrHpyL4WLyeDEKUAAAABkUz49Xj9NgfY5c5Bx5nx6vH6bA+xy5yAB1dwpwUjEnYlVm6bLSkJ8aM+Xhw34sRMVVUfDevIiL+T8q+HkO0Ohv7xFuPo2Z9k4DoINw0aLTlnWX/MpBRrn5rklWxMExx/s1g5+PJyJhivJhjihwLirsaHYU9cNt3VOzvAPZDThIMvmo5YjWqjm8C1yLg7Hlw8KL4F5eqtmtUuDkNmJCLUpJk8shOsSXdHYkRXOWLmpm444rimCfHihxE/9ti//rX7cBYZLrXlKdTJCvQZqefO1Onw4k22LGzmRoj/AO0WI5MMVciuVEVV8GPxqqrI2fMyEtWsoM1XJ2dlqdJ1NX/2EzHhta6JHisVVbCVFVVzWJjgvgNMsHxFtzo2W9k0xOd/RGVjpKX+2xANNi1WyoVPbOuuKZWCrWuRrazNOiYOww/s0iZ6Ly8qYYpy44YKSsxAko2Wu0okhGm4snMU9s1DiRZmM57kVsw5vfPdno1cExb4OVUVOVUX7XPPzD8h8tLvpU7CgpIySd1PfB4NUR0LBcEiK/BcOTvceVMcOXDh0qDFlsqOTyBMQ3wo0KgQWPhvarXMckGYRUVF8CovxAaJUbtSTygUy2O4s/u2AsfunhcMzBIi4Zuby/8Ab8OKeH9XLhUpVO48i87JtfBzp2tZjmPXvuDZBhPVzUx+JzYaKuCp33yqhoN6T0Cm5dbamptz2wWyWYqshuiKrnJMMaiNaiqqq5yJyJ8ZI5N7Hg3LZteno/DTczBWNBkJPhVZDZMcCxyRMcURVVcxOXBMG8uPJgGiTtzUzJ1bsCXdQJ2URWK2Ej3SyOmYjWIivfwb1VVXBuc/NXwp8qIV9r1aaq8hFi1ClTNKmoMd8CJAjcqKrcO+Y7BM9qoqd8iYYouGKJiuN0asvvu47Bk2JG4ekw+Hm5lyujKrmOauLlVE/K4GGudivLGROVU5d8AibOvuJc9IWdlLfqDlZEWFFSDGgOa1yIi4Ir3sVe9c1fyfjw5cCQyDTMSTtifdLUaanYj5vNfHl1gt5EhswYqviNcuGc5fBh3y/GqkxY1bSDk0qdvU5ndddrE7El4Eq1ucqQ3QYTXvdypmpm52CquGKY+BrlSwWcrGSin05k/wdTt+KxkJWQ3NbElY64viZi4IsRq/2itxw8CIqtwxcFhk5vB15UuZnfg50kyDFSEi8MkRr1zUcuC4IuKYpjimHKmCryon0rDW0SQWbq14VCVl28mfFbKJnLgq5rU4HFzlRFwaiYrhyISn4OniROfT3exhEvluuONXJSWbTJeO6gS0dWrPK1EhTMdWvRODVUxcjUZETFq4Kqrj/dVQ/eTKFJz8xM3Rcd0wZOsxojmw1WPL56Jhg5+ERHZuPK1ERrVRrVw71yFhUZyk1CrScjL5QaklUXllVgRISwVev5KRODhox/K1O8c7FccE/K5e5rlySlPtWofBMCoSsSXkonc3/pMeHDhK1i5n5UNGtamCeHkRE5eQl7Cr8tK23BrcxR6tVa/OxY3dUzKSD4sRycI5EwiKiNzESGxMxrsEVE5ORcA1OXSK2BDSYex8ZGoj3sYrGudhyqjVVVRMfixX/NT6HwkJuBPyMvOSj+ElpiG2LCfgqZzXJii4LypyKnhPuAMbg/nlV6Sm/bvNkMbg/nlV6Sm/bvLDo35s+Hkhad8uPF9wAXaqAAB103CWXZEjzFXjy8FFxVX8C1rMV5ExVng5UTlUiqP3PVa7N1Co1VrWS8TNlnxHQ2udgq5q5rkwTBMF/JTvnYpgqKc+/ao+YkosnJQokWBCiN7qjtRODaqOREZivhdnK1Vw5Uww/wAWHcW7PS0Gg0+G2DMtwgMVcyUi4K5UxVcUbguK4rj8eOJArmm5d6uv2R7fr7+P0TKIqot9bV7Z9jjVGapz+BgzFyTSZ7sWrAisbgvg75zGcicvxrh8fxcnYzrpWFTYUncExCipHRWOivhrDY9U5cVXFUauCY+FOVMU/VO2rUkjS0xU6hLTM/UmxUYx8KAsRUbmN5GqiZrfynKqYoq4/Hih39TbIVu33xZvhYUq3GK5yswiQlYq53IqLgqYOauH68PCZ26+vTNUatcx3+7v9v8A8Y3KerMUz7v+93scOly03ClI1Ikq21ZmTVqPe6UVVhtciK1qYuwwwR3y8i4cmCHBgtjT96T1NnZyajScCB/2+EzEiIrWcjkbgi/9xfk8CfEdfQPg2lW58K1aVWZbMx1hw89EjPYxqKjWrnYJyZrk5E8GH+SctKcsjXKjVJykf+kpBVzYWEJ3B4NZiubnYf3XeDl5f1mnrdamnVG72a5n2e3VrbdWqqrXPKPf7NankYUlJMi06mxoMOO1FekF0RYiw1XDlVquxwxVFw5PD+s6qPXntpk9NwKhJxVlO9fDdJxGOR68jWqivxTF3Jjh8vyKci13yNSk2T8KlQJOK17mtVIbf8sWuwTFMFw+LlxQmcpEVstUGsloqsiTcFEmIeGDX5rv7Ny8nKuKKmOOKI1PAnh23bnUtdpT7u7X+tzVbo61zqT7/wDtakturxotIgxKn3TEmH4uzmycTlbjyLi1uC4py4phyKn+azduz8vI3DW5yPKzURvCvThocNVSCxYjlcr0xxTwIvgx71TtIizEvVaLM2/Fjx6VHY2A+E3PiQobGq1qquKrmrgv6lRWLjji5D+2T+nbl+k//wCkU166qqqKdftiff7/AKe/vbNVMU11avf5+5yruuF1OgRYFPasSbTNSJEa3ObLI78lXfFivxIv+a/EizjIcvSLfgVOYk5qNPx/7SFNPjZrc57VX+4/OwwzlxVMV5ccMeSvuuLIfBiylRiRW90uRIcOAmMSI5qo5EamC/GiJy8nKnKmKGf17CNHhcCjEgQWYsk4kR0TgYbVwVIiq7vHKqNTMRcfA3kdhnY6XMxVM69e7ue6NETTEatW/vUEpGi2lItmp6FPRHTET/qUfEh8HnriqvaiKrldgnx4Z3x4ciJdGcRXpdkWJKUpqNZLuSI5k/NxXLFTDBUzUVcETFUVU5eVuCpiaOSNFn3xT8P0/rTpEe6Z+L6/wABLRgAAbnkM8nUr9Lm/tEQvyAyGeTqV+lzf2iIX5y9z4pdBR8MAAMGQAAAAAAAAAAAAAAAAAAAAAAAAAAAAAAAAAAAAAAAAAAAAAEvafjPevSUH7FLFQS9p+M969JQfsUsBUAAAAAOjvC06JeNNgyFxyXdkpCjJMMh8K+Hg9Guai4sci+B7kw8HKcm4qTJ1imRIE9SqdVeDxiwZefY10JYqNVG4qrXZvhVM5GqqIq8i+A7MAYJcMpdV/ZXbWlapa8xQ5O2p183FqDYizEvMNR0KI3MerGIucsNrcEVXJnqqtTMchoOWqbnIeT6fplIl+6qvWsKVKS2Y53CuioqROVMEbhCSK/OcqNTNxXk5FugBM5NLZWz7Fo9CfF4WNKwlWM9HZzVivcr4mauCd7nudm4pjhhjymZfg+ylasfJLNx6tbdZixok/EmEk4EJiTKQkgsar+De5rvyobkRqd8uKKjVRcTcwBi/4O9IrMOrXzcdbpcek/Dc+2JDk5lj2RWYOixHL3zW4t/t0ajk8KtdyJgdffdIg1r8KO1JWdp8KoSCUZ0SZgxoCRoaMTupEc9FRUwz3MTFfjVvxqhvAA+c1EfBlo0WHAiTD2MVzYMNWo6IqJijW5yo3FfAmKonyqhhEtQ52f8AwlKTW6faM/RqfKykR0/GjS0KEyJGcyPjE4SG5zIjnLGhoqo5XYouKd6uG9gDiy9Okpaem52Xk5aFOTeZ3THhwmtiRsxMG57kTF2CciY+BDEfwVnTdOyRT02ymzk2sWpviQYMHMY6O3g4LFcxYjmtVEVr8Vzv7jk5VTA3gAYJkljzF0Ze7vu6Upk/KUdZPuB6zsNIUSHMNSXRYTm4r3ycE9VRMc1M3HBXIi72AAAAAAAZFM+PV4/TYH2OXOQceZ8erx+mwPscucgAfCflIFQkJmTm2cJLTEN0GKzFUzmORUVMU5U5FXwH3AHXU2i06m0ZtJlJVjacjXs4B6rEarXKquRc7HFFzl5F+UzzKS2tfAz7WpFps7hnHJwExIRMYcPCMju/YkNEYq8iriqN75VzlwU1QAcCgU/4JoVOpvC8N3HLQ5fhM3Nz8xqNxwxXDHDwYmc5P5KvU67b1jQaS3gpqeV7HzsSJLte3hYyorF4N2emDv1YYp4cTVQB03dFw+a6TtKJuCJmKZW5zLTRalN01sKWlpFyRI0CI6LBRMI7UTPcxnfYxE71EVcMF8GOGngDg/BFN+E/hL4Ok/hHw91cA3hfyc38vDH8nk8Pg5DG8jtcj023ZyiU2VfHuKZm+HgwIsNzYcOC6DCwjxHYYcGnhwRcXYtRPykU3IAY6ln3NZ9Vl7lpcRlZn4rYi1aXa1G5+e7hH8HyJiiqiYYJnZyIqNVHKxNKtmrzFZp7JiapE9THq1FVk0jUxdyo5GpjnYIqeFzW4oqKicp3AAyj8Hmnw2WtNT8STY2ZiTT4cKZWEiPfCzIeKI7DFW57XfqxRfjQv7miw2U98OaokxWJRzVdFgwocKKmDcFTFj3Irl+RGoq4p/lj3AAzfInQpqn2NNydckHQmzMy9VgTMP8ALhrDYxc5i/EqtcmCpyp+pUOJl8lESy6RJSEvh/6hDgwIEFn/AMmK1rGtT/wiIhqYAjMqdcbSbUqkKPIT0SXmpV8uk1Cax0KG+I1zWo/vs5qY4cubh3yJiqrgfbJTT5ul2DSpSoQHy8y3hXuhP5HNR8V724p8S4OTkXlTwLgpWgAAABjcH88qvSU37d5shjcH88qvSU37d5YdG/Nnw8kLTvlx4vuAC7VQAAJq9IEGVs6ahS8KHBgsdDwYxqNa3+1avgQ5MvOupFtSESYlJp7YUqzheDamMLBrUXORVRfl+LkwXHA7wGqbX/rrROr2amyLn/nqzH11pXJzKxpagxFjsViRo3Cw1X+83MYiL/lii/8A1OZekg6eoMfgJdIs1DzXQ1RqK9Ez2q7N+PlRPAnh8B3wPKbMRa7Kd2p7N2ZudohLokoi2RSJWBLPSMqsxgw4a52dwT1d3vhxxxVf/J3twxJ9aBU0iy0q2GsrFznNmHOVEzFxVEzExX9WKHfA8ixq16p98RHB7N7Xq1x7p1py1XR5WzZV8KWiR4yNe5kFFRivxeqpyuwREwVFx+TwYn6kbd4OnTyTcxw1UnoT4caaVMc3OTDBqcnepycnJjgngRERKEGVNmmIpifbqjUxm7MzMx7Ncump8rM0SnScnAgrPQ2ufwj2OSG5uKq5FRrlwXlXBe+T/wAnW2VLTLJ+tTceWjQIUzGz4aRW5rl757vB/k5P1fUVYPOxiJpmJ9lPuj9anvazqqifr/8AXSVqJEiRlhS/wpEiJgnAQG8FDcqJnYrFVvIi8iLmu/VhjiSdYlHQpJJeoyEaVa/FkjLyaIsJYiw8GrEci5zoiYon68xcMUVTRwY3NH7TXMy9t3up7oRMjbs66iU+YlIsSQqsJqtVHOVEdDWIr0RyJjh4ccMP1KnyVFHiz0aRa+qQIcCZVVxYx2KYY8nxrh9a/wD8JzgZW7FNvV1Z+mpjXdmv3gANzWAADc8hnk6lfpc39oiF+QOQzydyv0ub+0RC+OXufFLoKPhgABgyAAAAAAAAAAAAAAAAAAAAAAAAAAAAAAAAAAAAAAAAAAAAAAl7T8Z716Sg/YpYqCZm7Pl41Wn6hAqtYk4s7EbFjMlZrMYrmw2w0XDD/CxoFMCX4oftFcfpv/EcUP2iuP03/iBUAl+KH7RXH6b/AMRxQ/aK4/Tf+IFQCX4oftFcfpv/ABHFD9orj9N/4gVAJfih+0Vx+m/8RxQ/aK4/Tf8AiBUAl+KH7RXH6b/xHFD9orj9N/4gVAJfih+0Vx+m/wDEcUP2iuP03/iBUAl+KH7RXH6b/wARxQ/aK4/Tf+IFQCX4oftFcfpv/EcUP2iuP03/AIgVAJfih+0Vx+m/8RxQ/aK4/Tf+IFQCX4oftFcfpv8AxHFD9orj9N/4gVAJfih+0Vx+m/8AEcUP2iuP03/iBFTPj1eP02B9jlzkHfMycU9s3NzPwtXHR5p6RIr3TSKrnIxrE/u/4WtT/wAH00fSPnWs+kN7IE6Ci0fSPnWs+kN7I0fSPnWs+kN7IE6Ci0fSPnWs+kN7I0fSPnWs+kN7IE6Ci0fSPnWs+kN7I0fSPnWs+kN7IE6Ci0fSPnWs+kN7I0fSPnWs+kN7IE6Ci0fSPnWs+kN7I0fSPnWs+kN7IE6Ci0fSPnWs+kN7I0fSPnWs+kN7IE6Ci0fSPnWs+kN7I0fSPnWs+kN7IE6Ci0fSPnWs+kN7I0fSPnWs+kN7IE6Ci0fSPnWs+kN7I0fSPnWs+kN7IE6Ci0fSPnWs+kN7I0fSPnWs+kN7IE6Y3B/PKr0lN+3eehtH0j51rPpDeydfAyS0CCkTNmKkqxIj4rldEYqq57lc5ccz5VUk6LfixXNUxraNIszdp6sSxAG6aKqF8/P/AL8PsDRVQvn5/wDfh9gn4nTlQ9gq3sLBumiqhfPz/wC/D7A0VUL5+f8A34fYGJ05TYKt7CwbpoqoXz8/+/D7A0VUL5+f/fh9gYnTlNgq3sLBumiqhfPz/wC/D7A0VUL5+f8A34fYGJ05TYKt7CwbpoqoXz8/+/D7A0VUL5+f/fh9gYnTlNgq3sLBumiqhfPz/wC/D7A0VUL5+f8A34fYGJ05TYKt7CwbpoqoXz8/+/D7A0VUL5+f/fh9gYnTlNgq3sLBumiqhfPz/wC/D7A0VUL5+f8A34fYGJ05TYKt7CwbpoqoXz8/+/D7A0VUL5+f/fh9gYnTlNgq3sLBumiqhfPz/wC/D7A0VUL5+f8A34fYGJ05TYKt7CwbpoqoXz8/+/D7A0VUL5+f/fh9gYnTlNgq3mQzydyv0ub+0RC+OqtegyltUeHTae6K6XZEiREWK5HOVXvV7vAifG5TtSpqnXMysqY1REAAMXoAAAAAAAAAAAAAAAAAAAAAAAAAAAAAAAAAAAAAAAAAAAAAAAAAAAAAAAAAAAAAAAAAAAAAAAAAAAAAAAAAAAAAAAAAAAAAAAAAAAAAAAAAAAAAAAAAAAAAAAAAAAAAAAAAAAAAAAAAAAAAAAAAAAAAAAAAAAAAAAAAAAAAAAAAAAAAAAAAAAAAAAAAAP/Z;" parent="1" vertex="1">
          <mxGeometry x="580" y="120" width="231" height="190" as="geometry" />
        </mxCell>
        <mxCell id="n7uOwCEBbb2PrVGbVbOj-11" value="&lt;div&gt;&lt;font face=&quot;helvetica neue, helvetica, segoe ui, arial, freesans, sans-serif&quot;&gt;&lt;span style=&quot;font-size: 13px&quot;&gt;&lt;b&gt;问题：&lt;/b&gt;&lt;/span&gt;&lt;/font&gt;&lt;/div&gt;&lt;ol style=&quot;padding-left: 2em ; margin-top: 0px ; margin-bottom: 16px ; font-family: &amp;quot;helvetica neue&amp;quot; , &amp;quot;helvetica&amp;quot; , &amp;quot;segoe ui&amp;quot; , &amp;quot;arial&amp;quot; , &amp;quot;freesans&amp;quot; , sans-serif ; font-size: 13px ; font-style: normal ; font-weight: 400 ; letter-spacing: normal ; text-indent: 0px ; text-transform: none ; word-spacing: 0px&quot;&gt;&lt;li style=&quot;margin-bottom: 0px&quot;&gt;&lt;strong&gt;效率问题&lt;/strong&gt;&lt;/li&gt;&lt;li style=&quot;margin-bottom: 0px&quot;&gt;&lt;strong&gt;空间问题（标记清除后会产生大量不连续的碎片）&lt;/strong&gt;&lt;/li&gt;&lt;/ol&gt;" style="text;whiteSpace=wrap;html=1;fontColor=#FF0841;" parent="1" vertex="1">
          <mxGeometry x="580" y="320" width="340" height="60" as="geometry" />
        </mxCell>
        <mxCell id="n7uOwCEBbb2PrVGbVbOj-12" value="&lt;span style=&quot;font-family: &amp;quot;helvetica neue&amp;quot; , &amp;quot;helvetica&amp;quot; , &amp;quot;segoe ui&amp;quot; , &amp;quot;arial&amp;quot; , &amp;quot;freesans&amp;quot; , sans-serif ; font-size: 13px ; font-style: normal ; font-weight: 400 ; letter-spacing: normal ; text-indent: 0px ; text-transform: none ; word-spacing: 0px ; float: none ; display: inline&quot;&gt;该算法分为“标记”和“清除”阶段：&lt;br&gt;&lt;br&gt;首先标记出所有需要回收的对象，在标记完成后统一回收所有被标记的对象。它是最基础的收集算法，后续的算法都是对其不足进行改进得到。这种垃圾收集算法会带来两个明显的问题&lt;/span&gt;" style="text;whiteSpace=wrap;html=1;fontColor=#BC03FF;" parent="1" vertex="1">
          <mxGeometry x="830" y="150" width="200" height="150" as="geometry" />
        </mxCell>
        <mxCell id="n7uOwCEBbb2PrVGbVbOj-13" value="" style="shape=image;verticalLabelPosition=bottom;labelBackgroundColor=#ffffff;verticalAlign=top;aspect=fixed;imageAspect=0;image=data:image/jpeg,/9j/4AAQSkZJRgABAQIAOwA7AAD/2wBDAAYEBQYFBAYGBQYHBwYIChAKCgkJChQODwwQFxQYGBcUFhYaHSUfGhsjHBYWICwgIyYnKSopGR8tMC0oMCUoKSj/2wBDAQcHBwoIChMKChMoGhYaKCgoKCgoKCgoKCgoKCgoKCgoKCgoKCgoKCgoKCgoKCgoKCgoKCgoKCgoKCgoKCgoKCj/wAARCALFA14DASIAAhEBAxEB/8QAHAABAQEBAQEBAQEAAAAAAAAAAAYHBQQDCAIB/8QAXxAAAQIEAQUKCQcJBwIDAw0AAAECAwQFBhEHEhYhlRMUF1VWdZOU0tMVIjE2U1SSs7Q1N0FRUnSRCDI0YWay0eLjIyZCRnGBozO1JCU4YoKhGCdXY2RydpakscLE1P/EABoBAQACAwEAAAAAAAAAAAAAAAABAgMEBQb/xAA0EQEAAQEGBAIJBAMBAQAAAAAAAQIDERIUUVIEEzGRFTIFITNBYWJxofCBscHRNELhBiL/2gAMAwEAAhEDEQA/AP1SAAAAAAAAAAAAAAAAAAAAAAAAAAAAAAAAAAAAAAAAAAAAAAAAAAAAAAAAAAAAAAAAAAAAAAAAAAAAAAAAAAAAAAAAAAAAAAAAAAAAAAAAAAAAAAAAAAAAAAAAAAAAAAAAAAAAAAAAAAAAAAAAAAAAAAzz8oKs1G3skdbq1Fm4knUJR8tEgxoa62rvmF9C6lRUVUVFxRUVUVFRSXt+k5RanZtNuGbysw5CWmpCFPxd1oErmQGuho9c56qiYNRVxcuHkx1Adj8nrKDW8o9rVGq12TpsvuE6srCWSV7c7BjXOzmOVcMM5MFRy44qmCZuLtTPy9+TnZV7RsmkCo0C+odBp9QmY0dkoylQptVVF3JXudEwVFVYf5qYpgiLjiqolLk3q14N/KGuC1bju2Zq8pTaYyOubKQZeHGdhDVuLEaubhvh2KtVFcrWYqqIjQNorlxUSgbh4drFNpm7525b9mmQd0zcMc3OVMcMUxw+tCfq2VGyadS5yd0ook1vaC+NuEtUID4sXNaq5jG5/jOXDBE+lVQqp+nSVR3v4Qk5aa3tGbMwN3hNfuUVuObEbiniuTFcHJrTEwfLnXqhlAuGLkitKXiwqgr2TFUnJpuEs2A2G2MxuLWvciK50NM7BuDka3WjgKTJFllp1y2bCqN51S26JVHRojEgeEYUPdIaLqfub3q6H9KYOVVXNzk1OQ612ZbbDtreG7V2WqG+4yQv/LIjJrcG/TEiZjvFamKfW5f8LVwXDl0m5MoVJpcnTqfkh3GTk4LJeBD0ml3ZkNjUa1MVRVXBETWq4nPydZYrkve7oclKWLEZRID4svPVCXnmTEOFERWIiti4NhvRMcVa1XOc1yObijcHBqdduii0K2X3FUp+GyisZDib7hI6MxWRHNaxzcxFVyKrm4KmPlx8hjl2flH27I3HbUK3ZuWqVGmY74dXixJeYhxJaH4iMezFqY4YvcqI1yqjcPFVcTWcpUzHk8nN1TMpGiQJmDSpuJCiwnK18N6QXKjmqmtFRURUVD8Zzt1b8lckc5XrqrcaelZyNNTkWag7o6Shb6ajYsJ7oSrG1Q3eVYqIsPNwTDNA/Rs7l+tKao12xbfm4sWbo1PWbgRJiUiJAmXOzWMRqJg7BIsSGx2cjPzsU1Irk6tmZWKFHsOn1W77mteWqsSVWampaSnEXc0XFyMSGrliZ6MzUVutc7FEx1GQ0qhXjlSp91UJKxV49Ah12oLEm6pGSCufChpvWBuaNR7UWI9r4kN0NGNSG3MRjkVF+VCp1Eyo5RrKk6fZktSoFCgvmbnbLSDJVjJpFVEl4sNzcFbukHU1Vc5WRHJg1WvwD9Lyl1UGatiDcUKryTaFFY2I2eixUhwkRVzUznOwzVzvFVFwVHalTHUcWqZVLDpkhFnJm7qI+DDwzmy02yYiLiqJqhw1c5fL9CLgmvyIp39HaJ4D8C+B6b4G9Q3qze/52f8A9PDN/O8byeXX5TEa9RbGt/LxOPrVGoEnbsraG/I0OJIwtwbE35m5+Zm4K9UVGpgiuXFETHHADRKblXtypVefkJODW5jekGVmN3lqVMTMOLDmISRYapuTHOb4qpqe1q444Y4Lh8ajlct2HQK3UaXDq1QfSmR0iw20idYxsaE1XOhRIiwc2EqakVXfm44qZva0vcUrldyhw8ksGz4NKWHS4jmzbYjYKsfLK5joKQPFwXOeqr9OKKnlUmqLwh8H+Vre2ifg3wnV/C+6b43XddyTd974as3N/Mz9ePlA/TtrVyVuW3KdWpCHMw5Wegtjw2TMJYURGqn0tX/90xRU1oqoqKq6X1eFbtRi22yWiVmHBc+VhTLFdDixETFGL47MM7DNxzkRFXFcUTBeBk+k/CORm2pLfMzK75oEtB3eVfmRYWdLtTPY7/C5McUX6FRDEqzCgUu8K5bzKzluq0zS3wUfFo9QSaZmRYLYjVd4rVYuKvTDXjmY461RA3HJZflPyi2lBrdMhRYDkesCZlomtYEZqIrmZ2GDkwc1UcnlRUxRFxRODk2yi1G977uuUkqZDfaFNekCUq7HYbrGbgj2Yo5zYiOxc9rm4YNRucmL0MsyU2vKXLdF00mnVLKpbrJJ8KbmIk1VocvFjRo6YqsaCjM5r3ZuKO8fOa3FVb4qLxZmRo8rkFql2ZOLyv6Vl6ZGbLskJmo7jDgxHR4aParIbUTWkXPxa7DF2vXigH61lpmBNQ1iS0aHGho98NXQ3I5Eexytc3FPpRzVRU+hUVPoPqZ5kXydymT+gRGScWrQ31FkGYmZCem2TDJWNm+OjFYxrVXXmq5E8bMb9RoYAAAAAAAAAAAAAAAAAAAAAAAAAAAAAAAAAAAAAAAAAAAAAAAAAAAAAAAAAAAAAAAAAAAAAAAAAAAAAAAAAAAAAAAAAAAAAAAAAAAAAAAAAAAAAAAAAAAZZ+VD8xVz/wCkt8TCIetXJUKzkzs7JvYrocxctVocoyouVmdDkJJ0s1Huiv8AIxXI5qJqVc12pEc6HjcflQ/MVc/+kt8TCKDI3TpGnZL7X8HyctK75psrMx9whNZusV0BmdEdgnjOXBMXLrXADMMoNFqOROUpN02BukS35FkOWrlKjzObCmUwhwmTCMREa2M7NajojUxzs1c1UWJj5cltVgV38qa6KvKMiMlp+3JWahNioiPRkSFJORHIiqmOCpjgqmx5QLhh0GlsSatitXDJTmfLxoFMk2TeDVbrSJDVyKrXJnJjgqasFwxTHDMglZkbt/KFuu4Lcp0zKUFaNCloTHwGw2wM1JdjYaoxVa3Hcn5rUXyNX6lwDZMpV7x7chw6VbdNiVu7p1mdJ06C1XJDarkZu8dU/wCnBRyomcqpiurFEznN/PmTZank7y+3itZlalc9UbTEjzy0aWa+I6LHfLRXubDVzcWo+Jh4qY4a81qY5v62bLwGzUSZbBhpMxGNhvio1M9zWq5WtVfKqIr3qifRnL9amEWb/wCsW++ZoX7kmBysvWUnw9knrtNSzL1pm77h/wCLqNL3GBDzY8N3jPz1wxwwTV5VRCgpWUfROzpOj2rkuv6NvCCyDAhTNJ3u2JgqZz3vYjsHL4zlVGa3KvkxxTx/lP3/AG6uTu4LVfNzMGvR9x3GVjyMxC3VGTLFVzXuYjXN8R+DkXBcNSqb6BIz1wV6o0GmzNo2/EdN1Bj1Va0qyTKeqNXDd4eCxHLn4NRrGqi61z0TBy/l67rZmYl8UCqRLPv6tz8vU98XFNVOlJEbOta6Em5wWQ1dC3LBkVGtxwwciZzmomH7FqlRkaTIxZ2qzktJSULDdJiZithQ2YqiJi5yoiYqqJ/qqGL37ettTeV3JtGlLspvg2D4RSejStWayG1NzhvhtjOY9EzXRIbfFcuDlbgqL5AMjs28bkocjXcnVCkrtkIDY0xMwYjKY6cqkpLRFhbmxIO6Q0g6lc5z0x8aKitRqrnHunaTVJW7aLP5JrayhUK4Jp6Ss/VK7LOdAi564Oix0VsTOVznZ73Lg1uYiozHWnrmY9u3F+Uzds1GviJQqVEp8J0GqUurQ5ZIz0hy7VhpGXFrk/OVWp9LP1Fo2t2Fkymot0tylV+5pl7Gyb5BKtAqL5hmLlaitwRURiue5HZzcMVTHx1a4Ndg0ObrtpR6VlAZSam6cYjZmDJy8SFARFRFzUz3ucqtciqkRM1fzVRGqhmCWXa3/wApBaZo1RPBuie+d6bwhbluu/M3dMzNwzs3VnYY4ajQLoqlTubJjM1PJdUpaJUpmC2NTpnxVa/B6K5mD0VEcrUezByJg5cFzcFVIB2SqmSSxr3yy1iZuipSkBj42Eu7eksxmauDYEJuL2tcj1VVRGK1znOYmtQOrZVgth3ZdFw2lcUtS7arG9d4st1sq+G7cWOZEzkfBexPHzsMxfKrs7X5Iq06FHmrGytQpi85mly7q/VZKJEnFlIUtGe9rWI+O90FVbnuciLmK1Psointfdn5PkWuxqvHbTY87Fgsl1SPTJqJCbDY1jGI2E6GsNmDWNRFa1FRE/WuMpkyurI9Ipdek8rRXb4uCbj0/d6K6NhJuzdyRv8AZLmN1OwZqw+pAP0vZMjAplmUGQlJ2HPy0rT5eBCm4WGZHY2G1qRG4KqYOREVMFXy+VTB6lMTcDLrlH3nlFptlZyU3O35Ly8Xff8A4bVm7s5MMzXjh9tMfoNJyH3/AG1e1CnIFq0taPBpkZYayCQGwmshvc9Yb2oxM1M9EcqomtHZya0wc6aodEoNVy15Wpi4qNJVSHJw6XEYkxIpNPYm9XK7MZmucqrmpqamK4ImC6gPjkBiRYuUrKa+YuOWuaKqUvGqy0OHDhzH9jE8jYaq1M383UvlauOvEyK0P/RxfXPLP35M13IDP2/U8pWU2cs1ksygxPBiSzZaWWXhphBiI/CGrW4eOjvoTFdf0mMXHWKbYOSG5cmk3J3I2tVGcbOQ4s/TocrDwSJCRcFbGiZ7f7B2D24oq+TVrA/bQAAAAAAAAAAAAAAAAAAAAAAAAAAAAAAAAAAAAAAAAAAAAAAAAAAAAAAAAAAAAAAAAAAAAAAAAAAAAAAAAAAAAAAAAAAAAAAAAAAAAAAAAAAAAAAAAAAAADwV2j0+v0x9OrMpCnJGI+HEfAipix6se17c5PpTOa1VRdS+RUVFVD3gADyyFOkadvnwfJy0rvmM6Zj7hCazdYrvzojsE8Zy4Ji5da4HqAA8svTpGWnpudlpOWgzk5mb5jw4TWxI+YmDM9yJi7NTUmPkTyHqAHln6dI1He3hCTlpre0ZszA3eE1+5RW45sRuKeK5MVwcmtMT1AAAAAAAAAAAAAPLL06Slp6bnZaTloM5OZm+Y8OE1sSPmJgzPciYuzU1Jj5E8h6gB5ZCnSVO3z4Pk5aV3zGdMx9whNZusV2GdEdgnjOXBMXLrXA+VRotLqc1JTNSpslOTMk/dJWLMQGRHwH4oucxVRVauLWrimHkT6j3gAAAAAAAAAAAAAAAAAAAAAAAAAAAAAAAAAAAAAAAAAAAAAAAAAAAAAAAAAAAAAAAAAAAAAAAAAAAAAAAAAAAAAAAAAAAAAAAAAAAAAAAAAAAAAAAAAAAB5apUZOkyMSdqc1BlZSHhnxozka1uKo1Na/WqoifrVD1EvlH83pTnilf9wlwHCDaXKGndMg4QbS5Q07pkKgAS/CDaXKGndMg4QbS5Q07pkKgAS/CDaXKGndMg4QbS5Q07pkKgAS/CDaXKGndMg4QbS5Q07pkKgAS/CDaXKGndMg4QbS5Q07pkKgAS/CDaXKGndMg4QbS5Q07pkKgAS/CDaXKGndMg4QbS5Q07pkKgAS/CDaXKGndMg4QbS5Q07pkKgASzsodoMarn3FTWtRMVVYyIiIfPhJsvlPSesNPrlU+bC7+Z5z3DzBTd4Pg8zi9d1zV4nieRd6r7268JNl8p6T1ho4SbL5T0nrDTCgb3hEb/t/1q+Izt+7deEmy+U9J6w0cJNl8p6T1hphQHhEb/t/08Rnb9268JNl8p6T1ho4SbL5T0nrDTCgPCI3/AG/6eIzt+7deEmy+U9J6w0cJNl8p6T1hphQHhEb/ALf9PEZ2/duvCTZfKek9YaOEmy+U9J6w0woDwiN/2/6eIzt+7deEmy+U9J6w0cJNl8p6T1hphQHhEb/t/wBPEZ2/duvCTZfKek9YaOEmy+U9J6w0woDwiN/2/wCniM7fu3XhJsvlPSesNP8AFylWWiKq3PSURP8A7Q0ws5d1ebFY+5xv3FK1eiYpiZx/b/qafSEzMRh+79HcINpcoad0yDhBtLlDTumQqAcZ00vwg2lyhp3TIOEG0uUNO6ZCoAEvwg2lyhp3TIOEG0uUNO6ZCoAEvwg2lyhp3TIOEG0uUNO6ZCoAEvwg2lyhp3TIOEG0uUNO6ZCoAEvwg2lyhp3TIOEG0uUNO6ZCoAEvwg2lyhp3TIOEG0uUNO6ZCoAEvwg2lyhp3TIOEG0uUNO6ZCoAEvwg2lyhp3TIfw3KNZzmo5tyUtWqmKKkdNZVmM5PfMG2ubJb3TTBb23KiJuvRM3LzhEs/lHTOnQcIln8o6Z06HDBr535VcbucIln8o6Z06DhEs/lHTOnQ4YGd+Uxu5wiWfyjpnToOESz+UdM6dDhgZ35TG7nCJZ/KOmdOg4RLP5R0zp0OGBnflMbucIln8o6Z06DhEs/lHTOnQ4YGd+Uxu5wiWfyjpnToOESz+UdM6dDhgZ35TG7nCJZ/KOmdOg4RLP5R0zp0OGBnflMbucIln8o6Z06DhEs/lHTOnQ4YGd+Uxu23KNZzkxbclLVMcNUdD/eESz+UdM6dCDsf5Fmec6h8ZGKAmeNum7CYnc4RLP5R0zp0HCJZ/KOmdOhwwRnflMbucIln8o6Z06DhEs/lHTOnQ4YGd+Uxu5wiWfyjpnToOESz+UdM6dDhgZ35TG7nCJZ/KOmdOg4RLP5R0zp0OGBnflMbucIln8o6Z06DhEs/lHTOnQ4YGd+Uxu5wiWfyjpnToOESz+UdM6dDhgZ35TG7nCJZ/KOmdOg4RLP5R0zp0OGBnflMbucIln8o6Z06H+JlGs5VVEuSlqqLgv9umo4hP218tXZzmz4OWJjjL/cYl5wiWfyjpnToOESz+UdM6dDhgjO/KY3c4RLP5R0zp0HCJZ/KOmdOhwwM78pjdzhEs/lHTOnQcIln8o6Z06HDAzvymN3OESz+UdM6dBwiWfyjpnTocMDO/KY3c4RLP5R0zp0HCJZ/KOmdOhwwM78pjdzhEs/lHTOnQcIln8o6Z06HDAzvymN3OESz+UdM6dBwiWfyjpnTocMDO/KY3c4RLP5R0zp0HCJZ/KOmdOhwwM78pjWVCuGkV9sd1EqUrPJAVGxdwiI7MVUxRFw8mJ1CFyW/pF4c8N+BlC6N2irFTFWq8AALAS+UfzelOeKV/3CXKgl8o/m9Kc8Ur/uEuBUAAAAAAAAAAAAAAAAAAAAAJfKp82F38zznuHmCm9ZVPmwu/mec9w8wU7Xoj/f9P5cz0l/r+v8AAOy5YAAAAAAAAAAAAAAAAcu6vNisfc437inUOXdXmxWPucb9xSlp5J+i9Hmh+tgAePekAAAAAAAAAAAAAAAAAAAMZye+YNtc2S3ummzGM5PfMG2ubJb3TTS43ywpWoAAc5QAAAAAAAAAAAAAAAAAAE/Y/yLM851D4yMUBP2P8izPOdQ+MjFAWr80pAAVQAAAAAAAAAAAAAAAAE/bXy1dnObPg5YoCftr5auznNnwcsWjpKVAACqAAAAAAAAAAAAAAAAAAAezJb+kXhzw34GULohclv6ReHPDfgZQujtWXkp+kMsdAAGRIS+UfzelOeKV/3CXKgl8o/m9Kc8Ur/uEuBUAAAAAAAAAAAAAAAAAAAAAJfKp82F38zznuHmCm9ZVPmwu/mec9w8wU7Xoj/f9P5cz0l/r+v8AAOy5YAAAAAAAAAAAAAAAAcu6vNisfc437inUOXdXmxWPucb9xSlp5J+i9Hmh+tgAePekAAAAAAAAAAAAAAAAAAAMZye+YNtc2S3ummzGM5PfMG2ubJb3TTS43ywpWoAAc5QAAAAAAAAAAAAAAAAAAE/Y/yLM851D4yMUBP2P8izPOdQ+MjFAWr80pAAVQAAAAAAAAAAAAAAAAE/bXy1dnObPg5YoCftr5auznNnwcsWjpKVAACqAAAAAAAAAAAAAAAAAAAezJb+kXhzw34GULohclv6ReHPDfgZQujtWXkp+kMsdAAGRIS+UfzelOeKV/3CXKgjcrkJsey1gxM7MiVKmsdmOVq4LPQE1KmCov601gWQMv0Vpn26ntOZ7waK0z7dT2nM94BqAMv0Vpn26ntOZ7waK0z7dT2nM94BqAMv0Vpn26ntOZ7waK0z7dT2nM94BqAMv0Vpn26ntOZ7waK0z7dT2nM94BqAMv0Vpn26ntOZ7waK0z7dT2nM94BqAMv0Vpn26ntOZ7waK0z7dT2nM94BqAMv0Vpn26ntOZ7waK0z7dT2nM94BqAMv0Vpn26ntOZ7waK0z7dT2nM94BUZVPmwu/mec9w8wUtL/tqnwLEuSNDdUM+HTZl7c+ozDkxSE5daK9UVP1LqLfgqs3iqJ12Y7ZvcFxccNivi++5qcVw029103XMUBtfBVZvFUTrsx2xwVWbxVE67Mds3vF6drV8Oq3MUBtfBVZvFUTrsx2xwVWbxVE67MdseL07Tw6rcxQG18FVm8VROuzHbHBVZvFUTrsx2x4vTtPDqtzFAbXwVWbxVE67MdscFVm8VROuzHbHi9O08Oq3MUBtfBVZvFUTrsx2xwVWbxVE67MdseL07Tw6rcxQG18FVm8VROuzHbHBVZvFUTrsx2x4vTtPDqtzFAbXwVWbxVE67MdscFVm8VROuzHbHi9O08Oq3MUOXdXmxWPucb9xTf+CqzeKonXZjtk7lFya2pIZPrnnJWmRGTEvS5qLDcs5HdmubCcqLgr8F1p5FK1elaaqZjCmn0fVExOJrIPyxucXjCrbRmO2Nzi8YVbaMx2zD4Ta6x9/6ZfELPSX6nB+WNzi8YVbaMx2xucXjCrbRmO2PCbXWPv8A0eIWekv1OD8sbnF4wq20Zjtjc4vGFW2jMdseE2usff8Ao8Qs9JfqcH5Y3OLxhVtozHbG5xeMKttGY7Y8JtdY+/8AR4hZ6S/U4PyxucXjCrbRmO2Nzi8YVbaMx2x4Ta6x9/6PELPSX6nB+WNzi8YVbaMx2xucXjCrbRmO2PCbXWPv/R4hZ6S/U4PyxucXjCrbRmO2Nzi8YVbaMx2x4Ta6x9/6PELPSX6nB+WNzi8YVbaMx2xucXjCrbRmO2PCbXWPv/R4hZ6S/U5jOT3zBtrmyW900z7c4vGFW2jMdsprGtalzFk2/GisnN0iU6Xe7Nno7UxWG1VwRH4J/ohyfSvCVcPTTjnrf0ZbLiKbe/D7l2Cf0RpH2J3aEx2xojSPsTu0JjtnFup1ZVACf0RpH2J3aEx2xojSPsTu0Jjti6nUUAJ/RGkfYndoTHbGiNI+xO7QmO2LqdRQAn9EaR9id2hMdsaI0j7E7tCY7Yup1FACf0RpH2J3aEx2xojSPsTu0Jjti6nUUAJ/RGkfYndoTHbGiNI+xO7QmO2LqdRQAn9EaR9id2hMdsaI0j7E7tCY7Yup1FACf0RpH2J3aEx2xojSPsTu0Jjti6nULH+RZnnOofGRigISzrWpcekzD4jJzOSozzPFno7dTZuK1PI/6kTX9PlXWdvRGkfYndoTHbLVYcUigBP6I0j7E7tCY7Y0RpH2J3aEx2yt1OooAT+iNI+xO7QmO2NEaR9id2hMdsXU6igBP6I0j7E7tCY7Y0RpH2J3aEx2xdTqKAE/ojSPsTu0JjtjRGkfYndoTHbF1OooAT+iNI+xO7QmO2NEaR9id2hMdsXU6igBP6I0j7E7tCY7Y0RpH2J3aEx2xdTqKAE/ojSPsTu0JjtjRGkfYndoTHbF1OooCftr5auznNnwcsNEaR9id2hMds4lv2tS4tWuZj2TmbCqLGNwno6at6S7teD9ety61/08iIWjDdIuwT+iNI+xO7QmO2NEaR9id2hMdsrdTqKAE/ojSPsTu0JjtjRGkfYndoTHbF1OooAT+iNI+xO7QmO2NEaR9id2hMdsXU6igBP6I0j7E7tCY7Y0RpH2J3aEx2xdTqKAE/ojSPsTu0JjtjRGkfYndoTHbF1OooAT+iNI+xO7QmO2NEaR9id2hMdsXU6igBP6I0j7E7tCY7Y0RpH2J3aEx2xdTqKAE/ojSPsTu0JjtjRGkfYndoTHbF1OorMlv6ReHPDfgZQujOsjtOl6fFu9kqkVGpVmMwiRnxNSScs7/Eq68XLr8vkTyImGinYsvJT9GSOgADIkJHKp5pQ+dKZ8fAK4kcqnmlD50pnx8AD5gAAAAAAAAAAAAAAAAAAAAJ3KP83l0c1zXuXGqGV5R/m8ujmua9y41QAAAAAAAAAAAAAAAAAAABL5VPmwu/mec9w8qCXyqfNhd/M857h4GCgA9m8wAAAAAAAAAAAAAAAAAAAXmT3zBtrmyW900gy8ye+YNtc2S3umnmf/AEnls/1/h0eA/wBv0/lQAA8o6AAAAAAAAAAAAAAAAAAAJ+x/kWZ5zqHxkYoCfsf5Fmec6h8ZGKAtX5pSAAqgAAAAAAAAAAAAAAAAJ+2vlq7Oc2fByxQE/bXy1dnObPg5YtHSUqAAFUAAAAAAAAAAAAAAAAAAA9mS39IvDnhvwMoXRC5Lf0i8OeG/AyhdHasvJT9IZY6AAMiQkcqnmlD50pnx8AriRyqeaUPnSmfHwAPmAAAAAAAAAAAAAAAAAAAAAnco/wA3l0c1zXuXGqGV5R/m8ujmua9y41QAAAAAAAAAAAAAAAAAAABL5VPmwu/mec9w8qCXyqfNhd/M857h4GCgA9m8wAAAAAAAAAAAAAAAAAAAXmT3zBtrmyW900gy8ye+YNtc2S3umnmf/SeWz/X+HR4D/b9P5UAAPKOgAAAAAAAAAAAAAAAAAACfsf5Fmec6h8ZGKAn7H+RZnnOofGRigLV+aUgAKoAAAAAAAAAAAAAAAACftr5auznNnwcsUBP218tXZzmz4OWLR0lKgABVAAAAAAAAAAAAAAAAAAAPZkt/SLw54b8DKF0QuS39IvDnhvwMoXR2rLyU/SGWOgADIkJHKp5pQ+dKZ8fAK4kMq0KLMWgyDAitgxolUpjGRHMz0Y5Z+AiKrcUxwX6MUxA/gHw0TuTlPJbJXvhoncnKeS2SvfAfcHw0TuTlPJbJXvhoncnKeS2SvfAfcHw0TuTlPJbJXvhoncnKeS2SvfAfcHw0TuTlPJbJXvhoncnKeS2SvfAfcHw0TuTlPJbJXvhoncnKeS2SvfAfcHw0TuTlPJbJXvhoncnKeS2SvfAfcHw0TuTlPJbJXvhoncnKeS2SvfAfcHw0TuTlPJbJXvhoncnKeS2SvfAcTKP83l0c1zXuXGqGSZRbZr8vk+ueNHuKTjQYdLmnvhtpmYr2pCcqojt1XDFPpwXA7G73fx/TNlL3wGhgzzd7v4/pmyl74bvd/H9M2UvfAaGDPN3u/j+mbKXvhu938f0zZS98BoYM83e7+P6Zspe+G73fx/TNlL3wGhgzzd7v4/pmyl74bvd/H9M2UvfAaGDPN3u/j+mbKXvhu938f0zZS98BoYM83e7+P6Zspe+G73fx/TNlL3wGhgzzd7v4/pmyl74bvd/H9M2UvfAaGS+VT5sLv5nnPcPOJu938f0zZS98T+UKPdK2BcyTVbp8WXWmTO6MZTVYrm7k7FEduq4KqfTgoEACn4Oqlyig7P8A6g4Oqlyig7P/AKh6PxSw+Li5C1+CYBT8HVS5RQdn/wBQcHVS5RQdn/1B4pYfEyFr8EwCn4Oqlyig7P8A6g4Oqlyig7P/AKg8UsPiZC1+CYBT8HVS5RQdn/1BwdVLlFB2f/UHilh8TIWvwTAKfg6qXKKDs/8AqDg6qXKKDs/+oPFLD4mQtfgmAU/B1UuUUHZ/9QcHVS5RQdn/ANQeKWHxMha/BMAp+DqpcooOz/6g4Oqlyig7P/qDxSw+JkLX4JgFPwdVLlFB2f8A1BwdVLlFB2f/AFB4pYfEyFr8EwXmT3zBtrmyW9005XB1UuUUHZ/9Q+NjSVffZNvugVqThwVp0urGOp6uVrdzbgiruiY6vpwQ4PpzibPiKaMHuv8A4bfC8PVY34veuwT+8Lj4+ktmr3o3hcfH0ls1e9PPXRq2lACf3hcfH0ls1e9G8Lj4+ktmr3oujUUAJ/eFx8fSWzV70bwuPj6S2avei6NRQAn94XHx9JbNXvRvC4+PpLZq96Lo1FACf3hcfH0ls1e9G8Lj4+ktmr3oujUUAJ/eFx8fSWzV70bwuPj6S2avei6NRQAn94XHx9JbNXvRvC4+PpLZq96Lo1FACf3hcfH0ls1e9G8Lj4+ktmr3oujULH+RZnnOofGRigISzpKvupMwsGtScNvhGeRUdT1di5JuKjlx3RPKuK4fRjhr8p294XHx9JbNXvS1URin1igBP7wuPj6S2avejeFx8fSWzV70rdGooAT+8Lj4+ktmr3o3hcfH0ls1e9F0aigBP7wuPj6S2avejeFx8fSWzV70XRqKAE/vC4+PpLZq96N4XHx9JbNXvRdGooAT+8Lj4+ktmr3o3hcfH0ls1e9F0aigBP7wuPj6S2avejeFx8fSWzV70XRqKAE/vC4+PpLZq96N4XHx9JbNXvRdGooCftr5auznNnwcsN4XHx9JbNXvTiW/JV91WuZIdak2ubUWJEVaeq57t6S64om6atSomGvyY/TgloiLp9YuwT+8Lj4+ktmr3o3hcfH0ls1e9K3RqKAE/vC4+PpLZq96N4XHx9JbNXvRdGooAT+8Lj4+ktmr3o3hcfH0ls1e9F0aigBP7wuPj6S2avejeFx8fSWzV70XRqKAE/vC4+PpLZq96N4XHx9JbNXvRdGooAT+8Lj4+ktmr3o3hcfH0ls1e9F0aigBP7wuPj6S2avejeFx8fSWzV70XRqKAE/vC4+PpLZq96N4XHx9JbNXvRdGorMlv6ReHPDfgZQujOsjsKdhRbvSfm4Uy7wsxM6HA3Lxt5y2K4Zy6sFamH/sqv04Jop2LLyU/RkjoAAyJCXyj+b0pzxSv+4S5UEvlH83pTnilf8AcJcCoAAAAAAAAAAAAAAAAAAAAAS+VT5sLv5nnPcPPKerKp82F38zznuHnlAAAAAAAAAAAAAAAAAAAATuUf5vLo5rmvcuKInco/zeXRzXNe5cBRAAAAAAAAAAAAAAAAAAAAABF5PfMG2ubJb3TS0IvJ75g21zZLe6aaXG+WFK1AADnKAAAAAAAAAAAAAAAAAAAn7H+RZnnOofGRigJ+x/kWZ5zqHxkYoC1fmlIACqAAAAAAAAAAAAAAAAAn7a+Wrs5zZ8HLFAT9tfLV2c5s+Dli0dJSoAAVQAAAAAAAAAAAAAAAAAAD2ZLf0i8OeG/AyhdELkt/SLw54b8DKF0dqy8lP0hljoAAyJCXyj+b0pzxSv+4S5UEvlH83pTnilf9wlwKgAAAAAAAAAAAAAAAAAAAABL5VPmwu/mec9w88p6sqnzYXfzPOe4eeUAAAAAAAAAAAAAAAAAAABO5R/m8ujmua9y4oidyj/ADeXRzXNe5cBRAAAAAAAAAAAAAAAAAAAAABF5PfMG2ubJb3TS0IvJ75g21zZLe6aaXG+WFK1AADnKAAAAAAAAAAAAAAAAAAAn7H+RZnnOofGRigJ+x/kWZ5zqHxkYoC1fmlIACqAAAAAAAAAAAAAAAAAn7a+Wrs5zZ8HLFAT9tfLV2c5s+Dli0dJSoAAVQAAAAAAAAAAAAAAAAAAD2ZLf0i8OeG/AyhdELkt/SLw54b8DKF0dqy8lP0hljoAAyJCXyj+b0pzxSv+4S5UEZlenEp1kunlhPjJLVKmxtzYqI5+bPQFwTHViuH0iIv9UHRZgynhjhcmKt00v3g4Y4XJirdNL94Z8rbbJ7MOYst0d2rAynhjhcmKt00v3g4Y4XJirdNL94MrbbJ7GYst0d2rAynhjhcmKt00v3g4Y4XJirdNL94MrbbJ7GYst0d2rAynhjhcmKt00v3g4Y4XJirdNL94MrbbJ7GYst0d2rAynhjhcmKt00v3g4Y4XJirdNL94MrbbJ7GYst0d2rAynhjhcmKt00v3g4Y4XJirdNL94MrbbJ7GYst0d2rAynhjhcmKt00v3g4Y4XJirdNL94MrbbJ7GYst0d2rAynhjhcmKt00v3g4Y4XJirdNL94MrbbJ7GYst0d1dlU+bC7+Z5z3DzymfX9lXhVGxbjkUt2pwVmabMwd0fFgK1mdCcmK4PxwTH6Ct3a5OSM71yW7wx12ddn6q4uZKa6a/LN7qA5e7XJyRneuS3eDdrk5IzvXJbvCizqA5e7XJyRneuS3eDdrk5IzvXJbvAOoDl7tcnJGd65Ld4N2uTkjO9clu8A6gOXu1yckZ3rkt3g3a5OSM71yW7wDqA5e7XJyRneuS3eDdrk5IzvXJbvAOoDl7tcnJGd65Ld4N2uTkjO9clu8A6gOXu1yckZ3rkt3g3a5OSM71yW7wDqE7lH+by6Oa5r3Lj3btcnJGd65Ld4T+UKLX1sG5Uj2vOQIK0yZz4rpuXcjG7k7FyokRVXBNepMQLQGe8JK8nal00DtjhJXk7Uumgdsz5W22T2YcxZbo7tCBnvCSvJ2pdNA7Y4SV5O1LpoHbGVttk9jMWW6O7QgZ7wkrydqXTQO2OEleTtS6aB2xlbbZPYzFluju0IGe8JK8nal00DtjhJXk7UumgdsZW22T2MxZbo7tCBnvCSvJ2pdNA7Y4SV5O1LpoHbGVttk9jMWW6O7QgZ7wkrydqXTQO2OEleTtS6aB2xlbbZPYzFluju0IGe8JK8nal00DtjhJXk7UumgdsZW22T2MxZbo7tCBnvCSvJ2pdNA7Y4SV5O1LpoHbGVttk9jMWW6O7QiLye+YNtc2S3umnh4SV5O1LpoHbPFY1WqkOybfZCt2cjQ206Xa2I2YgIj0SG3BURX4pj+s5/H2NdFNOOLvr6k8ymvyzeuwT/AIZq/Jid61L9seGavyYnetS/bOZhkuUAJ/wzV+TE71qX7Y8M1fkxO9al+2MMlygBP+GavyYnetS/bHhmr8mJ3rUv2xhkuUAJ/wAM1fkxO9al+2PDNX5MTvWpftjDJcoAT/hmr8mJ3rUv2x4Zq/Jid61L9sYZLlACf8M1fkxO9al+2PDNX5MTvWpftjDJcoAT/hmr8mJ3rUv2x4Zq/Jid61L9sYZLlACf8M1fkxO9al+2PDNX5MTvWpftjDJcWP8AIszznUPjIxQEJZ1WqkOkzCQ7dnIrVqM87ObMQEwVZuKqprf9Cqqf7atR2/DNX5MTvWpftlqqZxSKAE/4Zq/Jid61L9seGavyYnetS/bK4ZLlACf8M1fkxO9al+2PDNX5MTvWpftjDJcoAT/hmr8mJ3rUv2x4Zq/Jid61L9sYZLlACf8ADNX5MTvWpftjwzV+TE71qX7YwyXKAE/4Zq/Jid61L9seGavyYnetS/bGGS5QAn/DNX5MTvWpftjwzV+TE71qX7YwyXKAE/4Zq/Jid61L9seGavyYnetS/bGGS5QE/bXy1dnObPg5YeGavyYnetS/bOJb9Wqjatcyst2ce59RY5zUmICZi70l0wXF+vUiLq+v68S0UzdIuwT/AIZq/Jid61L9seGavyYnetS/bK4ZLlACf8M1fkxO9al+2PDNX5MTvWpftjDJcoAT/hmr8mJ3rUv2x4Zq/Jid61L9sYZLlACf8M1fkxO9al+2PDNX5MTvWpftjDJcoAT/AIZq/Jid61L9seGavyYnetS/bGGS5QAn/DNX5MTvWpftjwzV+TE71qX7YwyXKAE/4Zq/Jid61L9seGavyYnetS/bGGS5QAn/AAzV+TE71qX7Y8M1fkxO9al+2MMlysyW/pF4c8N+BlC6M6yOzMxMxbvWakIsm7wsx2bEex2vecsmHiquvBEX6vGT6UXDRTsWXkp+jJHQABkSEHlx+bad++SHxsAvCDy4/NtO/fJD42AXsvPH1Vr8ssZAB7B5oAAAAAAAAAAAAAAAAAAHLurzYrH3ON+4p+tj8k3V5sVj7nG/cU/Wxw/S3np+jrejvLUAA5DogAAAAAAAAAAAAAAABL5VPmwu/mec9w8qCXyqfNhd/M857h4GCgA9m8wAAAAAAAAAAAAAAAAAAAXmT3zBtrmyW900gy8ye+YNtc2S3umnmf8A0nls/wBf4dHgP9v0/lQAA8o6AAAAAAAAAAAAAAAAAAAJ+x/kWZ5zqHxkYoCfsf5Fmec6h8ZGKAtX5pSAAqgAAAAAAAAAAAAAAAAJ+2vlq7Oc2fByxQE/bXy1dnObPg5YtHSUqAAFUAAAAAAAAAAAAAAAAAAA9mS39IvDnhvwMoXRC5Lf0i8OeG/AyhdHasvJT9IZY6AAMiQg8uPzbTv3yQ+NgF4QeXH5tp375IfGwC9l54+qtflljIAPYPNAAAAAAAAAAAAAAAAAAA5d1ebFY+5xv3FP1sfkm6vNisfc437in62OH6W89P0db0d5agAHIdEAAAAAAAAAAAAAAAAJfKp82F38zznuHlQS+VT5sLv5nnPcPAwUAHs3mAAAAAAAAAAAAAAAAAAAC8ye+YNtc2S3umkGXmT3zBtrmyW9008z/wCk8tn+v8OjwH+36fyoAAeUdAAAAAAAAAAAAAAAAAAAE/Y/yLM851D4yMUBP2P8izPOdQ+MjFAWr80pAAVQAAAAAAAAAAAAAAAAE/bXy1dnObPg5YoCftr5auznNnwcsWjpKVAACqAAAAAAAAAAAAAAAAAAAezJb+kXhzw34GULohclv6ReHPDfgZQujtWXkp+kMsdAAGRIQeXH5tp375IfGwC8ILLo5GZM597tTWzUi5y/UiTkFVUvZ+ePqrX5ZY0DweGKf61D/EeGKf61D/E9ZzrPdHd53l16S94PB4Yp/rUP8R4Yp/rUP8RzrPdHc5dekveDweGKf61D/EeGKf61D/Ec6z3R3OXXpL3g8Hhin+tQ/wAR4Yp/rUP8RzrPdHc5dekveDweGKf61D/EeGKf61D/ABHOs90dzl16S94PB4Yp/rUP8R4Yp/rUP8RzrPdHc5dekveDweGKf61D/EeGKf61D/Ec6z3R3OXXpL3g8Hhin+tQ/wAR4Yp/rUP8RzrPdHc5dekvldXmxWPucb9xT9bH48uWqSUW3KrDhzLHPfKRWtanlVVYuCH6b4QbS5Q07pkOL6Vqpqrpwzf6nU9H0zTTN8KgEvwg2lyhp3TIOEG0uUNO6ZDlOgqAS/CDaXKGndMg4QbS5Q07pkAqAS/CDaXKGndMg4QbS5Q07pkAqAS/CDaXKGndMg4QbS5Q07pkAqAS/CDaXKGndMg4QbS5Q07pkAqAS/CDaXKGndMg4QbS5Q07pkAqAS/CDaXKGndMg4QbS5Q07pkAqCXyqfNhd/M857h44QbS5Q07pkJzKRfFsTmTu6ZWVrkhGmI9KmocOGyKiue50FyIiJ9aqoGUA8Hhin+tQ/xHhin+tQ/xPX86z3R3eb5dekveDweGKf61D/EeGKf61D/Ec6z3R3OXXpL3g8Hhin+tQ/xHhin+tQ/xHOs90dzl16S94PB4Yp/rUP8AEeGKf61D/Ec6z3R3OXXpL3g8Hhin+tQ/xHhin+tQ/wARzrPdHc5dekveDweGKf61D/EeGKf61D/Ec6z3R3OXXpL3g8Hhin+tQ/xHhin+tQ/xHOs90dzl16S94PB4Yp/rUP8AEeGKf61D/Ec6z3R3OXXpL3l5k98wba5slvdNM08MU/1qH+JZWNdFDlrJt+BMVSVhxoVPl2PY5+CtckNqKi/7nnP/AEMxXTZ4PX1/h0OBpqjFfGn8rkHB0vt/jeT9saX2/wAbyftnmMFWjfud4HB0vt/jeT9saX2/xvJ+2MFWhc7wODpfb/G8n7Y0vt/jeT9sYKtC53gcHS+3+N5P2xpfb/G8n7YwVaFzvA4Ol9v8byftjS+3+N5P2xgq0LneBwdL7f43k/bGl9v8byftjBVoXO8Dg6X2/wAbyftjS+3+N5P2xgq0LneBwdL7f43k/bGl9v8AG8n7YwVaFz+bH+RZnnOofGRigIaz7oocvSZhkeqSrHrUJ56I5+Hium4rmr/uiov+529L7f43k/bJqoqxT6i53gcHS+3+N5P2xpfb/G8n7ZGCrQud4HB0vt/jeT9saX2/xvJ+2MFWhc7wODpfb/G8n7Y0vt/jeT9sYKtC53gcHS+3+N5P2xpfb/G8n7YwVaFzvA4Ol9v8byftjS+3+N5P2xgq0LneBwdL7f43k/bGl9v8byftjBVoXO8Dg6X2/wAbyftjS+3+N5P2xgq0LneJ+2vlq7Oc2fByx/Wl9v8AG8n7ZxLfuihwqtcz4lUlWsjVBj4aq/8AObvSXbin+7VT/YmKKrp9RcuQcHS+3+N5P2xpfb/G8n7ZGCrQud4HB0vt/jeT9saX2/xvJ+2MFWhc7wODpfb/ABvJ+2NL7f43k/bGCrQud4HB0vt/jeT9saX2/wAbyftjBVoXO8Dg6X2/xvJ+2NL7f43k/bGCrQud4HB0vt/jeT9saX2/xvJ+2MFWhc7wODpfb/G8n7Y0vt/jeT9sYKtC53gcHS+3+N5P2xpfb/G8n7YwVaFyqyW/pF4c8N+BlC6M7yPVGTqEW73yUzCjtWrMeisdj4qycs1F/wBMWOT/AN1TRDsWXkj6MkdAAF0gAAAAAAAAAAAAAAAAAAAAAAAAAAAAAAAAAAAAAAAAAAAAAAAAAAAAAAAAAAAAAAAAAAAAAAAAAAAAAAAAAAAAAAAAAAAAAAAAAAAAAAAAAAAAAAAAAAAAAAAAAAAAAAAAAAAAAAAAAAAAAAAAAAAAAAAAAAAAAAAAAAAAAAAAAAAAAAAAAAAAAAAAAAAAAAAAAAAAAAAAAAAAAAAAAAAAAAAAAAAAAAAAAAAAAAAAAAAAAAAAAAAAAAAAAAAAAAAAAAAAAAAAAAAAAAAAAAAAAAAAAAAAAAAAAAA8FarVLoUqyZrdSkqdLPekNsWbjsgsc9UVUaiuVExwRVw/Up7wAAAA8s/UZGnb28ITktK75jNloG7xWs3WK7HNhtxXxnLguDU1rgeoAAAAPLIVGSqO+fB85LTW9ozpaPuEVr9yitwzobsF8VyYpi1daYnyqNapdMmpKWqVSkpOZnX7nKwpiOyG+O/FEzWIqorlxc1MEx8qfWB7wAAAAAAAAAAAAAAAAAAAAAAAAAAAAAAAAAAAAAAAAAAAAAAAAAAAAAAAAAAAAAAAAAAAAAAAAAAAAAAAAAAAAAAAAAAAAAAAAAAAAAAAAAAAAAAAAAAAAAAAAAAAAAAACHvLKpaVl19KRc9QiSEy+WZNw3LLRIrIjHPe3BFYjlRUWGuOKJ+cmGOvC4MDvH/1i2LzLF/dnAIv8p7KfZ962DT6bbVX37OQ6nDmHw96xoeENIUVqri9iJ5XN1Y46zWZXLtktk5WDLSlfhwJaCxIcKFCp0y1kNiJgjWokLBEREwREJ7L1PR7ova0rLt+Skq5NyE0tcqVPiY4IyCzGHCiPwVjEio97MHp5XQ8cEcmNNVr6pF85IL7jUrfMvNSVNnpeckJ2HuUzKxEgxEwiMxXDHBcFxVNSp5WuRAs7GuymXtbktW6GsyslH1JviA6E5HJhnN1pg7BcWq5qubiioirgp4Hy1+xKxUUZVLXlqUj0WSVabMRo7mLjikVN3Y1FbqTFqrneXBvkJr8l/5i7Y/0mfiYp68v98Stk5Oam/fW5VefgvlKfDhxlhxViOTNWIxURVTc0dn46kxRqYorkAyvKTTq/lLyx0jJ/PVamzUlRoK1OoOlpGNAhMcqIrWxYSzGMTU6GiOY9FRI7vJguG57xvblDbewo/8A/sMhyFZMrVvDJFIVW66d4XqVUnJifmJuYiObHWIkR8PDdWK16tVGZytc5UVzlX6sJzKTkvtqLlCpWT6y7XhSE9PyrKhHrcSbmY6Scuj4iP8A7JXK3FdzaiOcuCq9G6lVHIGz2Vbd0Sd21GuT9/Qq7TJ174cWnMkMyDAfDVWZsFUjO3NWORWuTBccFzsXeMk3lyuWsW5dFtS8hd9RosCs4ysKWk6DBqOMVr2osRyucj9aRWIjWNcvirgmK4LcZNMntFydUaJTqA6dfDjP3SNEmph0RYj9fjZupjVwwbi1rcUa3HHDEgvykaTAmZqz6vCqE82t0qaixqbSqdKJMTVQiosN6pDRcUYjEhYuerHtai62quDXBg9tVir0ScyozyXhW6a1J1GT0zJW6sSNNq+LFZnuzlYko7FzlRFcxcXKieM1ELR7rkuDKraNJpNbp1dmrXkoqS87cko6Xgzk54r4jUa3GI6PChRJfOa5Ue18FznIi445XDdc7KblFSvRplsrHqktL3EkrChRHw46zER+6q1G5qta6HFbg2JDRXvh+MqajfspTaK2LI2tkngzMzf8hOxatBmKdFZGWWi5+bMb8mIrlXx0VzXNc5VVWw2u1ZqKHqyf3blWvK95uC/RuSpFuVN0hVEhwIyQ53xlbESE9yOVXMRucmCs1vZnIqLgaTenCH4UhaE6J+DdxTdPC++N13XOdjhuerNzc39eOP6jMPyd7ws60rSS1qvFiWvccB7pioytbesBYsRyM/tGuejWojmqzBmpyIi6nYK92x1yeuWBVIECh0Omz0k+C58Sam6m6W3OIjkTMzGwYirii4oqavFci4eLnBhEpc2Vm7Mns1fDKnQJG3XUmeV0hJrEgR8WMjM3VHqx7mva5EciNiIi5jU8XFVP8rV9x6PkRkqzSMqUWaudlPknLT4sanx37o9YSRGuasFYrlajn45zldqxcq6zl2Il8r+TqyLTkoGiEOh1WHMQY0aKk1FVz46rFRUhq1qswwazFUciuxVFc3M+F7QbPb+TTKvkra3CveDKcrqho7Gg4xM6Dnu30sFGrneN42fg7HUq46wtp2pwZzLZk3gUTKFM15kTwg2Z3CYkn5jEhMibm5IEJqZr1hpjnIq+Ji1WuTE3wwKahWzDy65MdFaD4IxSqbv/AOSRaduv/hkzfz4TM/DxvJjhj9GOvfQMIyG3Rf8AlGyfzk5EuKkSczBmo0ikzEo6xo6rmNekTxYzIeKboiIm5qnipjjipVQbBvOdhx5a48qNWmJGKxEzaVT5enxkcjkVFSM1HORNSoqJhjj5cMUXAshdKorMnEWr3FfV0WvLR666nQm02oOl5d0V0KG5HPRGORqqmOL3KjURqYqmBp/gKyf/AKdLj/8AzfB/gB2ZLIfbtEu2RuyZuq6IlWl5mC5JqeqMNyxnKrYbYb3LDRzkfikPNx1o7N+k2I/PMOzrDue45KhQ8rV2ViqQ8KhKwm11swjXsVcHw37mrUiN8ZcEXPRMVww1n6BlIT4ErBhRY8SYiQ2Na6NFRqPiKiYK5yNRG4r5VwRE+pEA+oAAAAAAAAAAAAAAAAAAAAAAAAAAAAAAAAAAAAAAAAAAAAAAAAAAAAAAAAAAAAAAAAAAAAAAAAAAAAAAAAAAAAAAAAAAAAAAAAAAAAAAAAAAAAAAAAAAH5zynuqjfyrbQW34clEqvgKKkuk9EeyAjlbN63qxFdgnlwRNeGGLccU/RhmVWsSoVP8AKBo15rFhQaVSaTvdEXxnx4z1mGqxEx8VGtiI5XL9aIiLrVodXJ1k9gWnNVKr1KoRK5dNTerp2rzENGPe3HxYbGIqpDhoiN8VF+hPoa1rc7yt5LoklcNfvm3Y8tIyMagVKHWJNivhumXulouD0RMWuxcrFci5qYw0d4zlU3wx3KzkkrNyylTjWrelfkZudf8A2lPm6lFdT3Q3JhEYjURXNRcVXDxm+VqNRFTND3/kv/MXbH+kz8TFOXc+T/edo3nd11znhe8I9AnISxcMJaQasGJjClWKmLW4Ozc5yq53jLqz3Iuh5OLTgWPZNKt2VmYk1DkmORY8RqNWI5z3PcuCeRM5y4JrwTBMV8q+q9qVHrtmV+kSj4bJmfp8xKwnRVVGI+JDc1FcqIq4YqmOCKBhuQzJ2y48kdtVBl2XhR3Phx2ul6XVXQYKqkzFTORio5GqqYIubgi4Y4Yqqr8uDb/5/Eoumd6+bO/N/wDhX/xf6Vmblumb/wBL/Fm4fna8TWMnFlTlqZLKVaz6xEgz0tDdnz0ixmLHuiuiORiRWuaqeMrcXN1prwaq6uLYdg3VS8ptRui77nlq7/5YlLk3w5NsvEWGsRsVyvY1Ea3NciomCuVyOxVW4YAfagZIJSjXbKXJDu68Zypy7Nxzp6fhx0iwccVgvzoeKsVVVcMUwXWmCoip2qzk3odQ8JR5V9SpNXn427xqvT5x8Odx8XFiRVVV3LBrU3L8xMEVGoqIqWZxa1LXFGmmOolUpMnLIxEdDnKbEmXq/FcVRzY8NETDDVmr5F168ED81NycUCp2dlPnpGp3rBi0mPOwp3fVRgvl6jMyyxIjXPRrEdE/wPXPRMFiKjVVUVSfyXLjYlLVeGrHCJ5ufoH/AFX/APS//l/7WcbvI5M7ik6DdlJhXRSVlrlmZubm3OosTPhvmW5r0hrvrBERE1Yo79eJ77Dse6bJtORt6lXNRI0lJ5+5vmaJFdEXPe564q2aRPK5fo8mAHGyC2LQZCUjXQlMr8O4J1+dMJcsFHTcrGwduiw4iwmOVH7ouL0/OTDHBUc1Km/8qto2FNLJ3FUIkKoOlt9QpSFLxIj4zMXIiNVEzEVVY5EznJ+vBNZ5ZS0b1bfkG4Zu/IcWTRiQItHhUt0OVdC+nNRY7lbEVdaRFxVF1a2+IV8xb1ImbilK9Hp0tErMpBfLwJxzEWJDhuXWiL+OC+VEc5EwRzsQxHIzAv8AlMk0lQollyUCSk4cwsWHWIypFqUN7ozll2y6tTclc5Wsz4rs1Guzs16LgMt83dEXIFVodStKk2/T2Nloe9oVV3aLLNbMwkY1sNkBIeGpuCJE1NX60zTVL2oF01aalotr3pEt6GxitjQVpkCbZEXHFHIr8HNXyoutUXVgiYLjDXTkqvi6aFM0avZUN9U2ZzN1g6PwGZ2a9Ht8Zr0VPGai6l+gCuYl+xrtps5HpFnQaTDYsGPhOTEaca16or1hRFgtaieLDVWK3xlZrcmpW0t012Rti3KjW6rEzJKRgujRMFajnYJqa3OVEVzlwaiYpiqon0mWXJksv245CHJ1TKxNLAhxmTDUl6NDl3boxc5i50OI1Vwdg5ExwxRF8qIqUl4WRVLxlaDQrhqUOPbssyHHqsWC58GYqkwxMEhqxuDIcFV/tHYOcuKNRqNwRwH5yve3/AH5JVo7rLb3m6jWWVCP/aZ+6bpDj7m/yqiYwkhakw/WmOJ+qODuyuR9ubMgdk4mW7J7GylW1TqLBqEOnw4VQbNxo74axFRjYUVqI1uKYqrnt8qpqxX6MF8HADkz5Nf/AK+Z7wDk0y3aJSfyn4UKlUemyUKFabpmGyWlWQ2sirN5ixERqJg5WKrc7y4KqeQ2gzezMkVCsq/otw2ym8pOLTFkHyHjxMXrFa9Yu6Peq+RjW5uGGrHE0gAAAAAAAAAAAAAAAAAAAAAAAAAAAAAAAAAAAAAAAAAAAAAAAAAAAAAAAAAAAAAAAAAAAAAAAAAAAAAAAAAAAAAAAAAAAAAAAAAAAAAAAAAAAAAAAAAAAAAAAAAAAAAAAAAAAAAAAAAAAAAAAAAAAAAAAAAAAAAAAAAAAAAAAAAAAAAAAAAAAAAAAAAAAAAAAAAAAAAAAAAAAAAAAAAAAAAAAAAAAAAAAAAAAAAAAAAAAAAAAAAAAAAAAAAAAAAAAAAAABkFUkWVS+Lq37MVBzZeagwoTIc9GhNY3esF2CNY9ETxnOXyeVVNfMr/AM73j9+gfBy5r8VMxZ3wrV0eTRyR9LU9pzPeDRyR9LU9pzPeHZBzOZXrKl8uNo5I+lqe05nvBo5I+lqe05nvDsgcyvWS+XG0ckfS1Pacz3g0ckfS1Pacz3h2QOZXrJfLjaOSPpantOZ7waOSPpantOZ7w7IHMr1kvlxtHJH0tT2nM94NHJH0tT2nM94dkDmV6yXy42jkj6Wp7Tme8Gjkj6Wp7Tme8OyBzK9ZL5cbRyR9LU9pzPeDRyR9LU9pzPeHZA5lesl8uNo5I+lqe05nvBo5I+lqe05nvDsgcyvWS+UbL0eXdeE9JumaostDkJeK1nhKY1PdEjI5fz/pRjfwOzo5I+lqe05nvD4Svn9U+bJX3swUBaq0rv6yXy42jkj6Wp7Tme8Gjkj6Wp7Tme8OyCvMr1kvlxtHJH0tT2nM94NHJH0tT2nM94dkDmV6yXy42jkj6Wp7Tme8Gjkj6Wp7Tme8OyBzK9ZL5cbRyR9LU9pzPeDRyR9LU9pzPeHZA5lesl8uNo5I+lqe05nvBo5I+lqe05nvDsgcyvWS+XG0ckfS1Pacz3g0ckfS1Pacz3h2QOZXrJfLjaOSPpantOZ7waOSPpantOZ7w7IHMr1kvlxtHJH0tT2nM94caXo8u68J6TdM1RZaHIS8VrPCUxqe6JGRy/n/AEoxv4FkT8r5/VPmyV97MFotK7p9cl8vvo5I+lqe05nvBo5I+lqe05nvDsgrzK9ZL5cbRyR9LU9pzPeDRyR9LU9pzPeHZA5lesl8uNo5I+lqe05nvBo5I+lqe05nvDsgcyvWS+XG0ckfS1Pacz3g0ckfS1Pacz3h2QOZXrJfLjaOSPpantOZ7waOSPpantOZ7w7IHMr1kvlxtHJH0tT2nM94NHJH0tT2nM94dkDmV6yXy42jkj6Wp7Tme8Gjkj6Wp7Tme8OyBzK9ZL5cbRyR9LU9pzPeDRyR9LU9pzPeHZA5lesl8syvmS8H1yjQJOdqsKFHgTL4jUqUwucrVg5q63/RnO/E5e5xeMKttGY7Z38pPnJb/wB2nP3oBxT2noazotOEpqriJm+ev1cvi7Sum0uiZfLc4vGFW2jMdsbnF4wq20Zjtn1B1cvZbY7Q1edabp7vlucXjCrbRmO2Nzi8YVbaMx2z6gZey2x2g51punu+W5xeMKttGY7Y3OLxhVtozHbPqBl7LbHaDnWm6e75bnF4wq20Zjtjc4vGFW2jMds+oGXstsdoOdabp7vlucXjCrbRmO2Nzi8YVbaMx2z6gZey2x2g51punu+W5xeMKttGY7Y3OLxhVtozHbPqBl7LbHaDnWm6e75bnF4wq20Zjtjc4vGFW2jMds+oGXstsdoOdabp7vlucXjCrbRmO2c+pvmoM1TGw6lVmtizOY9PCMfxm7lEXD8/60T8DqnLrP6ZRvvi+5ilLSwsojyx7vdGq9FraX+ae737nF4wq20Zjtjc4vGFW2jMds+oL5ey2x2hTnWm6e75bnF4wq20Zjtjc4vGFW2jMds+oGXstsdoOdabp7vlucXjCrbRmO2Nzi8YVbaMx2z6gZey2x2g51punu+W5xeMKttGY7Y3OLxhVtozHbPqBl7LbHaDnWm6e75bnF4wq20Zjtjc4vGFW2jMds+oGXstsdoOdabp7vlucXjCrbRmO2Nzi8YVbaMx2z6gZey2x2g51punu+W5xeMKttGY7Y3OLxhVtozHbPqBl7LbHaDnWm6e75bnF4wq20Zjtjc4vGFW2jMds+oGXstsdoOdabp7uVXHzUvIJEg1KrNfu8BmPhGP5HRWNVPz/qVTobnF4wq20ZjtnguT5Mb95l/fMOoUiwssc/8AzHu90fFebW0wx/8AU9/o+W5xeMKttGY7Y3OLxhVtozHbPqC+XstsdoU51punu+W5xeMKttGY7Y3OLxhVtozHbPqBl7LbHaDnWm6e75bnF4wq20Zjtjc4vGFW2jMds+oGXstsdoOdabp7vlucXjCrbRmO2Nzi8YVbaMx2z6gZey2x2g51punu+W5xeMKttGY7Y3OLxhVtozHbPqBl7LbHaDnWm6e75bnF4wq20Zjtjc4vGFW2jMds+oGXstsdoOdabp7vlucXjCrbRmO2Nzi8YVbaMx2z6gZey2x2g51punu+W5xeMKttGY7Z/sFkZKhTW+EKtmxJ+VhOTwjH1tdHY1yfn/Siqh9BC+UqTzlJ/EQzDxFhZRZVTFMdJ93wZbG1rm0piap6x736iAB5d3gAADK/873j9+gfBy5qhlf+d7x+/QPg5c1uL9mrV0e4AHKYwAAAAAAAAAAAAAAAAAAT8r5/VPmyV97MFAT8r5/VPmyV97MFAWq6pAAVQAAAAAAAAAAAAAAAAE/K+f1T5slfezBQE/K+f1T5slfezBanpKVAACqAAAAAAAAAAAAAAAAAAAZ7lJ85Lf8Au05+9AOKdrKT5yW/92nP3oBxT3XoL/Dp+s/u5PG+0AAddqAAAAAAAAAAAAAAAABy6z+mUb74vuYp1Dl1n9Mo33xfcxSlp07fuvR1dQAF1AAAAAAAAAAAAAAAAAAAcu5Pkxv3mX98w6hy7k+TG/eZf3zDqFI88/SP5Xnyx+v8AALqAAAAAAAAAAAAAAAAAhfKVJ5yk/iIYEL5SpPOUn8RDMPE+xr+k/sy2HtKfrD9RAA8k9EAAAZX/ne8fv0D4OXNUMr/AM73j9+gfBy5rcX7NWro9wAOUxgAAAAAAAAAAAAAAAAAAn5Xz+qfNkr72YKAn5Xz+qfNkr72YKAtV1SAAqgAAAAAAAAAAAAAAAAJ+V8/qnzZK+9mCgJ+V8/qnzZK+9mC1PSUqAAFUAAAAAAAAAAAAAAAAAAAz3KT5yW/92nP3oBxTtZSfOS3/u05+9AOKe69Bf4dP1n93J432gADrtQAAAAAAAAAAAAAAAAOXWf0yjffF9zFOocus/plG++L7mKUtOnb916OrqAAuoAAAAAAAAAAAAAAAAAADl3J8mN+8y/vmHUOXcnyY37zL++YdQpHnn6R/K8+WP1/gABdQAAAAAAAAAAAAAAAAEL5SpPOUn8RDAhfKVJ5yk/iIZh4n2Nf0n9mWw9pT9YfqIAHknogAADF6nLVaNf14Op1Sl5SEk5ARWRJTdVVd5wNeOe38MDaDK/873j9+gfBy5rcVN1mrV0c3eFx8fSWzV70bwuPj6S2avelADmYpUvT+8Lj4+ktmr3o3hcfH0ls1e9KADFJen94XHx9JbNXvRvC4+PpLZq96UAGKS9P7wuPj6S2avejeFx8fSWzV70oAMUl6f3hcfH0ls1e9G8Lj4+ktmr3pQAYpL0/vC4+PpLZq96N4XHx9JbNXvSgAxSXp/eFx8fSWzV70bwuPj6S2avelABikvT+8Lj4+ktmr3o3hcfH0ls1e9KADFJeg5aSr+m1Qalak0jJTpZXP8Hrgrd0j4JhumrBcdeP0/qO5vC4+PpLZq96JXz+qfNkr72YKAtVVN4n94XHx9JbNXvRvC4+PpLZq96UAK4pL0/vC4+PpLZq96N4XHx9JbNXvSgAxSXp/eFx8fSWzV70bwuPj6S2avelABikvT+8Lj4+ktmr3o3hcfH0ls1e9KADFJen94XHx9JbNXvRvC4+PpLZq96UAGKS9P7wuPj6S2avejeFx8fSWzV70oAMUl6f3hcfH0ls1e9G8Lj4+ktmr3pQAYpL0/vC4+PpLZq96cOWkq/ptUGpWpNIyU6WVz/B64K3dI+CYbpqwXHXj9P6i8J+V8/qnzZK+9mC0VTdIbwuPj6S2avejeFx8fSWzV70oAVxSXp/eFx8fSWzV70bwuPj6S2avelABikvT+8Lj4+ktmr3o3hcfH0ls1e9KADFJen94XHx9JbNXvRvC4+PpLZq96UAGKS9P7wuPj6S2avejeFx8fSWzV70oAMUl6f3hcfH0ls1e9G8Lj4+ktmr3pQAYpL0/vC4+PpLZq96N4XHx9JbNXvSgAxSXp/eFx8fSWzV70bwuPj6S2avelABikvZLlAlK0y4KGkxVpWK9ZeazHNklajUzoOKKm6Ljjq/0w/WcnetW4zluqfzldlJ85Lf+7Tn70A4p7b0JTFXCUzOs/u5XGVTFo5e9atxnLdU/nG9atxnLdU/nOoDrcuPj3lq45/Ihy961bjOW6p/ON61bjOW6p/OdQDlx8e8mOfyIcvetW4zluqfzjetW4zluqfznUA5cfHvJjn8iHL3rVuM5bqn843rVuM5bqn851AOXHx7yY5/Ihy961bjOW6p/ON61bjOW6p/OdQDlx8e8mOfyIcvetW4zluqfzjetW4zluqfznUA5cfHvJjn8iHL3rVuM5bqn843rVuM5bqn851AOXHx7yY5/Ihy961bjOW6p/OfSmUGpVq5qDT4tWgw92m3I2I2TxzFSBFXHDP16kVP9zoHUsv5wbW++RPhoxr8VTgsaqomb4+Ms3DzitIif2V3A/UOVMPZv9UcD9Q5Uw9m/wBU2AHAzlvvl18tZbYY/wAD9Q5Uw9m/1RwP1DlTD2b/AFTYAM5b75MtZbYY/wAD9Q5Uw9m/1RwP1DlTD2b/AFTYAM5b75MtZbYY/wAD9Q5Uw9m/1RwP1DlTD2b/AFTYAM5b75MtZbYY/wAD9Q5Uw9m/1RwP1DlTD2b/AFTYAM5b75MtZbYY/wAD9Q5Uw9m/1RwP1DlTD2b/AFTYAM5b75MtZbYY/wAD9Q5Uw9m/1RwP1DlTD2b/AFTYAM5b75MtZbYY/wAD9Q5Uw9m/1RwP1DlTD2b/AFTYAM5b75MtZbYYHeeSuekaIyM+5IcVFnZOFmpT83W+ZhMRcd0XyZ2OH04YHc4H6hyph7N/qlxlJ82IfOVO+NgFQRm7brilOXsumGGP8D9Q5Uw9m/1RwP1DlTD2b/VNgBOct98oy1lthj/A/UOVMPZv9UcD9Q5Uw9m/1TYAM5b75MtZbYY/wP1DlTD2b/VHA/UOVMPZv9U2ADOW++TLWW2GP8D9Q5Uw9m/1RwP1DlTD2b/VNgAzlvvky1lthj/A/UOVMPZv9UcD9Q5Uw9m/1TYAM5b75MtZbYY/wP1DlTD2b/VHA/UOVMPZv9U2ADOW++TLWW2GP8D9Q5Uw9m/1RwP1DlTD2b/VNgAzlvvky1lthj/A/UOVMPZv9U5VyZNajQ5KUqLbihRnQahJI1i0/NTF01Cair/afQq44fThhqN1JfKT5sQ+cqd8bAIq4q2qi6apuTHD2cTfFKoABrswAABlf+d7x+/QPg5c1Qyv/O94/foHwcua3F+zVq6PcADlMYAAAAAAAAAAAAAAAAAAJ+V8/qnzZK+9mCgJ+V8/qnzZK+9mCgLVdUgAKoAAAAAAAAAAAAAAAACflfP6p82SvvZgoCflfP6p82SvvZgtT0lKgABVAAAAAAAAAAAAAAAAAAAM9yk+clv/AHac/egHFO1lJ85Lf+7Tn70A4p7r0F/h0/Wf3cnjfaAAOu1AAAAAAAAAAAAAAAAA6ll/ODa33yJ8NGOWdSy/nBtb75E+GjGtxvsKvoz8L7Wl+jgAeVegAAAAAAAAAAAAAAAAAABL5SfNiHzlTvjYBUEvlJ82IfOVO+NgFQAAAAAAAAAAAAAAAAAAAAl8pPmxD5yp3xsAqCXyk+bEPnKnfGwAKgAAAAAMr/zveP36B8HLmqGV/wCd7x+/QPg5c1uL9mrV0e4AHKYwAAAAAAAAAAAAAAAAAAT8r5/VPmyV97MFAT8r5/VPmyV97MFAWq6pAAVQAAAAAAAAAAAAAAAAE/K+f1T5slfezBQE/K+f1T5slfezBanpKVAACqAAAAAAAAAAAAAAAAAAAZ7lJ85Lf+7Tn70A4p2spPnJb/3ac/egHFPdegv8On6z+7k8b7QAB12oAAAAAAAAAAAAAAAAHUsv5wbW++RPhoxyzqWX84NrffInw0Y1uN9hV9Gfhfa0v0cADyr0AAAAAAAAAAAAAAAAAAAJfKT5sQ+cqd8bAKgl8pPmxD5yp3xsAqAAAAAAAAAAAAAAAAAAAAEvlJ82IfOVO+NgFQS+UnzYh85U742ABUAAAAABi9Tn56Vv68GSdHmJ5izkBViQ40JiIu84GrB7kU2gyv8AzveP36B8HLmtxXs1aujm+GavyYnetS/bHhmr8mJ3rUv2ygBzL40UT/hmr8mJ3rUv2x4Zq/Jid61L9soAL40E/wCGavyYnetS/bHhmr8mJ3rUv2ygAvjQT/hmr8mJ3rUv2x4Zq/Jid61L9soAL40E/wCGavyYnetS/bHhmr8mJ3rUv2ygAvjQT/hmr8mJ3rUv2x4Zq/Jid61L9soAL40E/wCGavyYnetS/bHhmr8mJ3rUv2ygAvjQT/hmr8mJ3rUv2x4Zq/Jid61L9soAL40EHLVaqJe1QeluzixFp0s1Ye+IGKIkSPguOfhrxX8P9DueGavyYnetS/bEr5/VPmyV97MFAWqmL+gn/DNX5MTvWpftjwzV+TE71qX7ZQArfGgn/DNX5MTvWpftjwzV+TE71qX7ZQAXxoJ/wzV+TE71qX7Y8M1fkxO9al+2UAF8aCf8M1fkxO9al+2PDNX5MTvWpftlABfGgn/DNX5MTvWpftjwzV+TE71qX7ZQAXxoJ/wzV+TE71qX7Y8M1fkxO9al+2UAF8aCf8M1fkxO9al+2PDNX5MTvWpftlABfGgn/DNX5MTvWpftnDlqtVEvaoPS3ZxYi06WasPfEDFESJHwXHPw14r+H+heE/K+f1T5slfezBaJi6fUHhmr8mJ3rUv2x4Zq/Jid61L9soAVvjQT/hmr8mJ3rUv2x4Zq/Jid61L9soAL40E/4Zq/Jid61L9seGavyYnetS/bKAC+NBP+GavyYnetS/bHhmr8mJ3rUv2ygAvjQT/hmr8mJ3rUv2x4Zq/Jid61L9soAL40E/4Zq/Jid61L9seGavyYnetS/bKAC+NBP+GavyYnetS/bHhmr8mJ3rUv2ygAvjQT/hmr8mJ3rUv2x4Zq/Jid61L9soAL40Gb3HAr1wXVRYEnb0w2PDlZtyQ3zMBM5udAxVFz8NWr8f8AU+2hd48m4nXJftl7Q/nJpHNs77yWNLPQcBxtrY2EU0dPWx18NZ2s4qofnfQu8eTcTrkv2xoXePJuJ1yX7Z+iAbfiVvr9lMjY6PzvoXePJuJ1yX7Y0LvHk3E65L9s/RAHiVvr9jI2Oj876F3jybidcl+2NC7x5NxOuS/bP0QB4lb6/YyNjo/O+hd48m4nXJftjQu8eTcTrkv2z9EAeJW+v2MjY6PzvoXePJuJ1yX7Y0LvHk3E65L9s/RAHiVvr9jI2Oj876F3jybidcl+2NC7x5NxOuS/bP0QB4lb6/YyNjo/O+hd48m4nXJftjQu8eTcTrkv2z9EAeJW+v2MjY6PzvoXePJuJ1yX7Yp9Hua37ttmdnrcjq3fzmMYybgKr3LLxtSePgmpFXX9R+iCXvL5Zs3nhfg5kpacfbWlM0VT6pXo4SyoqiqI9ZpBXuRtR65K94NIK9yNqPXJXvCoBptlL6QV7kbUeuSveDSCvcjaj1yV7wqABL6QV7kbUeuSveDSCvcjaj1yV7wqABL6QV7kbUeuSveDSCvcjaj1yV7wqABL6QV7kbUeuSveDSCvcjaj1yV7wqABL6QV7kbUeuSveDSCvcjaj1yV7wqABL6QV7kbUeuSveDSCvcjaj1yV7wqABL6QV7kbUeuSveDSCvcjaj1yV7wqABmmUCuVqLbrGxbTn4LfCEg7PdNyypik3BVE1RFXWqIn++vUUekFe5G1Hrkr3gyk+bEPnKnfGwCoAl9IK9yNqPXJXvBpBXuRtR65K94VAAl9IK9yNqPXJXvBpBXuRtR65K94VAAl9IK9yNqPXJXvBpBXuRtR65K94VAAl9IK9yNqPXJXvBpBXuRtR65K94VAAl9IK9yNqPXJXvBpBXuRtR65K94VAAl9IK9yNqPXJXvBpBXuRtR65K94VAAl9IK9yNqPXJXvBpBXuRtR65K94VAAl9IK9yNqPXJXvCcv6t1mLb8Nka1J+AzwhILnumpZyYpOQVRMEiY61RE/wB9eo0sl8pPmxD5yp3xsACoAAAAADK/873j9+gfBy5qhlf+d7x+/QPg5c1uL9mrV0e4AHKYwAAAAAAAAAAAAAAAAAAT8r5/VPmyV97MFAT8r5/VPmyV97MFAWq6pAAVQAAAAAAAAAAAAAAAAE/K+f1T5slfezBQE/K+f1T5slfezBanpKVAACqAAAAAAAAAAAAAAAAAAAfKh/OTSObZ33ksaWZpQ/nJpHNs77yWNLOvwvso/Pey09AAGdIAAAAAAAAAAAAAAAAS95fLNm88L8HMlQS95fLNm88L8HMgVAAAAAAAAAAAAAAAAAAAAACXyk+bEPnKnfGwCoJfKT5sQ+cqd8bAKgAAAAAAAAAAAAAAAAAAABL5SfNiHzlTvjYBUEvlJ82IfOVO+NgAVAAAAAAZX/ne8fv0D4OXNUMr/wA73j9+gfBy5rcX7NWro9wAOUxgAAAAAAAAAAAAAAAAAAn5Xz+qfNkr72YKAn5Xz+qfNkr72YKAtV1SAAqgAAAAAAAAAAAAAAAAJ+V8/qnzZK+9mCgJ+V8/qnzZK+9mC1PSUqAAFUAAAAAAAAAAAAAAAAAAA+VD+cmkc2zvvJY0szSh/OTSObZ33ksaWdfhfZR+e9lp6AAM6QAAAAAAAAAAAAAAAAl7y+WbN54X4OZKgl7y+WbN54X4OZAqAAAAAAAAAAAAAAAAAAAAAEvlJ82IfOVO+NgFQS+UnzYh85U742AVAAAAAAAAAAAAAAAAAAAACXyk+bEPnKnfGwCoJfKT5sQ+cqd8bAAqAAAAAAxep1+k0q/rwg1GoS8tFdOQHoyI/BVTecDX/wDA2gyv/O94/foHwcua3FXcv1q1dHN0ytzjmS6RBplbnHMl0iFADmX06KJ/TK3OOZLpEGmVuccyXSIUAF9Ogn9Mrc45kukQaZW5xzJdIhQAX06Cf0ytzjmS6RBplbnHMl0iFABfToJ/TK3OOZLpEGmVuccyXSIUAF9Ogn9Mrc45kukQaZW5xzJdIhQAX06Cf0ytzjmS6RBplbnHMl0iFABfToJ/TK3OOZLpEGmVuccyXSIUAF9Ogg5a7KAl7VCOtWk0gup0sxr90TBXJEjqqfgqfidzTK3OOZLpEEr5/VPmyV97MFAWqw3if0ytzjmS6RBplbnHMl0iFACt9Ogn9Mrc45kukQaZW5xzJdIhQAX06Cf0ytzjmS6RBplbnHMl0iFABfToJ/TK3OOZLpEGmVuccyXSIUAF9Ogn9Mrc45kukQaZW5xzJdIhQAX06Cf0ytzjmS6RBplbnHMl0iFABfToJ/TK3OOZLpEGmVuccyXSIUAF9Ogn9Mrc45kukQ4ctdlAS9qhHWrSaQXU6WY1+6JgrkiR1VPwVPxLwn5Xz+qfNkr72YLRhukNMrc45kukQaZW5xzJdIhQArfToJ/TK3OOZLpEGmVuccyXSIUAF9Ogn9Mrc45kukQaZW5xzJdIhQAX06Cf0ytzjmS6RBplbnHMl0iFABfToJ/TK3OOZLpEGmVuccyXSIUAF9Ogn9Mrc45kukQaZW5xzJdIhQAX06Cf0ytzjmS6RBplbnHMl0iFABfToJ/TK3OOZLpEGmVuccyXSIUAF9Ogm6PeNuw8oFKmH1mSbAZT5xjnrETBHOfLqif75q/gaFwg2lyhp3TITlD+cmkc2zvvJY0s6vDeyi5kp6JfhBtLlDTumQcINpcoad0yFQDOlL8INpcoad0yDhBtLlDTumQqABL8INpcoad0yDhBtLlDTumQqABL8INpcoad0yDhBtLlDTumQqABL8INpcoad0yDhBtLlDTumQqABL8INpcoad0yDhBtLlDTumQqABL8INpcoad0yDhBtLlDTumQqABL8INpcoad0yE5dl82xHq1pvg12Qe2DVViRFSKniN3rMNxX9WLkT/c0sl7y+WbN54X4OZAcINpcoad0yDhBtLlDTumQqABL8INpcoad0yDhBtLlDTumQqABL8INpcoad0yDhBtLlDTumQqABL8INpcoad0yDhBtLlDTumQqABL8INpcoad0yDhBtLlDTumQqABL8INpcoad0yDhBtLlDTumQqABL8INpcoad0yDhBtLlDTumQqABL8INpcoad0yDhBtLlDTumQqABmmUC+bYmrdZDl67IRInhCQfmtioq5rZuC5y/7Iir/ALFHwg2lyhp3TIMpPmxD5yp3xsAqAJfhBtLlDTumQcINpcoad0yFQAJfhBtLlDTumQcINpcoad0yFQAJfhBtLlDTumQcINpcoad0yFQAJfhBtLlDTumQcINpcoad0yFQAJfhBtLlDTumQcINpcoad0yFQAJfhBtLlDTumQcINpcoad0yFQAJfhBtLlDTumQcINpcoad0yFQAJfhBtLlDTumQnL+vi2Ju34cKWrkhEieEJB2a2KmODZyC5V/2RFX/AGNLJfKT5sQ+cqd8bAAqAAAAAAyv/O94/foHwcuaoZX/AJ3vH79A+DlzW4v2atXR7gAcpjAAAAAAAAAAAAAAAAAABPyvn9U+bJX3swUBPyvn9U+bJX3swUBarqkABVAAAAAAAAAAAAAAAAAT8r5/VPmyV97MFAT8r5/VPmyV97MFqekpUAAKoAAAAAAAAAAAAAAAAAAB8qH85NI5tnfeSxpZmlD+cmkc2zvvJY0s6/C+yj897LT0AAZ0gAAAAAAAAAAAAAAABL3l8s2bzwvwcyVBL3l8s2bzwvwcyBUAAAAAAAAAAAAAAAAAAAAAJfKT5sQ+cqd8bAKgl8pPmxD5yp3xsAqAAAAAAAAAAAAAAAAAAAAEvlJ82IfOVO+NgFQS+UnzYh85U742ABUAAAAABlf+d7x+/QPg5c1Qyv8AzveP36B8HLmtxfs1auj3AA5TGAAAAAAAAAAAAAAAAAACflfP6p82SvvZgoCflfP6p82SvvZgoC1XVIACqAAAAAAAAAAAAAAAAAn5Xz+qfNkr72YKAn5Xz+qfNkr72YLU9JSoAAVQAAAAAAAAAAAAAAAAAAD5UP5yaRzbO+8ljSzNKH85NI5tnfeSxpZ1+F9lH572WnoAAzpAAAAAAAAAAAAAAAACXvL5Zs3nhfg5kqCXvL5Zs3nhfg5kCoAAAAAAAAAAAAAAAAAAAAAS+UnzYh85U742AVBL5SfNiHzlTvjYBUAAAAAAAAAAAAAAAAAAAAJfKT5sQ+cqd8bAKgl8pPmxD5yp3xsACoAAAAADK/8AO94/foHwcuaoTNTsW3qnU5moTcnGWbmVa6M+HOR4SPVrUYiq1r0T81rU8n0GK2s+ZThRMXp8HX4OLZ9UnNozPeDg4tn1Sc2jM94amSnVXA5AOvwcWz6pObRme8HBxbPqk5tGZ7wZKdTA5AOvwcWz6pObRme8HBxbPqk5tGZ7wZKdTA5AOvwcWz6pObRme8HBxbPqk5tGZ7wZKdTA5AOvwcWz6pObRme8HBxbPqk5tGZ7wZKdTA5AOvwcWz6pObRme8HBxbPqk5tGZ7wZKdTA5AOvwcWz6pObRme8HBxbPqk5tGZ7wZKdTA5AOvwcWz6pObRme8HBxbPqk5tGZ7wZKdTAiJXz+qfNkr72YKA6aZMrUSO6OkhNJGc1GOf4RmcVaiqqJ/1P1r+J9ODi2fVJzaMz3hM8HM+8wuQDr8HFs+qTm0ZnvBwcWz6pObRme8IyU6mByAdfg4tn1Sc2jM94ODi2fVJzaMz3gyU6mByAdfg4tn1Sc2jM94ODi2fVJzaMz3gyU6mByAdfg4tn1Sc2jM94ODi2fVJzaMz3gyU6mByAdfg4tn1Sc2jM94ODi2fVJzaMz3gyU6mByAdfg4tn1Sc2jM94ODi2fVJzaMz3gyU6mByAdfg4tn1Sc2jM94ODi2fVJzaMz3gyU6mByCflfP6p82SvvZgt+Di2fVJzaMz3h80yZWokd0dJCaSM5qMc/wAIzOKtRVVE/wCp+tfxJjg5j3mFzAdfg4tn1Sc2jM94ODi2fVJzaMz3hGSnUwOQDr8HFs+qTm0ZnvBwcWz6pObRme8GSnUwOQDr8HFs+qTm0ZnvBwcWz6pObRme8GSnUwOQDr8HFs+qTm0ZnvBwcWz6pObRme8GSnUwOQDr8HFs+qTm0ZnvBwcWz6pObRme8GSnUwOQDr8HFs+qTm0ZnvBwcWz6pObRme8GSnUwOQDr8HFs+qTm0ZnvBwcWz6pObRme8GSnUwOQDr8HFs+qTm0ZnvBwcWz6pObRme8GSnUwOHQ/nJpHNs77yWNLI9uTa2GTDI7JOcbHY1zGvSpTKKjVwxTHdPpzU/A9GgdB9HUdqTXeG5ZUcuiKVoi6FQCX0DoPo6jtSa7waB0H0dR2pNd4ZEqgEvoHQfR1Hak13g0DoPo6jtSa7wCoBL6B0H0dR2pNd4NA6D6Oo7Umu8AqAS+gdB9HUdqTXeDQOg+jqO1JrvAKgEvoHQfR1Hak13g0DoPo6jtSa7wCoBL6B0H0dR2pNd4NA6D6Oo7Umu8AqAS+gdB9HUdqTXeDQOg+jqO1JrvAKgl7y+WbN54X4OZGgdB9HUdqTXeHyjZPLcjPgviy8+90F+6Q1dU5pcx2CtxT+01Lg5U/3UCtBL6B0H0dR2pNd4NA6D6Oo7Umu8AqAS+gdB9HUdqTXeDQOg+jqO1JrvAKgEvoHQfR1Hak13g0DoPo6jtSa7wCoBL6B0H0dR2pNd4NA6D6Oo7Umu8AqAS+gdB9HUdqTXeDQOg+jqO1JrvAKgEvoHQfR1Hak13g0DoPo6jtSa7wCoBL6B0H0dR2pNd4NA6D6Oo7Umu8AqAS+gdB9HUdqTXeDQOg+jqO1JrvAGUnzYh85U742AVBJTGTy3JmHucxLz8Rmc1+a6pzSpnNVHNX/qfQqIv+x9dA6D6Oo7Umu8AqAS+gdB9HUdqTXeDQOg+jqO1JrvAKgEvoHQfR1Hak13g0DoPo6jtSa7wCoBL6B0H0dR2pNd4NA6D6Oo7Umu8AqAS+gdB9HUdqTXeDQOg+jqO1JrvAKgEvoHQfR1Hak13g0DoPo6jtSa7wCoBL6B0H0dR2pNd4NA6D6Oo7Umu8AqAS+gdB9HUdqTXeDQOg+jqO1JrvAKgl8pPmxD5yp3xsAaB0H0dR2pNd4fOPk9t2OxGR4E/EYj2vRHVOaVM5rkc1f+p5UVEX/YCsAAAAAAAAAAAAAAAAAAAAAAAAAAAAAAAAAAAAAAAAAAAAAAAAAAAAAAAAAAAAAAAAAAAAAAAAAAAAAAAAAAAAAAAAAAAAAAAAAAAAAAAAAAAAAAAAAAAAAAAAAAAAAAAAAAAAAAAAAAAAAAAAAAAAAAAAAAAAAAAAAAAAAAAAAAAAAAAAAAAAAAAAAAAAAAAAAAAAAAAAAAAAAAAAAAAAAAAAAAAAAAAAAAAAAAAAAAAAAAAAAAAAAAAAAAAAAAAAAAAAAAAAAAAAAAAAAAAAAAAAAAAAAAAAAAAAAAAAAAAAAAAAAAAAAAAAAAAAAAAAAAAAAAAAAAAAAAAAAAAAAAAAAAAAAAAAAAAAAAAAAAAAAAAAAAAAAAAAAAAAAAAAAAAAAAAAAAAAAAAAAAAAAAAAAAAAAAAAAAAAAAAAAAAAAAAAAAAAAACQWq3HP16tSlHhUhktTY8OXzppYiveroEOKq+LqRP7TD/YCvBL/wB9f2c/5x/fX9nP+cCoBL/31/Zz/nH99f2c/wCcCoBL/wB9f2c/5x/fX9nP+cCoBL/31/Zz/nH99f2c/wCcCoBL/wB9f2c/5x/fX9nP+cCoBL/31/Zz/nH99f2c/wCcCoBL/wB9f2c/5x/fX9nP+cCoBL/31/Zz/nH99f2c/wCcCoBL/wB9f2c/5x/fX9nP+cCoBL/31/Zz/nH99f2c/wCcCoBL/wB9f2c/5x/fX9nP+cCoBl9Xuq85C5ItISDbyvhykKaV+EZUVHviNw8v/wBWv4n8aV3r6K3PZj/xA1MGWaV3r6K3PZj/AMRpXevorc9mP/EDUwZZpXevorc9mP8AxGld6+itz2Y/8QNTBlmld6+itz2Y/wDEaV3r6K3PZj/xA1MGWaV3r6K3PZj/AMRpXevorc9mP/EDUwZZpXevorc9mP8AxGld6+itz2Y/8QNTBlmld6+itz2Y/wDEaV3r6K3PZj/xA1MGWaV3r6K3PZj/AMRpXevorc9mP/EDUwZZpXevorc9mP8AxGld6+itz2Y/8QNTBlmld6+itz2Y/wDEaV3r6K3PZj/xA1MGWaV3r6K3PZj/AMRpXevorc9mP/EDUwZZpXevorc9mP8AxJqt5UrzptbdTt6W65zZdkxnZkZU8Zz24fnp9j/4l7OibSrDT1VrriiMUt4B+fuFq9fVLc6OP2xwtXr6pbnRx+2bGSttGDN2Wr9Ag/P3C1evqludHH7Y4Wr19Utzo4/bGSttDN2Wr9Ag/P3C1evqludHH7Y4Wr19Utzo4/bGSttDN2Wr9Ag/P3C1evqludHH7Y4Wr19Utzo4/bGSttDN2Wr9Ag/P3C1evqludHH7Y4Wr19Utzo4/bGSttDN2Wr9Ag/P3C1evqludHH7Y4Wr19Utzo4/bGSttDN2Wr9Ag/P3C1evqludHH7Y4Wr19Utzo4/bGSttDN2Wr9Ag/P3C1evqludHH7Y4Wr19Utzo4/bGSttDN2Wr9Ag/P3C1evqludHH7Y4Wr19Utzo4/bGSttDN2Wr9Ag/P3C1evqludHH7Y4Wr19Utzo4/bGSttDN2Wr9Ag/P3C1evqludHH7Y4Wr19Utzo4/bGSttDN2Wr9Agwug5T7yqdah05ZS3mvfBfGR+ZGRERisRU/OX7afgVOkl6ejt32Y/8TStq4sK5or9Us1NpTVF8NLBmmkl6ejt32Y/8RpJeno7d9mP/ABMWZs9U4oaWDNNJL09Hbvsx/wCI0kvT0du+zH/iMzZ6mKGlgzTSS9PR277Mf+I0kvT0du+zH/iMzZ6mKGlgzTSS9PR277Mf+I0kvT0du+zH/iMzZ6mKGlgzTSS9PR277Mf+I0kvT0du+zH/AIjM2epihpYM00kvT0du+zH/AIjSS9PR277Mf+IzNnqYoaWDNNJL09Hbvsx/4jSS9PR277Mf+IzNnqYoaWDNNJL09Hbvsx/4jSS9PR277Mf+IzNnqYoaWDNNJL09Hbvsx/4jSS9PR277Mf8AiMzZ6mKGlgzTSS9PR277Mf8AiNJL09Hbvsx/4jM2epihpYM00kvT0du+zH/ieq3LnuSZu6SpVWgUfe8xLx5hXy26I5qQ1hph42KLisRPwUmm3orm6JTfEtBABmSAAAAAAAAAAAAAAAAEvafnPevOUH4KWKgl7T85715yg/BSwFQAAAAAAAAAAAAAAAADwxqxTINWgUqNUZOHVI7N0hSb47UjRG+Muc1mOcqeK7Wif4V+pT3AADw1isUyiSrZms1GTp8u5+5tizcdsJiuwVc1FcqJjgirh+pQPcAAAAAAADLLs+c+c5nlPfzR/J/V2fOfOczynv5o/kAAAAAAAAAAAAB5W1GRdAmo7ZyWWDKueyYiJFbmwVamLkeuODVRPLj5APUDy06oyVTgujU2clpuE12Y58vFbEajsEXBVRV14Ki4frQ9QAA8spUZGdjzEGTnJaYjSzsyPDhRWvdCXFUwciL4q4tVNf1L9QHqAAAHliVGRhVCFIRJyWZPRW58OWdFakR7detG44qniu/BfqPUAAAAzO9fPqLzbA97HNMMzvXz6i82wPexzb4H29P57mtxfspc4AHoHGAAAAPjNTUvKQ0iTceFAhquCOivRqY4Y4Yr/oombvXJEX9H2AAAAAAAAAPlu8HfO991h7vmbpuecmdm44Z2Hlwx1YgfUA+Meal5eJCZHjwoT4q5sNr3o1XriiYIi+Xyp+KCZu6kRe+wAAAAAAAOtY3nzK/cZj9+CasZTY3nzK/cZj9+CaseK9M/5dX6fs6vDeyj894ADls4AAAPJDqUjFqUWnw52WfPwm58SWbFasVjdWtWY4onjN14fSn1nrJuAAEADx0ypyFVl3R6XOys7Aa7MWJLxWxGo7BFwxaqpjgqLh+tD2E3XAAeSp1KRpUBI9TnZaTgOdmJEmIrYbVdgq4YuVExwRV/2UXXj1gAgAfOYjQpaBEjzERkKDCar4kSI5GtY1ExVVVdSIifSfORnJWoSrJmQmYMzLPxzYsF6PY7BVRcFTUuCoqf7E3D0AAgAAAPlQ/nJpHNs77yWPqfKifOTSObZ33ksbHC+1j89y1PVpYAOsyAAAAAAAAAAAAAAAABL2n5z3rzlB+ClioJe0/Oe9ecoPwUsBUAAAAAIfKDUpO2YSVauXnWKLITEZsvChS8rAjMa/MVc1MZeI/WjHLiqrrx8mpDg1i7rbpEs2PNZWZyIxz8xElEkZl2OCrrbClnORNS61TDyJ5VQ4X5X/zc0jniH7iOcn8qm5aFWsnshL0etUyoR2VNkR0OVmocVzW7hGTOVGqq4YqiY/rQD05ZZqqNm7KoEtd1Tn6DdsykrNRESVRXwHRICYw4kKE3U5sVfrRyalRUVUXX7HtKQsukx6ZSI04+RfMxJiFBmY26JLo/BVhw9WpiLiqIuK4ucqqqqqmW/lBfOPkj54//ALEqbdNzECTlY0zNxocCWgsWJFixXI1kNqJirnKupEREVVVQPzL+TdFtaHY06lxXB4Mm1qDlZC8OxZHOZuMLB2YyKxF15yZ2GOrDHVq9+QavUqr2fNTF+3jOQ6o2dcyGk3cceVfuW5Q1TBqRm4pnK/Xh9afQe38l2cqdJydzTYdtVeegzFQfGhx5dZdjHJuUJi4brFYq4OY5MURUxTDHFFRPj+SrVZyQydz0KUoNTqbFqT3LGlIks1iLuMFM1d1isdjqRfJhrTXjiiB7vybnQHX5lSWSj74lN/wlgxd2WNujN1ms12eqqr8UwXOVVVfLipfXFlFbRcpVPtBKLNz8xPSO+4D5WLDR7n4xMWK2IrGoiNhPdnZ/1JhrxIX8neI6NlGysRYkGJAe+pMc6FEVquhqsaaVWrmqqYp5FwVU+pVPJlMq8hQfynrSqlYmocpIS1HiPixn+RqZk4iIiJrVVVURETFVVUREVVA8l4Tsac/KYtCYm7bn1iQ6fiynxllnRYitSac17V3VYaZrsHJi9FRWYomObjoUxlPmoGUyj2hGtSfgRajBSNukaagboxv9pi7MY5zVam5Kq+OjsEdg1VRqOgLbod7XBVrjyn25udMqFQiQ1pkjNQm4T8kzNTMiNcq7mr2woOD0emKo/DNa5r04VpX5ByiflG2hV4MjEkXwpGLLRYLoiREzkhzbkVrsExRWvb5UTBcU1oiKofpCr0mdnppsWVuCqU2GjEasGVhyzmKuKrnKsWC92OtE8uGpNXlx/NuUObkL4ym0i2ZjKAk7actB31NzsaYlYTIcTxs5GOY2GyI5W7m1qoj1YsR6+RHobhlPu+Zosi6j21KzNRu6fgqknKyrEe6XRy5iTMXFFayG1yprfqVdWpEc5uV/kq1ml0myKo6NJVBZuNUFR0WUpUxM4w0gw81jokKG5NSueqNVcUzlXDxtYWNSrFq0y3okB2VaYg06HBSXSDTosgr4bFwYiQ2wJfPbgipgrE8VEx1YYpW5M4Cw6CkeSueYuOhzOEWQmJtM+ZhtX89sSLimf4+OCK1rma2rjgiJlcS5pW6MudUpdzy8/U7Yp0osxI02LSY8Tc4zocBqviS6Q892p8XBYjVRM/VhnJjr1mXhLXTvyG2mVikzkqjHRJSqyiwIuY/OzIiJiqK1VY9NS+Vi6vJiFKAAAAAyy7PnPnOZ5T380fyf1dnznznM8p7+aP5AHlqEtFmoLWQJ6YknI7OWJAbDVypgupc9rkw14+THV5T1ACBplxUWpS6x5a/5hsPOzf7dJWA5dSLqa+Ciqmvy4YfgfNa1CqNsVqp29d9Qm4lPlokVWPgS7c1yMVzc5qwEdmrh5fpwVEXFFwnsgdapVNsuPBqNTkZSK6cc9GR47IblbucNMcFXyYov4HlyXIqZFbuRdS4TXwrAO7knoMKpSkjec5OTz63MxJlZh26ojIzc9YaMc3D81qMRURMERf1I1E58OJLtyy3itRmZqXp0CQbNx1l5iLC/6cKB4y7mqK7BHP1a/KuoqMinzaUj/wC9Me/iEPXPnHyk/wD4fj/DwBCfesoNVsqNT1nWXFMpBRrnZr6xNNiYNxx/s1iI/HVqTDFdWGOKEZfLaVUa7k/maRNT0xIzs65m6xZqYc7BseCxcxYjs5i44624LqRfoRToWvPTEPIfMy7aVOxIKyU63fTXwdzRFdFxXBYiPwTHX4uOpcMdWMzBgxYFOySsjw3w3LPxnoj2qiq105Cc1f8ARUVFRfpRUCGvXddqW7WrekFkt8eFpje+6brmbl48NuOGaud/1PJq8n6zJXVPwZL5WXI+CkSYm2yrGxV/OSJGjtejUxTFyMV7v/dx8iKVOWyZhSVz2LNzTsyXl5x0aK/BVzWNiwFcuCa9SIpwLKtWQvC/LviVR8y+mwJx0RZLF8JIz3xI2a56Yo5Famdq1Li5fJrRZFNalXptkWHTp6Zok7BhzEGE6JOJvbOmHvxeiJhER7kTOdmoqYo1NfkUrbHuaauSVixZyjTNMzWQosJz3bpCjw4jM5rmPwTFfrTDVimOvFExR8/NV63bfsKZhRm1aVqj4EeLnLHWC1uLEXBEwVrUiREwR2CNg/Qiph+kSBGUS+HVaq1uQlqJOxo1LmnQHrAiwlarUc5rXLnuZgqqx2pMcME16yNyYTMSDe17zLKNNTUws2qYQ1gpEl0dGjKrVV0RE1qiY5qqiqz/AEObblzwbauLKJEb/a1OZn9ykJVrFe6NGWLMI1M1FRVaiqmOH1oia1RF6NLkriyXWtKVHCDN09UV1RpzntasKK9Uax7YiNVfIkNqp4yIuOGKLnNC3sy833JW61T3UmLJ+DYiw3RHRmv157m5rkTyO8Vfzc5NS6/JndGqSz5OHHnZy6J2RlEdnK6JvVkOEiuwRuc6F5MVRExVV8mtVM/yFz0OqV+9ahAa9sGammR2NeiI5GuiR3Ii4KqY4L9Z/OWu4os9RpulUeXjzEnLRmeEpxjU3GGqPaiQc5U1vR7oaqjVxTDDX42aHDtZZG5Lzqddr10MhQ5KPudPix4kBj4iIq5jtziJg1GtzXf9NPGfimDmqWldqdAi71lZ3KFUk3WJix0lMQW4L5PHfBhJmt8b/EqJ9P8AhxTpWLWqdJ2ZQ4EOVqLM2ThK5IVLmFar1aiucith4Li5VXOTHHHHFcSQybXEybp09cNdp9QrVfZMJBhRZaRdGeyGkNiI2GqIkOH+fEVURWqqKqrjimIa1SoM3L06BCqU0ycm2NzYkwyDuSRF+vNxXBcMMcFwxxwRE1J6zw0WpwaxTIM7LNisZEzmrDjMVj4b2uVrmOavkc1yKi/rT6T3ADM718+ovNsD3sc0wzO9fPqLzbA97HNvgfb0/nua3F+ylzgAegcYAAHlmZaLFi50OdmIDcMMyG2Gqf6+M1Vx/wB/oIStRoNYuCWkHVlI1NYzPiRnRGNRrteOCpmo5cM1EXXhnL9SoVlw1OJKQVlZCHEj1OMxdyhwkRVYi6t0djqRqKv06lX9WKpPZOZqXl6TMK6DG3R0VPGhy74nioxuCK5rV8mK6v1/rNLiJprriyv69f6bdjE00zaXfT+3WmJmnS8i5mkD2QGtSGjZd0HFqeREajGYph+ryHrpkaHJUqJNvqMScp2CRIcR7FfEY3/FnKmtUx/Uit14+TVw3T8OoXfMS1QZFmKfAhK+DAdLuXBytYiq6Hm4r+c7W5NWOryoUdPqEGrQ48GJKTEFyNRIkCbhZqqx2KIuGtFRcHJ/spayqiqqbp1iOv8AfRW0pmmn1x8Z6f05MhLy9OqbkpVSgMg1JXOl5ZsFYkJHMzc9UVHYeRHJhinlRNeaiHguJalKTdEkYtWmYizUZWxIkJrYK/nMamGan1PXyqqYoi4Hho9Np0Ct1WJ/aTVOpUJyqyO7OVYmGDnI3BE8jHN1/SiL9WHpm5NtajUmeo1JzZGHEcsZM2EzdUR7cUwztf5r01/X+s15marOYiPXpEzrF/3ZoiIriZn1fGI09Snl5Ol0ibz2PbLzE0ub/aTDsYq4/U5da4r/AK6/1nyfPxfC7qelQlGTKor2QnykRFVvlTB2eiOXD6vqXVqXDn0ePSqrVJ6SShwIbZfFFe6CxUxRc1zXYJgi444a1xRFU+l+xGStKgzrIqwZyBGasvEamvFfzmquC6s1FXDyLmp5fIuzjiLOa6bro0++jBhma4pq6z+Rq89tXBMz05PxZl74sijkbAWDKPVq+XWioiqmKYKqOxXxk8mBza/MwYt8U6OsrNTEOHCY7cmQnNiK5qxFRUa7BVRFwX6tS+XWeelMc+zYcWiTEdlRl5jdYsOXV6q9HOzW4sxwVM1GL5FTxXJ9LjoLFjRr7oMWZZucd8i10Rmarc1ysiqqYLrTWauOquimmqesxPef40bGGmmuqY90THaP5d+br8vBpsOZhQo0aYjZzYMojVSK97cUc3N1qmaqLiuvDD6dWMfSGsrEOoVmuy8xPQmIrVbCVrWQ2o1HLqV6O1IupE+tVXFV1aFOTUGSlYkxNREhwYaYucv0fxX9X0maVOHLMpjZSlLMQpdXIqNjucsWccuOYrYSalZqb4yoirgiJrTBcvFXxMYpvu935ex8PdMThi74ujSd8v3e4osOdwY1ywWwo7XM3JuOLHuequVMUXHV5dafQiWdFqLKrTIE5DY5jYmOLV14Kiq1f/iimeyFQgxpGXocs3c52M18J0V029sDFVXBURrlR2dr/UrlTUqKXttyMWm0WWlI6Qkiw87O3JVVqqrlXHFdeK44r+vHDUODqmZ9XS71/X1fA4mIiPX1v9X0dMAG+0wAAdaxvPmV+4zH78E1YymxvPmV+4zH78E1Y8V6Z/y6v0/Z1eG9lH57wAHLZw59eq0rQqNOVOfdmy0rDWI7BURXYeRrcVRFcq4IiY61VEOgTN522+6Vp8jNTG50RkRY87Chuc2JMK3Dc4eKLgjMVcrvpxa3DBdaWpuv/wDrol+ea9T4c1k9i3RNLKxKlVa8qxGQcFSAm5xnOZgqYtVznK7BVXFqQ1N1vm3pKXsm4I0ONVFfDp0w9EiVOZe1VSG5dbXRFRU/UqKi/SSNhUSPceSuiSU9RabP06FFixoSxanGl35+6RExVGQlw/Ocn5y/X/pn9LuiitykTU66hUmLTp5WykGViuRkrLr/AGbd2xdD8VviucuLEVEeuOvHHemJrmbv9V+raMhsJsPJpTHtV6rEfHc7OeqoipGe3Uirg1MGpqTBMcV8qqqwclNwqpUMoUG5Zl8/Kyk8kOTkp2sRJSC9d2jrubVzs1FwhIrUVMEVqeRMVTUaDL3DJVJsu+n27JW+jXIyXkokTdYTl14p4jWORXZ2KYN/OxxXDxs2tylQafliuCl0+kSFSiSyb9hR6nMRN1hq7cImp+D0VUc9cHKzP163+XHFRN81T+v3R73Kmb6lny0u7J699Jr1QmoMCJS0kpZsNUVioitibmmKboqIivci63Lmonkr65HqLMrtr2+6uVh8ssNZyI7dYcNImGe5Iathw2orcYGvOxxRyombrVeTa0siZRa5TZ63KPP3PucSYmpp8y6HLLDiJDxZDh7kuHixURVciudjExcucuP+ZN6RJ0jLRW6c2lScsstJJFgtZFfH3u7NhIuZEfgq5yRVxVW4/QiomOderDF90dI+A0XKFd8Ky6TKVCYlXTMCLNsl4iMfmuY1Wucrk1LnKiMXVqx+tCA/KAqEzNWbJtj0mekGtnmuSLMPgq1V3KKmCbnEcuOvHyYavL5D3/lLeYcnzg33MU+FYhx8pV+ScSgR0hUegI/NqrWI5Fm1wcm544pEajmQlwwRFRHa8HMVaWVMUxTX9URq7933zEsyhysbRabgyyRGy0OHFjwIUNiIxyojdzdEVMEZqTNRMPp8iLZTUCYqEjAWHNTtLirmxHJDSC6ImrWx2c17fKuvN+lNS4eX88ZV7uqU5R4dq3JKMbW6dNMiRJqA9HQ46JCieNgiJmqqPhrq8uK6mYZp+g7hrUpQacs5PK9UVyQ4UGE3Pix4jvzYcNv+Jyr5E/3XBEVSlpZ4Yp9XrkmGU5ZqrGp9Lh0WSuuYm6hOR2wJiTivloebCVuPjuYxm5oqrDTxnIitc7ypjh3LXlbdtyjwpCn3/BgtTx4iwo8kiRIi/nO8Zjnf6YuVURETHBEIywapHfljq9SuanTUKefLOjMgNlXTEWXzkg7mmENiq1UhORucqIutUdgqqhR5U7pdHqVt0qWfUYVKqExuNRgvko0B8eFukJFa1XMR64or0VGa1xwXyoZZpn1Wf6/nqT8FBYUSUqNRmKhb93T9Wk1c5J2VqDVeqOd4zHQ0VGLCTHO8jVaqYoiIrUwvSUolxUuDVINCkaNUqbLOVyS0WJTnS0tFfmrEcxmKIqOwR662pjmu/VjVmtaX3qyAAxoD40T5yqPzbO+8lj7HxonzlUfm2d95LGxwvtY/PctT1aYADrMgAAAAAAAAAAAAAAAAS9p+c9685QfgpYqCXtPznvXnKD8FLAVAAAAADh3hadEvGmwZC45LfkpCjJMMh7q+Hg9Guai4sci+R7kw8ms9NxUmTrFMiQJ6lU6q7njFgy8+xroSxUaqNxVWuzfKqZyNVURV1L5DpgDBLhlLqv7K7a0rVLXmKHJ21Ovm4tQbEWYl5hqOhRG5j1YxFzlhtbgiq5M9VVqZjkNBy1Tc5DyfT9MpEvvqr1rClSktmOduroqKkTWmCNwhJFfnOVGpm4rq1LdACZyaWytn2LR6E+LusaVhKsZ6OzmrFe5XxM1cE8XPc7NxTHDDHWZl+T7KVqx8ks3Hq1t1mLGiT8SYSTgQmJMpCSCxqv3N7mu/OhuRGp4y4oqNVFxNzAGL/k70isw6tfNx1ulx6T4bn2xIcnMseyKzB0WI5fGa3Fv9ujUcnlVrtSYHPvukQa1+VHakrO0+FUJBKM6JMwY0BI0NGJvpEc9FRUwz3MTFfpVv0qhvAA+c1EfBlo0WHAiTD2MVzYMNWo6IqJijW5yo3FfImKon1qhhEtQ52f8AylKTW6faM/RqfKykR0/GjS0KEyJGcyPjE3SG5zIjnLGhoqo5XYouKeKuG9gDyy9Okpaem52Xk5aFOTeZvmPDhNbEjZiYNz3ImLsE1Jj5EMR/JWdN07JFPTbKbOTaxam+JBgwcxjo7dzgsVzFiOa1URWvxXO/wOTWqYG8ADBMkseYujL3d93SlMn5SjrJ7wes7DSFEhzDUl0WE5uK+Mm5PVUTHNTNxwVyIu9gAAAAAAGWXZ8585zPKe/mj+T+rs+c+c5nlPfzR/IAAAcq3LfpltyLpOiy29pZz1iKzdHPxdgiY4uVV8jU/AkL7dP0KhT1Lt+0oManVFkSBn05VR0Nz4Wbnvgth/6oioqpg1MVTFENEAE5k8osa3rMplNmnYzEJjnxEwTxHPe56t1KqLmq7DFF14YkhJSNal8tVwVCTpixJeLKNYyNMufBgu8SXxzYiMciri1dWH0Lr1GpADjb4uHiuk7SidwQ19U2v1e8rKiRKVDSHKzaxXxJWM6MxjUfBc5XudDYjNTFw8udrRNeCLqQA8M1SKbNz0Kdm6dJx5yFm7nHiwGuiMzVzm4OVMUwXWn1KZFZtcbQL2vaE6UmJmo1KcVadKMYqLNK2PMNdg/DNa1Fxxcq4IjXeXBUNrAGQVOxrrl6lCuyVnJScuhsysSLLQ2o2AsNWpDRrFdh5GYouOCqi6lzm4uvbRuCcrsvnztAqNKe3OR2+URGYoqYI3HB64oqLjmImKKmOKa6IAZRkqp8OLfV8z0eTY90GpOZLzD4SKrHLEjZ6McqalzXNxRF8ipj5TSqvEVsk5ng2LUocXGHEgQ9z1tVFxzkiOait+hUxXy+TyntAGYZG6VNSVUuudiUuYpshOTLXSkGPB3FUYjors1GfQiNexNWr6EVcFOhlclJWnZKqnLSMvAlZWG6BmwoLEYxuMwxVwRNSa1VS/AEfJ1Z9r2BRY89S6jGhy1Og753BjFdL5sNiLntc5rvpXHBFwRqquGBx8glOm5CyYrpyA6E2amlmIOd/jhrDhtR2H1KrVwx8qYL5FRTSAAAAAzO9fPqLzbA97HNMMzvXz6i82wPexzb4H29P57mtxfspc4AHoHGAAB8ocCDDjRYsOFDbFi4bo9rURz8EwTFfpwQksnCxIFrxYqQIsXOj4sazBFemaxqqiuVE1Ki/T9C/SWQMdVnfVFWl/3Xi0upmnW77Iu23vqN51KpwoEZkqsJYKrFbmua/wDs0zVT6/EXV9GrHDEsI8GFMQlhTEJkWG7DFj2o5FwXFNS/rPoBZWeCmYmb7/5LSvHN8eq5C2/IRpCzK4ycl3QZnMitc57cFciQtWv6UxzsF8mtcDqWkypStAloO84Tc10TVHiuhv1xHLrbmLh5fr8mspgY6OHiiYunpFy9dvNcTfHWb0fYrInhW4oj2KmdNK1VTW3OR8RVRF+nDFPxTUmJ0ZSlxZ6rLVKsxzVhrhKSj3I5IKJ/iXDUrlVMfpw1a1wTDvgtRYRTTFMzfd60VWszVNUeq9wZGkx6REq85KubOR5uJurYLv7LDxnLm52v7X1J5Pox1c98GbnL8k5xJKZgwIEHMiOitRETxX+RUVUX89vkXHy/UpXATYRMRETdETf97yLab5mesxd/Dn1iPuMFua+dY/W9N6QN0c7BPzdbXImOKeXD/XykpPycxAgTD5uQmZenqxzZiYhxGx5uK1EamLnKupipgqomKJmLjqXEuwLSx5nWfz8+hRa4OkM/tqg7+l6mu5zEpLvjMjSMZVVHNVFerVTXiqI16a/px1LimKUtuNrMDPlau2FEhQmNSHMNfnOiL+v6Vw8mKoi6vpxxO2Ctlw9NnddPT7ptLea7746gANhhAAB1rG8+ZX7jMfvwTVjKbG8+ZX7jMfvwTVjxXpn/AC6v0/Z1eG9lH57wAHLZw59w1HwPQKnU9y3beUrFmdzzs3PzGK7NxwXDHDDHBToAmBitmyVXuDJlTbWkYUzTZeJAfEnKnHgva1Ib4r3shwUxbuuemCuVFzUYqprV2CeakWdTJ7KteNBbJvg0VtOhQV3DFu5OVss9i52vxlcxXeNjnK1VXHWbmDNz5vm73rXoiwpW66O9aLV4EhMUeRayBKz7Im5xIkNGuzf7NMcVREY1UXMw163+UjYckyay6XW+ZoL61LQ5aEjoSQoT2w3rCgZrl3VzWouDXomvHy4JhjhtIKxa3TM3dUXsbptozEDKNVKvM2XulBmJdIcvJYSa7m/CEmduaxM1NbImtFx8b9anpsikTMplnrU4ygzNJpb6fmQmugNZCa7/AMPi1HMVYeKq1y4NVfpx14mtgmbeZiYnS5N7KvyjYUWPZdOgy0N8WPEqcNkOGxuc57lhRURqInlVVVERDTZGTlafKslpCWgysszHNhQYaMY3FVVcETUmKqq/7noBSa76Yp0Rf6rmO5cKZOXDAkZWnWvPPqm+sxk8kGE9HQkR7c1YjXKrGq6I1yI/NTyquGCmtRpKVjzcvNRpaBEmZbO3CM+GivhZyYOzXLrbimpcPKegE1VzMRGheyq2oMR35Qd2Rmw3rBZIw2PeiLmtc5kurUVfoVUa7D681fqObe85NXNlLs+nStHqUtOUuZbOTMOZbDREgrEguWIjmvc1WojHIq4/neKmK6jZwWi2unFd7rvtcXgAMKAAAD40T5yqPzbO+8lj7Hyofzk0jm2d95LGxwvtY/PctT1aWADrMgAAAAAAAAAAAAAAAAS9p+c9685QfgpYqCZm7Pl41Wn6hAqtYk4s7EbFjMlZrMYrmw2w0XDD7LGgUwJfRD9orj67/KNEP2iuPrv8oFQCX0Q/aK4+u/yjRD9orj67/KBUAl9EP2iuPrv8o0Q/aK4+u/ygVAJfRD9orj67/KNEP2iuPrv8oFQCX0Q/aK4+u/yjRD9orj67/KBUAl9EP2iuPrv8o0Q/aK4+u/ygVAJfRD9orj67/KNEP2iuPrv8oFQCX0Q/aK4+u/yjRD9orj67/KBUAl9EP2iuPrv8o0Q/aK4+u/ygVAJfRD9orj67/KNEP2iuPrv8oFQCX0Q/aK4+u/yjRD9orj67/KBKXZ8585zPKe/mj+TvxMnUjFqMSejVeuxJp8JkFXvm0cuY1XKia2/W934n98H0jxrWesN7IE6Ci4PpHjWs9Yb2RwfSPGtZ6w3sgToKLg+keNaz1hvZHB9I8a1nrDeyBOgouD6R41rPWG9kcH0jxrWesN7IE6Ci4PpHjWs9Yb2RwfSPGtZ6w3sgToKLg+keNaz1hvZHB9I8a1nrDeyBOgouD6R41rPWG9kcH0jxrWesN7IE6Ci4PpHjWs9Yb2RwfSPGtZ6w3sgToKLg+keNaz1hvZHB9I8a1nrDeyBOgouD6R41rPWG9kcH0jxrWesN7IE6Ci4PpHjWs9Yb2RwfSPGtZ6w3sgTpmd6+fUXm2B72ObdwfSPGtZ6w3snijZKaJGnnzkecqkWO6G2ErnxmO8VquVE1s+tymbh7WLK0iufcxW1nzKJphhoN04KqF6ef9uH2BwVUL08/7cPsHS8Tp2tHIVasLBunBVQvTz/tw+wOCqhenn/bh9geJ07TIVasLBunBVQvTz/tw+wOCqhenn/bh9geJ07TIVasLBunBVQvTz/tw+wOCqhenn/bh9geJ07TIVasLBunBVQvTz/tw+wOCqhenn/bh9geJ07TIVasLBunBVQvTz/tw+wOCqhenn/bh9geJ07TIVasLBunBVQvTz/tw+wOCqhenn/bh9geJ07TIVasLBunBVQvTz/tw+wOCqhenn/bh9geJ07TIVasLBunBVQvTz/tw+wOCqhenn/bh9geJ07TIVasLBunBVQvTz/tw+wOCqhenn/bh9geJ07TIVasLBunBVQvTz/tw+wOCqhenn/bh9geJ07TIVashsbz5lfuMx+/BNWPvCyVUWDPQ5uBO1WFHhsdDR0OMxviuVqqmpn/ALKHu0Bk+N631lOycLjrOeKtptY9V7csrKaKIpmXKB1dAZPjet9ZTsjQGT43rfWU7Jp5KrVkwuUDq6AyfG9b6ynZGgMnxvW+sp2RkqtTC5QOroDJ8b1vrKdkaAyfG9b6ynZGSq1MLlA6ugMnxvW+sp2RoDJ8b1vrKdkZKrUwuUDq6AyfG9b6ynZGgMnxvW+sp2RkqtTC5QOroDJ8b1vrKdkaAyfG9b6ynZGSq1MLlA6ugMnxvW+sp2RoDJ8b1vrKdkZKrUwuUDq6AyfG9b6ynZGgMnxvW+sp2RkqtTC5QOroDJ8b1vrKdkaAyfG9b6ynZGSq1MLlA6ugMnxvW+sp2RoDJ8b1vrKdkZKrUwuUfKh/OTSObZ33ksdrQGT43rfWU7J96TZElTa7K1aHUKpGmZeHEhMbHjo5itfm5yKmb9bWr/sZLLhZs64qmUxTdKqABurAAAAAAAAAAAAAAAAAAAAAAAAAAAAAAAAAAAAAAAAAAAAAAAAAAAAAAAAAAAAAAAAAAAAAAAAAAAAAAAAAAAAAAAAAAAAAAAAAAAAAAAAAAAAAAAAAAAAAAAAAAAAAAAAAAAAAAAAAAAAAAAAAAAAAAAAAAAAAD//Z;" parent="1" vertex="1">
          <mxGeometry x="580" y="400" width="231" height="190" as="geometry" />
        </mxCell>
        <mxCell id="n7uOwCEBbb2PrVGbVbOj-14" value="&lt;span style=&quot;font-family: &amp;#34;helvetica neue&amp;#34; , &amp;#34;helvetica&amp;#34; , &amp;#34;segoe ui&amp;#34; , &amp;#34;arial&amp;#34; , &amp;#34;freesans&amp;#34; , sans-serif ; font-size: 13px ; font-style: normal ; font-weight: 400 ; letter-spacing: normal ; text-indent: 0px ; text-transform: none ; word-spacing: 0px ; float: none ; display: inline&quot;&gt;为了解决效率问题，“复制”收集算法出现了。&lt;br&gt;&lt;br&gt;它可以将内存分为大小相同的两块，每次使用其中的一块。当这一块的内存使用完后，就将还存活的对象复制到另一块去，然后再把使用的空间一次清理掉。这样就使每次的内存回收都是对内存区间的一半进行回收。&lt;/span&gt;" style="text;whiteSpace=wrap;html=1;fontColor=#BC03FF;" parent="1" vertex="1">
          <mxGeometry x="830" y="410" width="190" height="160" as="geometry" />
        </mxCell>
        <mxCell id="n7uOwCEBbb2PrVGbVbOj-15" value="&lt;!--StartFragment--&gt;&lt;span style=&quot;font-family: &amp;quot;Helvetica Neue&amp;quot;, Helvetica, &amp;quot;Segoe UI&amp;quot;, Arial, freesans, sans-serif; font-size: 13px; font-style: normal; font-variant-ligatures: normal; font-variant-caps: normal; font-weight: 400; letter-spacing: normal; orphans: 2; text-align: start; text-indent: 0px; text-transform: none; widows: 2; word-spacing: 0px; -webkit-text-stroke-width: 0px; text-decoration-style: initial; text-decoration-color: initial; float: none; display: inline !important;&quot;&gt;根据老年代的特点提出的一种标记算法，标记过程仍然与“标记-清除”算法一样，但后续步骤不是直接对可回收对象回收，而是让所有存活的对象向一端移动，然后直接清理掉端边界以外的内存。&lt;/span&gt;&lt;!--EndFragment--&gt;" style="text;whiteSpace=wrap;html=1;fontColor=#BC03FF;" parent="1" vertex="1">
          <mxGeometry x="900" y="615" width="140" height="160" as="geometry" />
        </mxCell>
        <mxCell id="n7uOwCEBbb2PrVGbVbOj-16" value="" style="shape=image;verticalLabelPosition=bottom;labelBackgroundColor=#ffffff;verticalAlign=top;aspect=fixed;imageAspect=0;image=data:image/jpeg,/9j/4AAQSkZJRgABAQEAYABgAAD/2wBDAA0JCgsKCA0LCgsODg0PEyAVExISEyccHhcgLikxMC4pLSwzOko+MzZGNywtQFdBRkxOUlNSMj5aYVpQYEpRUk//2wBDAQ4ODhMREyYVFSZPNS01T09PT09PT09PT09PT09PT09PT09PT09PT09PT09PT09PT09PT09PT09PT09PT09PT0//wAARCAFVAoADASIAAhEBAxEB/8QAGwABAAIDAQEAAAAAAAAAAAAAAAQFAQIDBgf/xABNEAACAAMDBggLBgQFAwQDAAAAAQIDBAUR0RQVIVSSkxIWMVFVlLHSBhM0NUFScXJzkbIyM1NhdMEiIzahJUJjgYJEo7MHJENiJmTC/8QAFgEBAQEAAAAAAAAAAAAAAAAAAAEC/8QAFxEBAQEBAAAAAAAAAAAAAAAAABEBIf/aAAwDAQACEQMRAD8A+nAAAAAAAAAAAAAAfIABS01RaVTTwT1UU0Cjvahchu5JtLTwlfyHXhWnrdN1d945WX5skeyL6mSwOXCtPW6bq77w4Vp63TdXfeOoCOXCtPW6bq77w4Vp63TdXfeOoA5cK09bpurvvGOFaet03V33jsAIcqotOOrnycppUpShd+TvTen/APb8jtwrT1um6u+8cqfzpW+7L7GSwOXCtPW6bq77w4Vp63TdXfeOoA5cK09bpurvvDhWnrdN1d946gDlwrT1um6u+8Y4Vp63TdXfeOwCqW37WtWyaaTOgnUsxzJnAachq7Q3f9vTyFJx0tn1aPdRd4sfDjzbSfqP2Z40D0D8MrYiVzho91F3jXjfa3q0e5i7xQgKvuOFrerR7p94ccLW9Wj3UXeKEFovuN1rPTdR7qLvGON1rerR7p94ogLou4/C+1oZcUSho20r7vFPvGy8LrWaT4NHpV/3T7x56f8AcR+xnRci9i7BdOL3jba3q0e6feHG61vVo90+8UQFF7xutb1aPdPvDjba3q0e6feKIC6PQrwzthJJQ0e6i7w46Wx6tHuou8eeBB6CLw1thQN8Gjdyb+6i7xheGdrxwJuCj0pP7qJ//wBHnpn3UXuvsEv7uD3V2Aeg44Wv6tHun3hxwtb1aPcxd4oQWi+432t6tHuYu8brwzthK5Q0e6i7x54EHoeOlserR7qLvDjpbHq0e6i7x54Aeh46Wz6tHuou8X9h2nalq2e6qKdSympkUHBUhtO58t/CPn57jwL8xRfqI+0IuOFaet03V33jPCtPW6bq77x1ARy4Vp63TdXfeHCtPW6bq77x1AHLhWnrdN1d94cK09bpurvvHUAceFaet03V33imt+3LVsiZTwwTKSb45RNtyWrrml635l+eR8Ofv6H3I+1BccOOlserR3fCi7w46Wx6tHuou8eeAV6HjpbHq0e6i7w46Wx6tHuou8eeAHoeOds+rR7qLvDjnbPq0e6i7x54Aeh46Wx6tHuou8ax+G1sQQ38CjelK7xcXpaXrfmUBzn/AHa96HtQHpeOlserR7qLvDjpbHq0e6i7x558rAHoeOlserR7qLvDjpbHq0e6i7x54Aeh46Wx6tHuou8OOlserR7qLvHngB6HjnbPq0e6i7w452z6tHuou8eeMrlA+p2JVzbQselrJyhUyfLUUShTSTfMm3oLEqPBT+mLO+Ai3CBWWnakFnTaOVFKimRVc9SYUmkk2m73f6NDLM894TUtTUVlixU8mOZDKrVHMcK+zDwWr3+WkCZMtaCCZJhUuGPxs2GXfBNTcLivubS9GhmlRbkiTNmS4IHN8Wkm07v4uHwHDddyp6fYiJFZcyRHSeKlzI3DPk8NuGFJQwqK96PaRo7NqJNpVCigc6OOGKbTOCFqGCY5jaTb0aNDf5X3IC+htGkilTJkM6FwwRcCJtNJRc17XPo9ujlI0q2YY1DHHIjgluC9tRJ/xt3KFXaG+X+3OQJsmoi8HIaWOnmw1MNRK8anDeoonNhcUSa5Vfe79GjluI0NJUQxUsakzGo6xXLgu+5TnE20+RXab2BdzrXkS6mZIV0TlSY5kb4STThu0XP0u9G1BakqtkOOCCOGZClw5WhxQ3pP/daeUqq+jqorXmNylHFU00cuFwS7oIE4odMT57r23f6LkSaOTU0tFHR5PO4Uhwy4Z0vgpzZbdyabd6aXLzXaLwJMi14Z02qly6afE6ePg3QpXxcibSvXI71/sWad/ouPJypE7grxVFNl1LaaUqKODgNX8JOJ6NNy06b29KL9ObnSCFuoUtyG3DwU5d965YuXhflyXATwA+QCmsrzZI9kX1MlEWyk3Zki5Pki+pku58zCMAzc+Zi58zAwDNz5mLnzMDAM3PmYufMwIdP50rfdl9jJZFp086V2h/Zl9jJfBfM/kBgG3BfMxwXzMDUG3BfMxwXzMDUG3BfMxwXzMDzPhx5tpP1H7M8aez8OU1ZtLen5R+zPGBcALhc+YKAaRcAAuFwGk77iZ7rN1yL2LsNJ6/kTPdZuuRexdgAC4XAALhcAAuFwGsz7uP3X2CX93B7q7BMT8XHo/wAr7BK+6g91dgGwFwuAAXC4ABcLgB7jwL8xxfqI+08Oe48C03YUWh+UR9oF8DNz5mLnzMMsAzc+Zi58zAwDNz5mLnzMDB5Hw5+/ofcj7UevufMzyHh0mqigvX+SPtQXHlwZMXBQC4XAALhcAOc/7te9D2o6XGk/7te9D2oDd8rBlp3vR6TFz5gAFz5hc+YABc+YXPmAGVymLnzGUnfyAfTfBX+l7O+BCW5UeCv9L2d8CEtwgAAAAAAAAAAAAAB8gAFHZVl0E6zpUybSwRxxOJttO9vhMmZls3U5f98RYnmqR/y+plgBX5ls3U5f98RmWzdTl/3xLAAV+ZbN1OX/AHxGZbN1OX/fEsABX5ls3U5f98Q7Gs3U5fyZYAD5p4VyJdJb8yXSpyYHJgbhgiaTbb08pT8OZ+LN23iXnhr/AFLH8CX2soQrbhzfxZu28Rw5v4s3beJqANuHM/Fm7bxHDmfizdt4moA24cz8WbtvEcOb+LN23iagCxsCRLrbdppFXC58lqJuCY202lodzZ7TMFj9G0+wjx/gt/UlL7I+w+ghFdmCxujafYQzBY/RtPsIsQEV2YLH6Np9hDMFjdG0+wixAFdmCx+jafYQzBY3RtPsIsQFU1o2FZMFnVMcFnU6iUttNQK9O9FhK8HLFcmBuzKZtwpt8BcwtPzZVfDfai0k/cy/dXYBXcW7E6LpthDi3YnRdNsItQBVcW7E6LpthDi3YnRdNsItQBVcW7E6LpthDi3YnRdNsItQBR1fg9Y0NHPihs2mTUuJpqBaHcyNSWFZEVHIiis2nbcuFtuBXttIvq3yGf8ADi7GQaLyGn+HD2ICJmCx+jafYQzBY/RtPsIsQEV2YLH6Mp9gZgsfo2m2UWICq7MFjdG0+whmCx+jafYRYgIrswWN0bTbAsmx7N4NVDkcpKCojSSVyS0aEWJrY/8A1n6qP9grOZbN1OX/AHxGZbN1OX/fEsABX5ls3U5f98RmWzdTl/3xLAAV+ZbN1OX/AHxGZbN1OX/fEsABX5ls3U5f9ysq7Gs2K1pMuOilRQeIjdzV6vTWnT7T0ZV1fnuT+nj+qECHmCx+jKfYGYLH6Np9hFiAiuzBY/RtPsIZgsbo2m2CxAFdmCxujafZGYLH6Np9hFiAK7MFj9G0+wis8JLGsunsKpmyKCRBMh4F0UMKTV8ST0+w9IVPhV/TtX/x+pBXzvxEr1EPESvUR09ICufiJXqIeIleojoAOfiJXqIeIleojoAOfiJXqIKRKv8AsI6GVygfTfBPR4LWal+BCW5UeCv9L2d8CEtwgAAAAAAAAAAAAAAGHyMCBYnmqR/y+plgUVlWpTSbOlS4/G8KFxJ3SomvtPkaVzJmeqP/AF9zFgBYgrs9Uf8Ar7mLAZ6o/wDX3MWAFiCuz1R/6+5iwGeqP/X3MWAFiCuz1R/6+5iwGeaP/X3MeAHifDb+pI/gQdrKEtvC6skz7fjmQKZc5MC0y2nem/Q0UvjoOaPZYV0Bz8dBzR7LHjoOaPZYHQHPx0HNHsseOg5o9lgdAc/HQc0eyx46Dmj2WBc+C39SUvsj7D6CfOPBqqly/CCmjiUy5KJO6Bt6VzJHu8503NP3MWATUwEPOdLzT9zFgM50vNP3MWARMBDznS80/cxYDOdLzT9zFgBMBDznS80/cxYDOdLzT9zFgBvafmyq+G/2LST9zL91dh5+0rTpnZlSkp2mW9LkxJL+x1leFlhQyYE61XqFL7EXN7Aq/BR8brD15buLAcbrD15buLAC8BR8brD15buLAcbrD15buLAC8BR8brD15buLAcbrD15buLAC1rfIZ/w4uxkGi8hp/hw9iIVV4V2JHSToIa1NxQNJcCLlaf5EWk8JrGhpJMMVZc1LhTXi4tDSX5AXoKfjRYuu/wDbiwHGixdd/wC3FgEXAKjjRYuu/wDbiwHGixdd/wC3FgBbgqONFi67/wBuLAxxosXXf+3FgBcGtkf9Z+qj/YqeNFi3eW/9uLA0s3wosaVlXDrEuHURRL+CLSndc+QK9UCj43WHry3cWA43WHry3cWAF4Cj43WHry3cWA43WHry3cWAF4Cj43WHry3cWA43WHry3cWAF4VdX57k/p4/qhI/G6w9eW7iwIqt2zqy2JcdLOjmqCnjUXAlxNptq69XfkBbgi5xkepUbmLAZxkepUbmLAIlAi5wp/UqNzFgM4SPVqNzFgBKBFzjI9So3MWAzhT+pUbmLACUVPhV/TtV/wAfrRMzhT+pUbmLAqvCeukzPB+pghhnJvg3NyoktESfK0Fx4j0g5+Og5o9hjx0HNHssK6A5+Og5o9ljx0HNHssDoDn46Dmj2WPHQc0eywOhlcpy8dBzR7LMqfBfyR7DA+o+Cv8AS9nfAhLcqPBN3+C9nP8A0IS3CAAAAAAAAAAAAAAHyAAU1lNqzJCTfJF6f/syXwnzv5kOyvNkj2RfUyWEZ4T538zPCfOzUAbcJ87HCfOzUAbcJ87McJ87+ZgAeE8L2+MMbbd/iYO1lLe+dlz4X/1DH8GDtZShovfOxe+dgAL3zsXvnYAC987F752ABbeCzfGSlab5I+w+hcJ87+Z888Fv6kpfZH2H0EJra987+YvfO/magI2vfO/mL3zv5moA2vfO/mL3zv5moAi2vE3Y9be39zF6fyPmUDfAh5eRdh9MtfzPW/Bi7D5lB9iH2LsC43vfOxe+cwArN752L3zswAM3vnYvfOzAAxMbcuLS+R9hiW34uHS/sr0/kI/uo/YxK+6g91dgG9752L3zswAM3vnF752YAGb3zi985gAZvd3KznKbvmaf879Juc5XLM99gdb3zsXvnMADN752L3zswAM3vnYvfOzAAze+dnpPAJt25P0/9M/rR5o9L4BefJ/6Z/WgPfq8yAEAAAAAApPDDR4M1el/5PrRdlJ4Yf0zV/8AD60B82vfOzF752AFL3zsXvnYAC987F752AAvfOzKbvWlmDK5QPpvgr/S9nfAhLcqPBX+l7O+BCW4QAAAAAAAAAAAAAA+QBq8ClsrzZI9kX1slnipXhXVUkt08FFJjhlRxwqKKY02lE9LSRvxzrNQp95FgCPZA8bxzrNQp95FgZ451moU+8iwBHsQeN451moU+8iwMrwzrNQp95FgCPYg8c/DOs1Cn3kWBjjnWdH0+8iwBEXwv/qGP4MHaylO1q2lUWpaUdS5MqW1BBC4VE2rlfc7/wDci/z+aV82FdAc/wCfzSvmx/P5pXzYo6A5/wA/mlfNj+fzSvmxR0Bz/n80r5sfz+aV82Bc+C39R0nsj7D6CfLrOr6izbTkVSlSpkUPCShcTSd65z0HHOs1Cn3kWATcexB47jnWahT7yLAxxzrNQp95FgCPZA8dxzrNQp95FgOOdXqFPvHgCPYg8dxzq9Qp95FgOOdZqFPvIsAR6a1/M9b8GLsPmUH2IPYuw9BWeFtXUUc6Q6KRCpsDgbUyJtX6L+T8zvB4D2l4uG6so7rl6I+YDzQPT8R7T1yj+UY4j2lrlJsxBXmAen4j2lrlJsxDiPaWuUmzEB5gHp+I9pa5SbMQ4j2nrlH8owPLTPu4/dfYJf3UPursPST/AAKtGXImROrpGoYG3cor9CvPLy3P8XDcpV1yuvb5gOwOf8/mlfNj+fzSvmwOgOf8/mlfNj+fzSvmxR0Bz/n80r5sfz+aV82B0vNJXLM99mP5/NK+bLaxvB2ttOjiqpVRTQQuZFC1Eom007nyegCtB6LibaOuUfyjwHE20dco/lHgB50HouJto65R/KPAcTbR1yj+UeAHnQei4m2jrlH8o8DHE60dbpPlGB549L4BefJ/6Z/WjnxOtHW6T5Rk6w7GtKybYfAm0c2KbTvl4aSSiX5ct4R7YFd/jS5IbP2o8B/jXq2ftR4AWIK7/GvVs/ajwH+NerZ+1HgBYgrv8a9Wz9qPAf416tn7UeAFiUnhi/8A8Zq/+H1olf416tn7UeBV+EEq1qix5siaqKGGZHBC3C4203GknpXPcB8/fKD0PE60dbo/lGOJ1o63SfKMK88D0PE60dbpPlGZ4nWjrlJ8ogPOg9DxOtHW6P5RGeJ1o63R/KPADzplcp6DidaOt0nyjC8DbRbuyukv9kYHrfBT+l7O+Ai3KnwYluX4OUEDabgkpNr0tXotggAAAAAAAAAAAAAAAD47O+/nfEj+pmhvO+/nfEj+pmgUAAAAAAABpB9/N9i/c3NIPv5vsX7m4AAAAAAAAGkz72T7z7Dc0j+8le8+w3AAAAAAAAA1j+z/ALrtR9kl/dQe6uw+OR/Z/wB12o+xy/uoPdXYEbgAAAAAAA4VvkU/4cXYz4/K+6h9i7D7BW+RT/hxdjPj8r7qH2LsA2AAUAAAAAD3HgX5ii/UR9p4c9x4F+Yov1EfaBfAAMgAAAAAcZfn2V+lj+tHY4y/Psr9LH9aAtQAFAAAAAArra83r40r64SxK62vN6+NK+uEDd8r9pgy+V+0wEAAAAAAyuVe0wZXKvaBz8HvMdJ7n7ssiu8H/MdJ7n7ssQoAAAAAAAAAAAAAAAD47N+/naP/AJI/qZpc+Y+ix+CNizJsUcVPHfHE4ndMaV7d/JfzszxOsTV5m9ixA+c3PmFz5j6NxOsTV5m9ixHE6xNXmb2LED5zc+YXPmPo3E6xNXmb2LEcTrE1eZvYsQPnNz5hd+T+R9G4m2Jq8zexYjidYmrzN7FiB82gT8fM0ehfub6eZ/I+irwNsNNtU8xN8r8bFp/uZ4nWJq8zexYgfObnzC58x9G4nWJq8zexYjidYmrzN7FiB85ufMLnzH0bidYmrzN7FiOJ1iavM3sWIHzm58wufMfRuJ1iavM3sWI4nWJq8zexYgfNpifjJOj/ADPsN9PMfRH4G2I2m6eY2nev5sWj+5nibYmrzN7FiFfOrnzC58x9G4nWJq8zexYjidYmrzN7FiEfObnzC58x9G4nWJq8zexYjidYmrzN7FiB85ufMLnzH0bidYmrzN7FiOJ1iavM3sWIHziP7P8Auu1H2OX93B7F2FC/A6xNXmb14lirKlJJKoqkkrkvHMCwBAzXL1ir3zGa5esVe+YE8EDNcvWKvfMZrl6xV75gTwQM1y9Yq98xmuXrFXvmBIrfIp/w4uxnx+Uv5cPsXYfVorKkxQuGKoqmmmmnOdzT9BAXgbYiSSp5iS9HjYsQPnVz5hc+Y+jcTrE1eZvYsRxOsTV5m9ixA+c3PmFz5j6NxOsTV5m9ixHE6xNXmb2LED5zc+YXPmPo3E6xNXmb2LEcTrE1eZvYsQPnNz5me48C03YUWh+UR9pO4m2Jq8zexYkim8H6KkleKpoqiVLvb4MM5pXvlYEm58z+QufMzTM8j8eq3zGaJH49VvmEb3PmfyFz5maZokfj1W+YzRI/Hqt8wN7nzMXPmZpmiR+PVb5jNEj8eq3zA3ufM/kcJaat2U7n5LH9aOmZ5H49VvmaqxqdTVMU6p4aThUXjnek3e17L0gqzvBAzXK1mr3zGa5esVe+YE8EDNcvWKvfMZrl6xV75gTwQM1y9Yq98xmuXrFXvmBPK62r3Z9y/GlfXCbZrl6xV75nOdY8ibDwJk6qihvTuc58qaaf+zSYHZp38jMXPmZpmiR+PVb5jNEj8eq3zA3ufMxc+Z/I0zPI/Hqt8xmeR+PVb5hG9z5mLnzM0zRI/Hqt8xmiR+PVb5gb3PmZlJ3rQ+XmOWZ5H49VvmZzRI/Hqt8wMeD7/wACpPc/dlkR6Sml0lNLp5Caly1dCm23d7WSAoAAAAAAAAAAAAAAAAAAAAAAAAAAAAAAAAAAAAAAAAAAAAAAAAAAAAAAAAAAAAAAAAAAAAAAAAAAAAAAAAAAAAAAAAAAAAAAAAAAAAAAAAAAAAAAAAAAAAAAAAAAAKaVaNoT5anSaOR4uJvg8Kc02k2tKULueg6ZbampU3WH3QLUFVltqalTdYfdMZbampU2/fdAtgVWWWpqdL1h90ZZamp0vWH3QLUFVllqanS9YfdGWWpqdL1h90C1BTQWlaMdRNkqip+FKULibnu5333Xfw/kdMttTU6XfvugWoKrLLU1Ol6w+6MstTU6XrD7oFqCqy21NTpd++6MstTU6XrD7oFqCqyy1NTpesPumMttTUqbfvugWwKWZaVoy5sqXFRU7c2JqFqe7k0r3f8Aw8x1y21NTpesPugWoKrLLU1Ol6w+6MstTU6XrD7oFqCqyy1NTpesPumMttTU6XrD7oFsCqyy1NTpesPujLLU1Ol6w+6Bagpp9o2lIp5k6Oip3DAnE0p7va/L+E3VbakUKaoqZXpNX1D9K90C2BVZbampU3WH3RltqalTdYfdAtQVWWWpqdL1h90ZZamp0vWH3QLUFVltqanS7990ZZamp0vWH3QLUFRMr7TlyopjoqZqBOJpT3fclf6olV9pTZUEyGipko4VEr57vuavX+UC3BVZZamp0vWH3RllqanS9YfdAtQVWWWpqdL1h90Zbamp0vWH3QLUFVllqanS9YfdGW2pqVN1h90C1BU5bamp0vWH3TnJtK0ZzmqCip75Uxy3fPelrlu/h5ALoFVllqanS9YfdGWWpqdL1h90C1BVZZamp0vWH3RllqanS9YfdAtQVWWWpqdL1h90ZZampU3WH3QLUFTltqalTb9900dpWiqmGndFT8KKBzE/Hu65NJr7PLewLkFVllqanS9YfdMZbampU2/fdAtgVWWWpqdL1h90ZZamp0vWH3QLUFVllqanS9YfdGWWpqdL1h90C1BVZbamp0vWH3TlPtK0ZEtTJlFTtOKGHRPd97aS/wAvO0BdAqsstTU6XrD7oyy1NTpesPugWoKrLLU1Ol6w+6MttTU6XfvugWoKrLLU1Ol6w+6MstTU6XrD7oFqCqy21NSpusPuhVlqNr/2dLp//YfdAtQRLOq3W0EmpcHAcyG9w333Pmv9JLAC8FF4Q2hU0dVZUunmKBVNWpcy+FO+Hgt3K/kd6QF7eYv03Hn87T58ymUqLgwxz5Siv4LvhiUV6d3I9BGqbVq5tbNlynHAk3KSg5Ibp1ziba0XpXfleB6m8X/kVEdoVEdkVFZLlQy2ompN74TaTuvfo06WvyaDnzHMlRqp4bcS4MuGOCFRN8qbvbfp0AXF4vPP1to1Mu1KmTdHCpVJMmQqFp36VdE1yprSjtZVZUx2VBPqpkDhcEMUE6PRw00r70vSnfycoF1eEzzVPadWqiqyqJyJUyYvExRS3dAtCV69CaV6v57ncXymy3MhlOZB41w8JQXq9rkvS5br/SB3AAFLZXmyR7IvqZLIllebJHsi+pksIAAAAAAAAiU/nSt92X2MlkSn86Vvuy+xksAAAAAAAACJV+XUHxIvpZLIlZ5dQfEi+lksAAAAAAAACNanmqq+GyRK+6l+4uxEe1PNdV8NkiX91B7i7EBkAAAAAAAHKr00U/4cXYzFF5DT/Dh7EZq/Ip/w4uxmKLyGn+FD2IDsAAAAAAAARKD7dZ+qj/YlkSg+3W/qY/2AlgAAAAAAAESPz1J/TR/UiWRI/PUn9NH9SAlgegAAAAAAAiWr5GvjSvrhJZEtXyNfGlfWgJj5WYMvlftMAAAAAAAyuVGDZfaQHLwfX+BUnufuyyK3we8xUnufuyyChU2vZTtKfZ82Gf4rIqhTruDfw7k1d+XLy6S2GgCsm2XDG5HBmKBSp0My6GWlfwb7k7l+bI02xIFWT5siKGVKqJTgnJJuJtxNtpt3Xu+6/wBBd3IzoAqJFmzJdHBQzJ6jppUcPASgui4MNzULadz0pXu7Sr7+W8SbJcuTRwOdA3TRqNvxaXCuv5PSuUt7hoApp9jQzrQ8dLihlypkuKCfCk3FG3Eny36Fou9j0XHWVZsUmGbKk1DhkRzFMlwOFPxWm9pN+hvk5r3cWmgaAPPSbGrYLpMVbApLf8UUuGJTIrr7m220mm1e7tNyLTJo1XwT+FA4IZTgactcJttO9RcqWjSufSTbjFyvvAyAAKWyvNkj2RfUyWVVnUccdnyo1W1UCfCahhiSS/iehaCTkMev1m2sAiYCHkMev1m2sBkMev1m2sAJgIeQx9IVm0sBkMev1m2sAJguIeQx6/WbawGQx6/WbawAzT+dK33ZfYyWVMiijdpViy6rV0MvSo1e70+XQSshj6QrNtYATAQ8hj1+s21gMhj1+s21gBMBDyGPX6zbWAyGPX6zbWAEwEPIY9frNtYDIY9frNtYAZrPLaD4kX0sllVPoInW0SddVu+ZFc3Gr1/D6NBZZqev1m2sANwaZqev1m2sBmp6/WbawA3Bpmp6/WbawGanr9ZtrADcGmanr9ZtrAZqev1m2sAONqea6r4bO8v7qX7i7EQ7UsxwWZUvLqt3QPQ400/7EiVZbcqB5fWfZWhRrm9gHYGmaXr9ZtrAZqev1m2sANwc81PX6zbWBnNT1+s21gBuDnmp6/WbawM5qev1m2sANavyKf8ADi7GYor8hp9H/wAUHYjSsstw0c95dVu6XE7nGtOh/kYorLcVFIeX1avlwu5RrRoX5ASgaZqev1m2sBmp6/WbawA3Bpmp6/WbawGanr9ZtrADcGmanr9ZtrAxmp6/WbawA6ESg+3Wfqo/2JGanr9ZtrAhWfZrjiq//fVaaqI07o1p5NPIBYA0zU9frNtYDNT1+s21gBuDnmp6/WbawM5qev1m2sANwaZqev1m2sBmp6/WbawA3IkfnqT+mj+tEjNT1+s21gQo7NeeZUOW1f3ETv4avX8S0cnJpAsAaZpev1m2sBmp6/WbawA3Bpmp6/WbawMZqev1m2sAOgOeanr9ZtrAZqev1m2sAOhEtXyJfGlfXCSM1PX6zbWBCtSzHDRwvLqt/wA6WrnGvTHCuYCxfKzBpmp6/WbawGanr9ZtrADcHPNT1+s21gZzU9frNtYAbg0zU9frNtYGM1PX6zbWAHQyuVe055qev1m2sArLa/6+s21gA8H/ADFSe5+7LIrfB9cGwqRXt3QXXvlellkFAAAAAAAAAAAAAAAAUtlebJHsi+pksiWX5skeyL6mSwgAAAAAAACJT+dK33ZfYyWRKfzpW+7L7GSwAAAAAAAAI8/zjQfEi+ktyon+caD4kX0luFAAAAAAAAQrX801Pw2SZH3Ev3V2Ea1/NVT8NkmT9zL91dgHQAAAAAAAHCu8hqPhxdjMUPkNP8OHsRmu8hqPhxdjMUPkNP8ADh7EBIAAAAAAAAIFlctZ+pj/AGJ5Asv7Vb+pj/YCeAAAAAAAAQI/P0r9NH9UJPIEfn6V+mj+qECeAAAAAAAAQLY8ih+NK/8AJCTyBbPkK+NK/wDJCBPAAAAAAAAAAFdYPmSl919rLErrB8yUvufuyxAAAAAAAAAAAAAAAfIAB5+zKykgs+TBMqpEES4SacxJp8J6Gm70Ssuotcp96sTax5EmKy5Liky23wr24E2/4n+ROyan1eVsLACvy6i1yn3qxGXUWuU+9WJYZNT6vK2FgMmp9XlbCwAr8uotcp96sRl1FrlPvViWGTU+rythYDJqfV5WwsAK/LqLXKferEZfRa5T72HEsMmp9XlbCwGTSNXlbCwApJFbSK06xurp0nDLubmQ3PQ+TSSsvotcp97Dib01PIdrVqcmVcoZdy4C0aH+ROyan1eVsLACvy6i1yn3qxGXUWuU+9WJYZNT6vK2FgMmp9XlbCwAr8uotcp96sRl1FrlPvViWGTU+rythYDJqfV5WwsAK/LqLXKferEZdRa5T71Ylhk1Pq8rYWAyan1eVsLACmn11Hl9A8rp7lMjbfjFo/h9Oktc40Gu029hxItdTyFXUCUmUk5kV/8AAvVf5E7JqfV5WwsAOecaDXabew4jONBrtNvYcTpk1Pq8rYWAyan1eVsLADnnGg12m3sOIzjQa7Tb2HE6ZNT6vK2FgMmp9XlbCwA55xoNdpt7DiM40Gu029hxOmTU+rythYDJqfV5WwsAK+1rQoorMqVDWU7bgaSU1X9pIk2jQKTLTrabRCv/AJYeb2nO1qeQrKqWpMtNS3yQLAkSaan8TLbp5X2V/kXN7AGcaDXabew4jONBrtNvYcTpk1Pq8rYWAyan1eVsLADnnGg12m3sOIzjQa7Tb2HE6ZNT6vK2FgMmp9XlbCwA55xoNdpt7DiM40Gu029hxOmTU+rythYDJqfV5WwsAIlZaFC6KelW07blxJLxsOnQ/wAzFDaFEqGQnW06alwprxsOh3L8zrW08hUU9qRKV0uL/IuZ/kYoaaQ6GnbkSr3Lhf2FzL8gOmcaDXabew4jONBrtNvYcTpk1Pq8rYWAyan1eVsLADnnGg12m3sOIzjQa7Tb2HE6ZNT6vK2FgMmp9XlbCwA55xoNdpt7DiM40Gu029hxOmTU+rythYDJqfV5WwsAOecaDXabew4kGza+ihirL6ynV9RE1/MS0aPzLLJpGrythYEGzKeS3WXyJbuqY0r4FyaPyAlZxoNdpt7DiM40Gu029hxOmTU+rythYDJqfV5WwsAOecaDXabew4jONBrtNvYcTpk1Pq8rYWAyan1eVsLADnnGg12m3sOIzjQa7Tb2HE6ZNT6vK2FgMmp9XlbCwA55xoNdpt7DiQY6+iz3Kiyun4Kp41f4xXX8KHRfeWWTU+rythYEGOnkZ8lLxMq7J43dwFy8KH8gJWcaDXabew4jONBrtNvYcTpk1Pq8vYWAyan1eVsLADnnGg12m3sOIzjQa7Tb2HE6ZNT6vK2FgMmp9XlbCwA55xoNdpt7DiM40Gu029hxOmTU+rythYDJqfV5WwsAOecaDXabew4kG1q+iio4VDWU7fjpTaUxPQo4W/SWWTU+rythYEG1qeQqJXSZa/nSuSFevD+QErONBrtNvYcRnGg12m3sOJ0yaRq8rYWAyan1eVsLADnnGg12m3sOIzjQa7Tb2HE6ZNT6vK2FgMmp9XlbCwA55xoNdpt7DiM40Gu029hxOmTU+rythYDJqfV5WwsAOecaDXabew4jONBrtNvYcTpk1Pq8rYWAyaRq8rYWAEPwfadh0jTTTgvTXp0ssiusBJWJSpJJKDkXtZYgAAAAAAAAAAAAAAAAV9ieapH/AC+plgV9ieapH/L6mWAAAAAAAAAEGl871vuy+xk4g0vnet92X2MnAAAAAAAAAQK/y+z/AIkX0snkCv8AL7P+JF9LJ4AAAAAAAAEK1/NVT8NkmT9zL91dhGtfzVU/DZJk/cy/dXYB0AAAAAAABwrvIaj4cXYzFD5DT/Dh7EZrvIaj4cXYzFD5DT/Dh7EBIAAAAAAAAIFl/arf1Mf7E8gWX9qt/Ux/sBPAAAAAAAAIEfn6V+mj+qEnkCPz9K/TR/VCBPAAAAAAAAIFs+Qr40r/AMkJPIFs+Qr40r/yQgTwAAAAAAAAABXWD5kpfc/dliV1g+ZKX3P3ZYgAAAAAAAAAAAAAAw+RmQBR2VV1Uuz5UMFnzZkKcSUSihSf8T03N3kzLqvoudtw4ixPNUj/AJfUywAr8uq+i523DiMuq+i523DiWAAr8uq+i523DiMuq+i523DiWAAr8uq+i523DiMuq+i523DiWAAo6etqladY1Zs5twy71w4dGh/mTMuq+i523DibU3net9yX2MnAV+XVfRc7bhxGXVfRc7bhxLAAV+XVfRc7bhxGXVfRc7bhxLAAV+XVfRc7bhxGXVfRc7bhxLAAUVbWVLraJuzZyamO5cOHTof5k3Lqvoudtw4ma/y+z/iRfSyeBX5dV9FztuHEZdV9FztuHEsABX5dV9FztuHEZdV9FztuHEsABX5dV9FztuHEZdV9FztuHEsABSWpW1MVmVCdmzoU4HpccOJIlV1WpUCVmTmuCtPDh5vad7X81VPw2SJH3Ev3V2AQ8uq+i523DiMuq+i523DiWAAr8uq+i523DiMuq+i523DiWAAr8uq+i523DiMuq+i523DiWAAqaytqnRz07NnJOXFe+HDo0P8AMxRVtUqKQlZs5pS4Vfw4eZfmWFd5DUfDi7GYoPIKf4UPYgI+XVfRc7bhxGXVfRc7bhxLAAV+XVfRc7bhxGXVfRc7bhxLAAV+XVfRc7bhxGXVfRc7bhxLAAV+XVfRc/bhxIVnVtSoqvg2dOivqI27o4dD0aOUvSBZf2qz9TF+wGMuq+i523DiMuq+i523DiWAAr8uq+i523DiMuq+i523DiWAAr8uq+i523DiMuq+i523DiWAAr8uq+i523DiQo62pz1Kidmzr/ERJLhw33cJaeUvSBH5+lfpo/qhAxl1X0XO24cRl1X0XO24cSwAFfl1X0XO24cRl1X0XO24cSwAFfl1X0XO24cRl1X0XO24cSwAFfl1X0XO24cSDalbUxUaTs2ckp0p38KH11o5f9i+IFseRQ/Hlf8AkhAxl1X0XP24cRl1X0XO24cSwAFfl1X0XO24cRl1X0XO24cSwAFfl1X0XO24cRl1X0XO24cSwAFfl1X0XO24cRl1X0XO24cSwAFZ4PNuwqRtNNwXtP0aXoLMrrB8yUvufuyxAAAAAAAAAAAAAAAAAr7E81SP+X1MsCvsTzVI/wCX1MsAAAAAAAAAINL53rfdl9jJxBpfO9b7svsZOAAAAAAAAAgV/l9n/Ei+lk8gV/l9n/Ei+lk8AAAAAAAACFa/mqp+GyTJ+5l+6uwjWv5qqfhskyfuZfursA6AAAAAAAA4V3kNR8OLsZih8hp/hw9iM13kNR8OLsZih8hp/hw9iAkAAAAAAAAECy/tVv6mP9ieQLL+1W/qY/2AngAAAAAAAECPz9K/TR/VCTyBH5+lfpo/qhAngAAAAAAAEC2fIV8aV/5ISeQLZ8hXxpX/AJIQJ4AAAAAAAAAArrB8yUvufuyxK6wfMlL7n7ssQAAAAAAAAAAAAAAHoQAFVJs+tp5SlSLRUMtNuFOQm0m27r79PKdcltPpODqyxLAAV+S2n0nB1ZYjJbT6Tg6ssSwAFfktp9JwdWWIyW0+k4OrLEsABX5LafScHVliYyW0uk4OrLEsQBUwWdXwT5k6G01w5iSivp01ovuuV+jlZ2yW0+k4OrLEsABX5LafScHVliMltPpODqyxLAAV+S2n0nB1ZYjJbT6Tg6ssSwAFfktp9JwdWWIyW0+k4OrLEsABUzLOrps2VMjtNcKU24bqdJXtXadOnQdVS2n0pB1ZYliAK/JbT6Tg6ssRktp9JwdWWJYACvyW0+k4OrLEZLafScHVliWAAr8ltPpODqyxGS2n0nB1ZYlgAKmos+0KiTHJmWmuBGrndTpO723nSGjtKGFQq04Lkkl/7Zej/csgBX5LafScHVliMltPpODqyxLAAV+S2n0nB1ZYjJbT6Tg6ssSwAFfktp9JwdWWIyW0+k4OrLEsABWTKK0JkuOXHacPBjTTup0tDV3OYlUNoSpUEuC04eDAklfTpu5LR6S0AFfktp9JwdWWIyW0+k4OrLEsABX5LafScHVliMltPpODqyxLAAV+S2n0nB1ZYjJbT6Tg6ssSwAFdktpdJwdWWJykWdXyXMcFpJOZG44r5Cel8t2nQi2AFfktp9JwdWWIyW0+k4OrLEsABX5LafScHVliMltPpODqyxLAAV+S2n0nB1ZYjJbT6Tg6ssSwAFfktp9JwdWWJxdn17qYah2mvGQwOBPxCuubTei/l0ItgBX5LafScHVliMltPpSDqyxLAAV+S2n0nB1ZYjJbT6Tg6ssSwAFfktp9JwdWWIyW0+k4OrLEsABX5LafSkHVlicaizq+ol+LmWknCooYldTpaU016edItgBX5LafScHVliMltPpODqyxLAAV+S2n0nB1ZYjJbT6Tg6ssSwAFfktp9JwdWWIyW0+k4OrLEsABX5LafScHVliYyS0ulIOrLEsQBFoKXI6KTTKNx+Lhu4TVzf8AsSgAAAAAAAAAAAAAAAAAAAAAAAAAAAAAAAAAAAAAAAAAAAAAAAAAAAAAAAAAAAAAAAAAAAAAAAAAAAAAAAAAAAAAAAAAAAAAAAAAAAAAAAAAAAAAAAAAAAAAAAAAAfIAB52ho4Kmkgnzp1U5kfCcTVRGk3wmuRO5aEtCO+bJH4lX1mZiZsvzZI9kX1M71EyOVJimS4FG4dLTjUKSXK73o0BEfNkj8Sr6zMxGbJH4lX1mZiRaO2KifOlyZtnxyo44mlfFo4KfKr1pV1zNau2o5ElOXBIcTmKFOKNpJNpJtXX8j0rlvTCxMzZI/Eq+szMRmyR+JV9ZmYnKptVUrlOOSpsqPg3zJcd/K7m0npaT/scpltwwya2bLpp02GmcKSULTaavvd/Ik+b0BErNkj8Sr6zMxGbJH4lX1mZiQLHt2KuqXIny4IYoompcUtO53LTffycuguwOFlQuTV1khTJkUuBQOFTI3G02nfpbb9CLYrbP8513sl9jLIKAAAeK8Oauqp62jl09TOkwxS421LjcN7TSTd3tZ7U8L/6g+caH4MfagPO5xtHpGs30WIzjaPSNZvosSMdqSQqqrlyHE4HG7k0r9N1/IFb5xtHpGs30WIzjaPSNZvosSdNsinkS5kybWtqCW41wZbaem5XO+66/QzaCyqdyJcbgqI4o5aibhjgSbcKbSTd7uTAr842j0jWb6LEZxtHpGs30WJYKxPG1KgkTH4ubKUyVwmk77oW1F6ElwuX8iHaFDBSNRS6iVOlRxRKBq9O5O5tp8mnQBzzjaPSNZvosSbYlo17tyhgjrqmOGOcoYoYpjaaaehpsqSdYfn6z/wBQuxgfVwAEAABSUlHBXR1c2om1LihqI4EoZ8cCSTuSSTSJWZqX8Sr61MxFj8lb+rmdqLECuzNS/iVfWpmIzNS/iVfWpmJ2rKyGklqJwONu+6FNJ6Fy6WtBCobZVTSxT50iKRDBLUd7iT4Wh3pJNvR+aA75mpfxKvrMzEZmpfxKvrUzErOMcyCfJgdKnBGm441E7oLkmk9HKk1eJ9uVsFY5UqVJcGUOSm4I27km770rnyciAs8zUv4lX1qZiMzUv4lX1qZidLLqY6yzpFRMhUMUyG9pX3J3+i/STQKimk5JbakSZk5y46ZxuGZNijV6iSTV7d2hvkLcrov6jl/pIvrhLEAAAAAAAAAAAAAAAAAAAAAAAAAAAAAAAAAAAAAAAAAAAAAAAAAAAAAAAAAAHyAUtl+bJHsi+pm9oUzq6GdTptOOBpabk200k/yvu+REs6vpJVBKlzJ8MMUPCUSaeh8J/kSc50Osw/J4BEaVZizplEySlBBLShiU2Jtx3pt3X3JflyESbYtVO0zXTTYmonE5nC0xOJtRJQtXO65f7FpnOh1mH5PAZzodZh+TwCuMNDOik0qmz0oqdQaEr02ldHe/S2r17GRs31SpqmTBLgSmzFwU5t/BgSavba08vJzE/OVDrEPyeAznQ6xD8ngEQrKsuopJkUyZHAm43dA3wkobkm4Wrrm2uQtyLnKh1iH5PAZzodYh+TwA72f5zrvZL7GWRU2TOlz6+umSY1HC1LV6TV7Sd/KWwUAAA8L/AOoPnGh+DH2o90eD/wDUKJQWhQuJ3LxUav8A90B5Y60s+KmqZc+GFROW70ouR6Grn+Wkj+Pl+svkzHj5frr5PAKt5loSp1nTZccEEuY5alwS5UF0F3D4Tbd+h3+gkQ2zIgkyZagqP4Jahd3Aub4Khd16bXJzlD4+V66+THj5Xrr5MC+iteRG5khqZDSOSoILoU5iaUKab5m4Svr6tVrhnRKKGav4XDferr200+fS71z6SD4+V66+TMePl+uvk8AOhOsPz9Z/6hdjK3x8v118ngT7BmQR2/Z6hivfj07lfzMD60AAgAAK6x+St/VzO1FiUtn1tNTxVkudNUMeVTHdc3ob0PQibnWh1hfJ4Ac7QoVXKGCZBKctJqJxQ3x6fQn6E/T6SLZtjQ0EiGVJlyIIXLcLShvcMTXofLc+Vpk7O1BrC+TwGdqDWF8ngBTS7DmcKXUT6SVMmJKCKUpzSehJx38l7SWi47TbDUbhnRy4Y57nxTo4VMiSaaaSVz0cq03Fnnag1hfJ4DO1BrC+TwA1smmmUlmSKeako5cNzULbS033Xvl9pPIWdqDWF8ngM7UGsL5PADnF/Ukv9JH9cJYlPIqZNT4QQxSI1GoaSJNpNXPhrnLgAAAAAAAAAAAAAAAAAAAAAAAAAAAAAAAAAAAAAAAAAAAAAAAAAAAAAAAAAHyAAa8CH1V8hwYfVXyAAcGH1V8hdD6q+QAC6H1V8hdD6q+QADgw+qvkHDD6q+QAGVClyJK/lMgAAAANXBDF9pJ816AAx4qX6kOyPFS/Ug+QADxUv1IPkPFS/Ug+QADxUv1IPkPFS/Ug+QADxUv1IPkPFwcqhhT9gAG4AAAADXgq/kQ4K5l8gAHBXMvkOCuZfIABwVzL5DgrmXyAAcFcy+Q4K5l8gAMQpcLQktCNwAAAAAAAAAAAAAAAAAAAAAAAAAAAAAAAAAAAAAAAAAAAA//Z;" parent="1" vertex="1">
          <mxGeometry x="570" y="610" width="319.06" height="170" as="geometry" />
        </mxCell>
        <mxCell id="n7uOwCEBbb2PrVGbVbOj-17" value="&lt;p style=&quot;margin-top: 0px ; margin-bottom: 16px ; font-family: &amp;#34;helvetica neue&amp;#34; , &amp;#34;helvetica&amp;#34; , &amp;#34;segoe ui&amp;#34; , &amp;#34;arial&amp;#34; , &amp;#34;freesans&amp;#34; , sans-serif ; font-size: 13px ; font-style: normal ; font-weight: 400 ; letter-spacing: normal ; text-indent: 0px ; text-transform: none ; word-spacing: 0px&quot;&gt;当前虚拟机的垃圾收集都采用分代收集算法，这种算法没有什么新的思想，只是根据对象存活周期的不同将内存分为几块。一般将 java 堆分为新生代和老年代，这样我们就可以根据各个年代的特点选择合适的垃圾收集算法。&lt;/p&gt;&lt;p style=&quot;margin-top: 0px ; margin-bottom: 16px ; font-family: &amp;#34;helvetica neue&amp;#34; , &amp;#34;helvetica&amp;#34; , &amp;#34;segoe ui&amp;#34; , &amp;#34;arial&amp;#34; , &amp;#34;freesans&amp;#34; , sans-serif ; font-size: 13px ; font-style: normal ; font-weight: 400 ; letter-spacing: normal ; text-indent: 0px ; text-transform: none ; word-spacing: 0px&quot;&gt;&lt;strong&gt;&lt;font color=&quot;#ff3d0d&quot;&gt;比如在新生代中，每次收集都会有大量对象死去，所以可以选择复制算法，只需要付出少量对象的复制成本就可以完成每次垃圾收集。而老年代的对象存活几率是比较高的，而且没有额外的空间对它进行分配担保，所以我们必须选择“标记-清除”或“标记-整理”算法进行垃圾收集。&lt;/font&gt;&lt;/strong&gt;&lt;/p&gt;" style="text;whiteSpace=wrap;html=1;fontColor=#BC03FF;" parent="1" vertex="1">
          <mxGeometry x="570" y="812" width="470" height="140" as="geometry" />
        </mxCell>
      </root>
    </mxGraphModel>
  </diagram>
</mxfile>
